<?xml version="1.0" encoding="UTF-8" standalone="no"?>
<svg
   xmlns:dc="http://purl.org/dc/elements/1.1/"
   xmlns:cc="http://creativecommons.org/ns#"
   xmlns:rdf="http://www.w3.org/1999/02/22-rdf-syntax-ns#"
   xmlns:svg="http://www.w3.org/2000/svg"
   xmlns="http://www.w3.org/2000/svg"
   xmlns:sodipodi="http://sodipodi.sourceforge.net/DTD/sodipodi-0.dtd"
   xmlns:inkscape="http://www.inkscape.org/namespaces/inkscape"
   inkscape:export-ydpi="241.905"
   inkscape:export-xdpi="241.905"
   inkscape:export-filename="C:\Users\260862\Desktop\bartender.png"
   width="69.009689mm"
   height="130.90457mm"
   viewBox="0 0 69.009689 130.90457"
   version="1.1"
   id="svg8"
   inkscape:version="1.0 (4035a4fb49, 2020-05-01)"
   sodipodi:docname="korpus.svg">
  <defs
     id="defs2">
    <clipPath
       clipPathUnits="userSpaceOnUse"
       id="clipPath4045">
      <path
         style="fill:none;stroke:#000000;stroke-width:0.264583px;stroke-linecap:butt;stroke-linejoin:miter;stroke-opacity:1"
         d="M 87.197134,57.598109 C 88.69643,71.309833 86.336415,84.020996 68.797741,92.79695 L 14.399527,175.72756 -18.399396,142.39532 27.465763,50.665004 Z"
         id="path4047"
         sodipodi:nodetypes="cccccc" />
    </clipPath>
  </defs>
  <sodipodi:namedview
     inkscape:guide-bbox="true"
     showguides="true"
     id="base"
     pagecolor="#ffffff"
     bordercolor="#666666"
     borderopacity="1.0"
     inkscape:pageopacity="0.0"
     inkscape:pageshadow="2"
     inkscape:zoom="0.58981277"
     inkscape:cx="380.27243"
     inkscape:cy="436.48942"
     inkscape:document-units="mm"
     inkscape:current-layer="layer1"
     inkscape:document-rotation="0"
     showgrid="false"
     inkscape:snap-others="true"
     inkscape:object-nodes="true"
     inkscape:snap-global="false"
     inkscape:window-width="1920"
     inkscape:window-height="1001"
     inkscape:window-x="-9"
     inkscape:window-y="-9"
     inkscape:window-maximized="1" />
  <metadata
     id="metadata5">
    <rdf:RDF>
      <cc:Work
         rdf:about="">
        <dc:format>image/svg+xml</dc:format>
        <dc:type
           rdf:resource="http://purl.org/dc/dcmitype/StillImage" />
        <dc:title></dc:title>
      </cc:Work>
    </rdf:RDF>
  </metadata>
  <g
     transform="translate(-74.205017,-43.306932)"
     style="display:inline"
     inkscape:groupmode="layer"
     id="layer10"
     inkscape:label="right_leg" />
  <g
     transform="translate(-74.205017,-43.306932)"
     inkscape:groupmode="layer"
     id="layer9"
     inkscape:label="left_leg"
     style="display:inline">
    <g
       transform="rotate(-5.2002938,-205.93944,2039.8742)"
       inkscape:transform-center-y="69.07517"
       inkscape:transform-center-x="3.9304165"
       id="g3238">
      <g
         id="g65"
         inkscape:transform-center-x="5.0945768"
         inkscape:transform-center-y="60.660138"
         transform="matrix(1.0497118,0.00626966,0.00626966,0.98139431,180.15256,41.439241)">
        <g
           id="g3217" />
      </g>
    </g>
  </g>
  <g
     sodipodi:insensitive="true"
     transform="translate(-74.205017,-43.306932)"
     inkscape:label="torso"
     inkscape:groupmode="layer"
     id="layer1"
     style="display:inline">
    <g
       inkscape:transform-center-x="-0.57559787"
       transform="matrix(0.99149525,0.00183866,-0.00179712,0.99549334,1.522637,0.58238946)"
       inkscape:transform-center-y="-33.036036"
       id="g1102">
      <g
         id="g71">
        <path
           sodipodi:nodetypes="cccccccc"
           id="path895-3"
           d="m 96.087885,51.617551 c 3.81242,-4.050854 2.70741,-4.039488 4.549545,-8.885468 l 14.71867,0.0781 c 1.69817,3.383011 -0.43974,7.205007 10.60228,11.639161 18.00272,19.292759 5.3602,12.574054 7.27274,33.351786 l -6.89476,60.76428 -38.175595,0.37798 C 83.532941,76.804966 66.739159,85.33148 96.087885,51.617551 Z"
           style="fill:#ffb380;stroke:none;stroke-width:0.264583px;stroke-linecap:butt;stroke-linejoin:miter;stroke-opacity:1" />
        <g
           transform="translate(-254.40024,-3.7398264)"
           id="g3248" />
      </g>
      <path
         style="display:inline;fill:#c0a481;fill-opacity:1;stroke:none;stroke-width:0.264583px;stroke-linecap:butt;stroke-linejoin:miter;stroke-opacity:1"
         d="m 83.700261,66.332452 17.577049,78.678248 15.6938,1.88326 14.66718,-89.301489 -10.20187,-5.848824 c 0,0 -9.52825,9.103635 -12.84173,8.064221 -3.31348,-1.039413 -8.0435,-2.620411 -8.0435,-2.620411 l -5.305178,-5.777389 -4.028262,1.907811 z"
         id="path1004"
         sodipodi:nodetypes="ccccczcccc" />
      <path
         style="display:inline;fill:#191724;fill-opacity:1;stroke:none;stroke-width:0.238083px;stroke-linecap:butt;stroke-linejoin:miter;stroke-opacity:1"
         d="m 94.459594,50.174573 c 4.555376,3.93846 5.714436,8.600286 9.589896,11.268549 0.27579,6.212941 3.53493,7.889473 3.41478,8.536195 -0.37129,1.99841 -2.73841,5.687904 -0.0423,13.203299 -0.72792,3.281221 -1.35529,8.927131 -0.004,13.073526 -0.20514,0.582826 -1.07836,8.244008 -0.0856,11.833738 -0.31863,2.84465 -0.1482,7.71977 0.31203,12.871 0.13239,5.01577 -0.35211,6.61819 0.20567,10.46305 0.16436,3.84486 0.32192,6.5397 0.42708,6.95541 0.0786,-0.0363 0.0179,-3.27082 0.13705,-6.99621 0.1191,-3.72539 0.0855,-5.35516 -0.31765,-10.41996 0.51481,-4.65839 0.52921,-8.33411 0.0359,-12.92527 1.06915,-3.78353 0.36719,-10.943913 -0.0145,-11.638331 0.884,-2.906449 1.33211,-8.203979 -0.16649,-13.201011 0.95311,-4.147691 2.62152,-8.833656 0.01,-13.235906 -0.32732,-0.551773 6.04285,-4.285315 5.08396,-6.225593 2.62615,-1.782536 11.95748,-5.66946 12.1479,-11.4701 l 2.50446,1.962433 c 15.34872,5.280018 11.95778,17.15383 6.94482,87.467928 l 8.57949,31.88891 -31.50365,-0.35158 -38.096725,1.04451 6.014644,-33.42731 C 75.139709,88.434526 68.010085,55.666906 90.310689,52.835243 Z"
         id="path1422-5"
         sodipodi:nodetypes="ccscccccccccccscccccccccc" />
      <path
         sodipodi:nodetypes="ccccccccccccc"
         style="fill:#5d3f08;fill-opacity:1;stroke:none;stroke-width:0.331093px;stroke-linecap:butt;stroke-linejoin:miter;stroke-opacity:1"
         d="m 126.01067,133.77033 2.72214,7.93435 -6.80534,12.09043 1.76939,7.17868 6.39701,1.76319 10.66701,-1.81221 0.3758,-5.4165 -4.70716,-13.46907 4.80753,-8.78168 -6.92386,1.26846 -6.39702,-0.50377 -2.72214,-1.00753 z"
         id="path1073" />
      <path
         style="display:inline;fill:#0a0400;fill-opacity:1;stroke:none;stroke-width:0.27059px;stroke-linecap:butt;stroke-linejoin:miter;stroke-opacity:1"
         d="m 78.093975,138.18795 0.198796,4.66527 59.819519,-0.16474 0.35967,-2.44973 z"
         id="path1656"
         sodipodi:nodetypes="ccccc" />
    </g>
  </g>
  <g
     transform="translate(-74.205017,-43.306932)"
     inkscape:groupmode="layer"
     id="layer7"
     inkscape:label="left_arm"
     style="display:inline" />
  <g
     transform="translate(-74.205017,-43.306932)"
     inkscape:groupmode="layer"
     id="layer8"
     inkscape:label="right_arm"
     style="display:inline" />
  <g
     transform="translate(-74.205017,-43.306932)"
     inkscape:groupmode="layer"
     id="layer11"
     inkscape:label="head"
     style="display:inline" />
</svg>
