<?xml version="1.0" encoding="UTF-8" standalone="no"?>
<svg
   xmlns:dc="http://purl.org/dc/elements/1.1/"
   xmlns:cc="http://creativecommons.org/ns#"
   xmlns:rdf="http://www.w3.org/1999/02/22-rdf-syntax-ns#"
   xmlns:svg="http://www.w3.org/2000/svg"
   xmlns="http://www.w3.org/2000/svg"
   xmlns:sodipodi="http://sodipodi.sourceforge.net/DTD/sodipodi-0.dtd"
   xmlns:inkscape="http://www.inkscape.org/namespaces/inkscape"
   inkscape:export-ydpi="241.905"
   inkscape:export-xdpi="241.905"
   inkscape:export-filename="C:\Users\260862\Desktop\bartender.png"
   width="144.01149mm"
   height="299.91333mm"
   viewBox="0 0 144.01149 299.91333"
   version="1.1"
   id="svg8"
   inkscape:version="1.0 (4035a4fb49, 2020-05-01)"
   sodipodi:docname="shady_merchant.svg">
  <defs
     id="defs2">
    <clipPath
       clipPathUnits="userSpaceOnUse"
       id="clipPath4045">
      <path
         style="fill:none;stroke:#000000;stroke-width:0.264583px;stroke-linecap:butt;stroke-linejoin:miter;stroke-opacity:1"
         d="M 87.197134,57.598109 C 88.69643,71.309833 86.336415,84.020996 68.797741,92.79695 L 14.399527,175.72756 -18.399396,142.39532 27.465763,50.665004 Z"
         id="path4047"
         sodipodi:nodetypes="cccccc" />
    </clipPath>
  </defs>
  <sodipodi:namedview
     inkscape:guide-bbox="true"
     showguides="true"
     id="base"
     pagecolor="#ffffff"
     bordercolor="#666666"
     borderopacity="1.0"
     inkscape:pageopacity="0.0"
     inkscape:pageshadow="2"
     inkscape:zoom="0.58981277"
     inkscape:cx="519.11089"
     inkscape:cy="593.03908"
     inkscape:document-units="mm"
     inkscape:current-layer="layer1"
     inkscape:document-rotation="0"
     showgrid="false"
     inkscape:snap-others="true"
     inkscape:object-nodes="true"
     inkscape:snap-global="false"
     inkscape:window-width="1920"
     inkscape:window-height="1001"
     inkscape:window-x="-9"
     inkscape:window-y="-9"
     inkscape:window-maximized="1" />
  <metadata
     id="metadata5">
    <rdf:RDF>
      <cc:Work
         rdf:about="">
        <dc:format>image/svg+xml</dc:format>
        <dc:type
           rdf:resource="http://purl.org/dc/dcmitype/StillImage" />
        <dc:title />
      </cc:Work>
    </rdf:RDF>
  </metadata>
  <g
     sodipodi:insensitive="true"
     transform="translate(-28.537626,4.0830382)"
     style="display:inline"
     inkscape:groupmode="layer"
     id="layer10"
     inkscape:label="right_leg">
    <g
       transform="rotate(3.2654996,120.14758,159.91692)"
       inkscape:transform-center-y="64.027652"
       inkscape:transform-center-x="-0.63714898"
       id="g1130">
      <path
         sodipodi:nodetypes="cccccc"
         style="display:inline;fill:#482020;fill-opacity:1;stroke:none;stroke-width:0.264583px;stroke-linecap:butt;stroke-linejoin:miter;stroke-opacity:1"
         d="m 139.48577,281.22413 -10.12621,0.45695 -22.05496,-118.61644 c -1.4049,-10.74913 18.8855,-8.66463 24.49382,-6.90486 l 6.10218,8.60556 z"
         id="path3150-8"
         inkscape:transform-center-x="-6.4664385"
         inkscape:transform-center-y="54.330535" />
      <g
         style="display:inline"
         id="g3230"
         inkscape:transform-center-x="1.133646"
         inkscape:transform-center-y="66.343279"
         transform="rotate(5.0664895,150.31686,481.3704)">
        <g
           inkscape:transform-center-y="65.06453"
           inkscape:transform-center-x="-5.0665003"
           id="g3222" />
        <g
           id="g81"
           inkscape:transform-center-x="-5.8564778"
           inkscape:transform-center-y="67.154279">
          <path
             style="display:inline;fill:#151515;fill-opacity:1;stroke:none;stroke-width:0.264583px;stroke-linecap:butt;stroke-linejoin:miter;stroke-opacity:1"
             d="m 100.4406,253.26815 9.66964,25.84139 -5.50395,11.62918 c -1.22991,4.34187 -0.16532,6.46829 3.75041,6.90799 6.70921,-1.29516 11.25608,-7.21856 13.98838,-9.282 2.88024,-3.83165 1.77,-3.00984 1.17224,-6.25185 l -2.90996,-32.67012 c -3.18266,1.72395 -14.0447,4.82428 -20.16676,3.82541 z"
             id="path855-9-6"
             sodipodi:nodetypes="cccccccc" />
          <path
             sodipodi:nodetypes="ccccc"
             id="path1685-96-6"
             d="m 93.435525,215.45431 c 1.996079,2.96759 12.235725,0.66733 16.871955,-2.81423 l 0.0608,1.44154 c -3.05293,4.46245 -11.660459,5.80644 -16.144729,3.29998 z"
             style="display:inline;fill:#000000;fill-opacity:1;stroke:none;stroke-width:0.356346px;stroke-linecap:butt;stroke-linejoin:miter;stroke-opacity:1" />
          <path
             style="fill:#000000;stroke:#000000;stroke-width:0.264583px;stroke-linecap:butt;stroke-linejoin:miter;stroke-opacity:1"
             d="m 109.55254,277.08503 c 3.70131,0.74267 8.1552,0.16108 12.98238,-2.53582 l -0.21688,-2.65894 c -6.38503,3.03193 -11.72166,3.04871 -13.9928,2.02482 z"
             id="path1614-3-2"
             sodipodi:nodetypes="ccccc" />
          <path
             sodipodi:nodetypes="ccccc"
             id="path1614-5-3-9"
             d="m 107.35128,271.34365 c 3.7013,0.74267 9.76152,-0.094 14.58868,-2.79095 l -0.33897,-2.94871 c -6.38502,3.03193 -13.20587,3.59361 -15.47703,2.56969 z"
             style="fill:#000000;stroke:#000000;stroke-width:0.264583px;stroke-linecap:butt;stroke-linejoin:miter;stroke-opacity:1" />
        </g>
      </g>
    </g>
  </g>
  <g
     sodipodi:insensitive="true"
     transform="translate(-28.537626,4.0830382)"
     inkscape:groupmode="layer"
     id="layer9"
     inkscape:label="left_leg"
     style="display:inline">
    <g
       transform="rotate(-5.2002938,-205.93944,2039.8742)"
       inkscape:transform-center-y="69.07517"
       inkscape:transform-center-x="3.9304165"
       id="g3238">
      <g
         id="g65"
         inkscape:transform-center-x="5.0945768"
         inkscape:transform-center-y="60.660138"
         transform="matrix(1.0497118,0.00626966,0.00626966,0.98139431,180.15256,41.439241)">
        <g
           id="g3217" />
      </g>
    </g>
    <g
       id="g1113">
      <g
         transform="rotate(2.7566026,99.250006,162.19736)"
         inkscape:transform-center-y="62.05483"
         inkscape:transform-center-x="12.896378"
         id="g1120">
        <path
           sodipodi:nodetypes="cccccc"
           style="display:inline;fill:#482020;fill-opacity:1;stroke:none;stroke-width:0.268541px;stroke-linecap:butt;stroke-linejoin:miter;stroke-opacity:1"
           d="m 78.40738,278.12682 10.642493,0.26219 20.827907,-116.72634 c -4.0584,-9.93758 -15.802404,-7.62187 -26.240294,-2.15569 l -4.317952,6.64595 z"
           id="path3150"
           inkscape:transform-center-x="4.9162982"
           inkscape:transform-center-y="55.295672" />
        <path
           style="display:inline;fill:#151515;fill-opacity:1;stroke:none;stroke-width:0.268541px;stroke-linecap:butt;stroke-linejoin:miter;stroke-opacity:1"
           d="m 75.627031,251.66945 2.095957,28.13717 -8.526275,9.78997 c -2.341832,3.84815 -1.78848,6.12261 2.09541,7.4572 7.167661,0.33539 11.608237,-3.89769 14.911889,-5.22419 3.897395,-2.97618 4.239729,-2.79881 4.441917,-6.02673 l 5.081349,-34.01095 c -3.677998,0.8978 -14.105956,2.26074 -20.100247,-0.12247 z"
           id="path855-3"
           sodipodi:nodetypes="cccccccc" />
        <path
           sodipodi:nodetypes="ccccc"
           id="path1685-96"
           d="m 79.407704,211.92708 c 0.858335,3.41505 11.772093,4.85755 17.620118,3.27215 l -0.475837,1.34357 c -4.657054,3.03462 -13.61219,1.28112 -17.086179,-2.57419 z"
           style="display:inline;fill:#090909;fill-opacity:1;stroke:none;stroke-width:0.361676px;stroke-linecap:butt;stroke-linejoin:miter;stroke-opacity:1" />
        <path
           style="display:inline;fill:#000000;stroke:#000000;stroke-width:0.264583px;stroke-linecap:butt;stroke-linejoin:miter;stroke-opacity:1"
           d="m 51.973595,273.75666 c 3.258035,1.90695 7.658697,2.80668 13.100811,1.8278 l 0.660373,-2.58474 c -7.024181,0.78862 -12.075682,-0.9325 -13.889894,-2.63986 z"
           id="path1614-0"
           sodipodi:nodetypes="ccccc"
           transform="matrix(1.0459594,-0.0888996,0.09519517,0.97678655,-2.5701423,14.670446)" />
        <path
           sodipodi:nodetypes="ccccc"
           id="path1614-5-7"
           d="m 51.760908,267.61143 c 3.258034,1.90695 9.26059,3.08829 14.702715,2.1094 l 0.639227,-2.89848 C 60.078669,267.61097 53.446409,265.922 51.6322,264.21461 Z"
           style="display:inline;fill:#000000;stroke:#000000;stroke-width:0.264583px;stroke-linecap:butt;stroke-linejoin:miter;stroke-opacity:1"
           transform="matrix(1.0459594,-0.0888996,0.09519517,0.97678655,-2.5701423,14.670446)" />
      </g>
    </g>
  </g>
  <g
     sodipodi:insensitive="true"
     transform="translate(-28.537626,4.0830382)"
     inkscape:label="torso"
     inkscape:groupmode="layer"
     id="layer1"
     style="display:inline">
    <g
       inkscape:transform-center-x="-0.57559787"
       transform="matrix(0.99149525,0.00183866,-0.00179712,0.99549334,1.522637,0.58238946)"
       inkscape:transform-center-y="-33.036036"
       id="g1102">
      <g
         id="g71">
        <path
           sodipodi:nodetypes="cccccccc"
           id="path895-3"
           d="m 96.087885,51.617551 c 3.81242,-4.050854 2.70741,-4.039488 4.549545,-8.885468 l 14.71867,0.0781 c 1.69817,3.383011 -0.43974,7.205007 10.60228,11.639161 18.00272,19.292759 5.3602,12.574054 7.27274,33.351786 l -6.89476,60.76428 -38.175595,0.37798 C 83.532941,76.804966 66.739159,85.33148 96.087885,51.617551 Z"
           style="fill:#ffb380;stroke:none;stroke-width:0.264583px;stroke-linecap:butt;stroke-linejoin:miter;stroke-opacity:1" />
        <g
           transform="translate(-254.40024,-3.7398264)"
           id="g3248" />
      </g>
      <path
         style="display:inline;fill:#c0a481;fill-opacity:1;stroke:none;stroke-width:0.264583px;stroke-linecap:butt;stroke-linejoin:miter;stroke-opacity:1"
         d="m 83.700261,66.332452 17.577049,78.678248 15.6938,1.88326 14.66718,-89.301489 -10.20187,-5.848824 c 0,0 -9.52825,9.103635 -12.84173,8.064221 -3.31348,-1.039413 -8.0435,-2.620411 -8.0435,-2.620411 l -5.305178,-5.777389 -4.028262,1.907811 z"
         id="path1004"
         sodipodi:nodetypes="ccccczcccc" />
      <path
         style="display:inline;fill:#191724;fill-opacity:1;stroke:none;stroke-width:0.238083px;stroke-linecap:butt;stroke-linejoin:miter;stroke-opacity:1"
         d="m 94.459594,50.174573 c 4.555376,3.93846 5.714436,8.600286 9.589896,11.268549 0.27579,6.212941 3.53493,7.889473 3.41478,8.536195 -0.37129,1.99841 -2.73841,5.687904 -0.0423,13.203299 -0.72792,3.281221 -1.35529,8.927131 -0.004,13.073526 -0.20514,0.582826 -1.07836,8.244008 -0.0856,11.833738 -0.31863,2.84465 -0.1482,7.71977 0.31203,12.871 0.13239,5.01577 -0.35211,6.61819 0.20567,10.46305 0.16436,3.84486 0.32192,6.5397 0.42708,6.95541 0.0786,-0.0363 0.0179,-3.27082 0.13705,-6.99621 0.1191,-3.72539 0.0855,-5.35516 -0.31765,-10.41996 0.51481,-4.65839 0.52921,-8.33411 0.0359,-12.92527 1.06915,-3.78353 0.36719,-10.943913 -0.0145,-11.638331 0.884,-2.906449 1.33211,-8.203979 -0.16649,-13.201011 0.95311,-4.147691 2.62152,-8.833656 0.01,-13.235906 -0.32732,-0.551773 6.04285,-4.285315 5.08396,-6.225593 2.62615,-1.782536 11.95748,-5.66946 12.1479,-11.4701 l 2.50446,1.962433 c 15.34872,5.280018 11.95778,17.15383 6.94482,87.467928 l 8.57949,31.88891 -31.50365,-0.35158 -38.096725,1.04451 6.014644,-33.42731 C 75.139709,88.434526 68.010085,55.666906 90.310689,52.835243 Z"
         id="path1422-5"
         sodipodi:nodetypes="ccscccccccccccscccccccccc" />
      <path
         sodipodi:nodetypes="ccccccccccccc"
         style="fill:#5d3f08;fill-opacity:1;stroke:none;stroke-width:0.331093px;stroke-linecap:butt;stroke-linejoin:miter;stroke-opacity:1"
         d="m 126.01067,133.77033 2.72214,7.93435 -6.80534,12.09043 1.76939,7.17868 6.39701,1.76319 10.66701,-1.81221 0.3758,-5.4165 -4.70716,-13.46907 4.80753,-8.78168 -6.92386,1.26846 -6.39702,-0.50377 -2.72214,-1.00753 z"
         id="path1073" />
      <path
         style="display:inline;fill:#0a0400;fill-opacity:1;stroke:none;stroke-width:0.27059px;stroke-linecap:butt;stroke-linejoin:miter;stroke-opacity:1"
         d="m 78.093975,138.18795 0.198796,4.66527 59.819519,-0.16474 0.35967,-2.44973 z"
         id="path1656"
         sodipodi:nodetypes="ccccc" />
    </g>
  </g>
  <g
     sodipodi:insensitive="true"
     transform="translate(-28.537626,4.0830382)"
     inkscape:groupmode="layer"
     id="layer7"
     inkscape:label="left_arm"
     style="display:inline">
    <g
       inkscape:transform-center-y="42.811113"
       inkscape:transform-center-x="21.571834"
       transform="matrix(-0.90982279,0.28104808,0.31301923,1.0133212,71.130811,-9.0506164)"
       id="g1052"
       style="display:inline">
      <g
         id="g1056">
        <path
           style="display:inline;fill:#ffb380;stroke:none;stroke-width:0.267179px;stroke-linecap:butt;stroke-linejoin:miter;stroke-opacity:1"
           d="m 42.214321,108.43384 37.630238,25.44153 2.578597,2.64095 0.64608,6.70433 1.901387,-1.94379 1.75793,2.62446 2.42875,2.12871 c 6.6402,-0.10709 3.99668,-4.92298 5.03809,-7.77734 l -7.86839,-8.63696 -33.279162,-29.33956 C 35.36172,78.349057 34.0851,74.524646 19.644018,64.397686 12.477378,75.648147 6.4766031,71.81391 24.299653,93.825543 Z"
           id="path895-3-2-1-1"
           sodipodi:nodetypes="ccccccccccccc" />
        <path
           sodipodi:nodetypes="ccccccc"
           id="path1422-5-0-1-9"
           d="m 18.291042,88.480054 c 4.937352,1.610245 10.661225,16.883466 19.944195,21.838696 l 43.199086,28.89272 c 2.08302,-2.29603 8.644,-3.05106 10.98826,-6.64777 L 52.083184,98.686102 C 41.63039,86.478781 24.475129,59.199425 12.076003,61.550047 -7.4163769,76.241133 17.497678,87.128292 18.291042,88.480054 Z"
           style="display:inline;fill:#191724;fill-opacity:1;stroke:none;stroke-width:0.281718px;stroke-linecap:butt;stroke-linejoin:miter;stroke-opacity:1" />
      </g>
    </g>
  </g>
  <g
     sodipodi:insensitive="true"
     transform="translate(-28.537626,4.0830382)"
     inkscape:groupmode="layer"
     id="layer8"
     inkscape:label="right_arm"
     style="display:inline">
    <g
       inkscape:transform-center-y="47.390379"
       inkscape:transform-center-x="-15.465933"
       transform="rotate(1.2436132,218.45638,-158.35264)"
       id="g1030">
      <path
         sodipodi:nodetypes="ccccccccccccc"
         id="path895-3-2-1"
         d="m 160.49109,109.95505 8.15429,36.55511 0.52447,7.0027 -3.57302,6.32911 3.13232,-0.5762 0.36447,3.13772 1.1877,3.00327 c 5.9554,2.93887 5.80452,-2.55278 8.03511,-4.61588 l -3.05242,-11.27792 -1.63238,-42.44925 C 156.96914,76.990084 158.65272,83.922431 146.51059,62.692655 c -11.51544,6.732618 -12.65779,-3.199516 1.91878,25.113377 z"
         style="display:inline;fill:#ffb380;stroke:none;stroke-width:0.267179px;stroke-linecap:butt;stroke-linejoin:miter;stroke-opacity:1" />
      <g
         id="g3121"
         inkscape:transform-center-x="-8.3811682"
         inkscape:transform-center-y="41.842071"
         transform="matrix(1.1017409,0.09519949,-0.07372056,1.0226565,31.939095,-16.841657)">
        <path
           style="fill:#191724;fill-opacity:1;stroke:none;stroke-width:0.264583px;stroke-linecap:butt;stroke-linejoin:miter;stroke-opacity:1"
           d="m 104.93463,90.920883 c 8.5659,8.256658 11.14551,16.138097 17.11384,24.040267 l 10.58185,41.52156 c 2.54678,-1.30343 8.27353,0.43825 11.49855,-1.94292 l -9.17681,-48.83226 C 126.80778,92.701211 117.80329,66.321517 103.10979,62.906891 82.052103,64.576719 97.258413,82.97476 104.93463,90.920883 Z"
           id="path1422-5-0-1"
           sodipodi:nodetypes="ccccccc" />
      </g>
    </g>
  </g>
  <g
     sodipodi:insensitive="true"
     transform="translate(-28.537626,4.0830382)"
     inkscape:groupmode="layer"
     id="layer11"
     inkscape:label="head"
     style="display:inline">
    <g
       inkscape:transform-center-y="-20.963035"
       inkscape:transform-center-x="2.9520794"
       transform="rotate(-1.2979727,104.12334,8.8924556)"
       id="g1093">
      <path
         style="fill:#000000;fill-opacity:1;stroke:none;stroke-width:0.254778px;stroke-linecap:butt;stroke-linejoin:miter;stroke-opacity:1"
         d="m 91.198918,11.097191 -6.09044,26.656167 c 0,0 10.097125,5.694039 16.905032,8.868887 6.8079,3.174847 11.37732,-22.470098 11.37732,-22.470098 -2.9441,-42.755439 -8.18467,-5.771887 -22.191912,-13.054956 z"
         id="path1000"
         sodipodi:nodetypes="cczcc" />
      <g
         id="g3243"
         inkscape:transform-center-x="0.6427117"
         inkscape:transform-center-y="-21.490079"
         transform="matrix(0.98967956,0.13087924,-0.12975982,0.99821738,-163.75599,-29.030647)">
        <path
           sodipodi:nodetypes="cccccc"
           id="path899-9"
           d="m 258.91161,3.9022574 c -1.09145,9.2163996 4.23078,16.5889186 6.19208,27.7342556 3.13886,8.073735 6.48154,8.337938 14.63016,9.306119 7.51912,-4.07247 7.25056,-3.234327 10.35448,-10.473827 -0.47414,-17.693202 2.13695,-23.3716785 -0.84813,-32.4903465 -19.41664,-8.0335655 -23.25928,0.1351489 -30.32859,5.9237989 z"
           style="fill:#ffb380;stroke:none;stroke-width:0.264583px;stroke-linecap:butt;stroke-linejoin:miter;stroke-opacity:1" />
        <path
           sodipodi:nodetypes="zzzczzzzzzzzzzzzzzzzz"
           d="m 284.05778,27.869632 c 0.70768,0.344502 0.90401,5.422185 1.20068,6.325477 0.29667,0.903292 -2.60182,2.639604 -3.30898,0.582738 -0.70716,-2.056865 -4.7667,-4.533664 -4.52861,-3.727931 -0.79705,1.779951 -3.02525,12.327802 -2.05838,13.101291 0.96686,0.773489 8.37783,0.190276 9.10176,-0.484385 0.72393,-0.674661 3.84126,-2.270332 3.95184,-2.628497 0.11058,-0.358165 0.79652,-5.19279 0.87871,-6.386101 0.0822,-1.193311 0.7478,-2.207383 0.54871,-5.080366 -0.19909,-2.872983 -0.60175,-7.576914 -13.42853,-6.022008 -12.82678,1.554906 -11.72377,5.633089 -11.69646,7.111392 0.0273,1.478304 5.16214,11.910702 5.54579,12.42372 0.38365,0.513017 3.26574,0.646135 4.81547,1.335487 1.54972,0.689352 3.56875,-3.410989 3.61064,-3.748536 0.0419,-0.337547 -0.41532,-8.848552 -1.16882,-9.589835 -0.7535,-0.741282 -2.82345,1.811775 -3.45018,3.93968 -0.62673,2.127905 -3.51023,1.576612 -3.32811,0.75944 0.18212,-0.817172 -0.50293,-5.486661 -0.0719,-5.991295 0.43103,-0.504634 0.92279,-0.986218 2.12874,-1.609121 1.20595,-0.622903 6.53203,-1.544188 8.56327,-0.98655 2.03124,0.557638 1.98667,0.330897 2.69436,0.6754 z"
           style="fill:#441a00;fill-opacity:1;stroke:none;stroke-width:0.225992px;stroke-linecap:butt;stroke-linejoin:miter;stroke-opacity:1"
           id="path901-8" />
      </g>
      <ellipse
         style="fill:#ffb380;stroke-width:0.310999"
         id="path128"
         cx="97.803246"
         cy="16.127916"
         rx="3.6250823"
         ry="2.4413819" />
      <ellipse
         style="fill:#000014;fill-opacity:0.472656;stroke:#552200;stroke-width:1;stroke-miterlimit:4;stroke-dasharray:none;stroke-opacity:1"
         id="path132"
         ry="4.599597"
         rx="4.8215404"
         cy="21.210316"
         cx="100.39257" />
      <ellipse
         id="path132-6"
         style="display:inline;fill:#865e4c;fill-opacity:1;stroke:#552200;stroke-width:1;stroke-miterlimit:4;stroke-dasharray:none;stroke-opacity:1"
         ry="4.6356325"
         rx="4.8205857"
         cy="21.136339"
         cx="114.30106" />
      <path
         style="fill:#8d634a;fill-opacity:1;stroke:#552200;stroke-width:0.82529;stroke-linecap:butt;stroke-linejoin:miter;stroke-miterlimit:4;stroke-dasharray:none;stroke-opacity:1"
         d="m 104.75748,18.853753 h 5.20113"
         id="path982" />
      <path
         style="fill:none;stroke:#552200;stroke-width:0.6;stroke-linecap:butt;stroke-linejoin:miter;stroke-miterlimit:4;stroke-dasharray:none;stroke-opacity:1"
         d="M 95.73979,19.359489 90.732631,15.624812"
         id="path994" />
      <path
         style="fill:#1d1120;fill-opacity:1;stroke:none;stroke-width:0.272808px;stroke-linecap:butt;stroke-linejoin:miter;stroke-opacity:1"
         d="m 107.44377,11.088079 c 4.81311,-0.02755 6.80261,0.569491 6.92131,1.371405 0.11869,0.801912 1.32929,9.047675 2.52226,11.836555 1.19296,2.78888 2.4793,18.137522 2.4793,18.137522 0,0 6.20901,6.13912 7.85688,7.439364 1.64787,1.300244 3.87862,4.741489 3.87862,4.741489 1.91993,0.693085 0.38154,-45.1542144 -3.08125,-50.9701403 0,0 -6.59339,-6.1292254 -8.3863,-6.9405168 -1.0531,0.5203716 -5.08075,-1.2839012 -17.20397,-0.4418021 C 98.74127,-0.52854539 91.523106,2.5722975 88.865007,10.683552 88.662556,11.301337 87.071588,14.114953 83.940379,21.189424 80.205316,29.628205 74.714817,47.5497 74.714817,47.5497 l 14.177837,1.592511 c 0,0 3.872735,-30.670711 5.373995,-32.23426 1.501261,-1.56355 4.056825,-6.9733926 6.467851,-6.188582 2.41104,0.78481 6.70927,0.36871 6.70927,0.36871 z"
         id="path996"
         sodipodi:nodetypes="zzzczccccsscczzz" />
      <path
         style="fill:#382d42;fill-opacity:1;stroke:none;stroke-width:0.264583px;stroke-linecap:butt;stroke-linejoin:miter;stroke-opacity:1"
         d="m 94.920762,12.526356 c -0.443885,1.479625 0.799291,21.862187 0.139555,22.040704 -0.269577,1.949944 -10.41329,-5.942579 -10.41329,-5.942579 l 6.941782,-24.4815298 26.490761,8.3069578 -0.26424,26.714321 12.21837,4.054737 -9.58348,-39.4345047 -8.88647,5.6851404 z"
         id="path1077"
         sodipodi:nodetypes="cccccccccc" />
      <path
         style="fill:#2d2d3f;fill-opacity:1;stroke:none;stroke-width:0.264583px;stroke-linecap:butt;stroke-linejoin:miter;stroke-opacity:1"
         d="m 110.48433,-2.5633202 -9.78246,5.1789531 -1.935572,3.8188241 6.277522,1.046253 -2.19713,-4.1850124 8.05615,-5.3882039 6.53908,2.19713162 -3.34801,5.33589108 6.27752,-4.91738983 -5.38821,-3.34801007 z"
         id="path1079" />
    </g>
  </g>
</svg>
