<?xml version="1.0" encoding="UTF-8" standalone="no"?>
<svg
   xmlns:dc="http://purl.org/dc/elements/1.1/"
   xmlns:cc="http://creativecommons.org/ns#"
   xmlns:rdf="http://www.w3.org/1999/02/22-rdf-syntax-ns#"
   xmlns:svg="http://www.w3.org/2000/svg"
   xmlns="http://www.w3.org/2000/svg"
   xmlns:sodipodi="http://sodipodi.sourceforge.net/DTD/sodipodi-0.dtd"
   xmlns:inkscape="http://www.inkscape.org/namespaces/inkscape"
   sodipodi:docname="head.svg"
   inkscape:version="1.0 (4035a4fb49, 2020-05-01)"
   id="svg8"
   version="1.1"
   viewBox="0 0 39.831972 54.240264"
   height="54.240265mm"
   width="39.83197mm"
   inkscape:export-filename="C:\studia\II\animation_2d\shephard\shepherd_icon.png"
   inkscape:export-xdpi="25.400002"
   inkscape:export-ydpi="25.400002">
  <defs
     id="defs2">
    <clipPath
       id="clipPath4045"
       clipPathUnits="userSpaceOnUse">
      <path
         sodipodi:nodetypes="cccccc"
         id="path4047"
         d="M 87.197134,57.598109 C 88.69643,71.309833 86.336415,84.020996 68.797741,92.79695 L 14.399527,175.72756 -18.399396,142.39532 27.465763,50.665004 Z"
         style="fill:none;stroke:#000000;stroke-width:0.264583px;stroke-linecap:butt;stroke-linejoin:miter;stroke-opacity:1" />
    </clipPath>
  </defs>
  <sodipodi:namedview
     inkscape:window-maximized="1"
     inkscape:window-y="-9"
     inkscape:window-x="-9"
     inkscape:window-height="1001"
     inkscape:window-width="1920"
     inkscape:snap-global="false"
     inkscape:object-nodes="true"
     inkscape:snap-others="true"
     showgrid="false"
     inkscape:document-rotation="0"
     inkscape:current-layer="layer6"
     inkscape:document-units="mm"
     inkscape:cy="323.61403"
     inkscape:cx="-1156.92"
     inkscape:zoom="0.32079703"
     inkscape:pageshadow="2"
     inkscape:pageopacity="0.0"
     borderopacity="1.0"
     bordercolor="#666666"
     pagecolor="#ffffff"
     id="base"
     showguides="true"
     inkscape:guide-bbox="true" />
  <metadata
     id="metadata5">
    <rdf:RDF>
      <cc:Work
         rdf:about="">
        <dc:format>image/svg+xml</dc:format>
        <dc:type
           rdf:resource="http://purl.org/dc/dcmitype/StillImage" />
        <dc:title></dc:title>
      </cc:Work>
    </rdf:RDF>
  </metadata>
  <g
     inkscape:groupmode="layer"
     id="layer8"
     inkscape:label="left_leg"
     style="display:inline"
     transform="translate(-88.004091,4.5537185)" />
  <g
     inkscape:groupmode="layer"
     id="layer4"
     inkscape:label="right_leg"
     style="display:inline"
     transform="translate(-88.004091,4.5537185)" />
  <g
     inkscape:groupmode="layer"
     id="layer5"
     inkscape:label="left_arm"
     style="display:inline"
     transform="translate(-88.004091,4.5537185)" />
  <g
     inkscape:groupmode="layer"
     id="layer7"
     inkscape:label="right_arm"
     style="display:inline"
     transform="translate(-88.004091,4.5537185)" />
  <g
     inkscape:groupmode="layer"
     id="layer3"
     inkscape:label="torso"
     style="display:inline"
     transform="translate(-88.004091,4.5537185)" />
  <g
     inkscape:groupmode="layer"
     id="layer6"
     inkscape:label="head"
     style="display:inline"
     transform="translate(-88.004091,4.5537185)">
    <g
       id="g888"
       inkscape:transform-center-x="0.23377547"
       inkscape:transform-center-y="-25.20528"
       transform="rotate(-0.85799672,107.87163,49.591863)">
      <g
         transform="matrix(0.91215663,0.13311453,-0.12326808,0.98501819,36.465559,-20.86922)"
         inkscape:transform-center-y="-21.214013"
         inkscape:transform-center-x="0.45413667"
         id="g3243">
        <path
           style="fill:#f0c2a6;fill-opacity:1;stroke:none;stroke-width:0.264583px;stroke-linecap:butt;stroke-linejoin:miter;stroke-opacity:1"
           d="m 67.461287,23.078376 c -0.545559,9.355868 0.473947,12.705662 2.410275,22.520233 3.138858,8.073735 11.028029,9.879824 16.901418,11.739226 7.519114,-4.07247 12.144229,-9.50857 12.858279,-16.73118 -0.73208,-9.599587 0.345109,-13.216161 -2.639974,-22.334829 -19.416641,-8.033566 -21.04899,-5.112685 -29.529998,4.80655 z"
           id="path899-9"
           sodipodi:nodetypes="cccccc" />
        <path
           id="path901-8"
           style="fill:#bd5238;fill-opacity:1;stroke:none;stroke-width:0.264583px;stroke-linecap:butt;stroke-linejoin:miter;stroke-opacity:1"
           d="m 99.111941,31.736932 -1.982025,11.0564 c -0.641937,0.118308 -8.463145,-2.941229 -12.476209,-2.715502 -5.476961,1.408531 -8.372515,4.317373 -11.271581,4.811514 l -5.815957,-8.560653 c 1.449137,7.251923 2.798857,8.287215 4.863006,15.690629 10.829128,12.090309 21.555395,9.606263 26.703266,-3.116585 0.0822,-7.535937 0.575415,-9.612122 -0.0205,-17.165801 z m -12.07175,12.017502 c 1.015822,0.0255 3.602269,1.175845 6.218052,1.345405 0.0091,0.555789 -0.07502,1.776303 -0.541952,2.812488 -9.216393,-0.08523 -7.006666,-0.587737 -14.238269,1.599473 -1.264275,-1.852225 -0.561083,-2.549389 -0.815804,-1.997872 2.175284,-1.864153 4.520265,-3.153528 5.588405,-3.456312 z"
           sodipodi:nodetypes="cccccccccccccccc" />
        <path
           style="fill:#bd5238;fill-opacity:1;stroke:none;stroke-width:0.264583px;stroke-linecap:butt;stroke-linejoin:miter;stroke-opacity:1"
           d="m 67.491406,21.159524 c -1.018544,1.869714 -2.835676,4.158453 -2.09988,8.214204 0.747982,4.122925 0.792798,5.943145 1.05674,6.909903 0.564139,-3.631927 5.204742,-7.175179 10.640596,-14.014124 1.032725,-1.299289 4.273555,-5.32201 4.273555,-5.32201 2.713397,1.446517 9.429499,9.745542 13.967968,13.010042 0.05635,-0.587155 3.235296,2.28012 4.412325,4.043255 3.13675,-1.827956 -0.440039,-9.504548 -1.214389,-12.184045 -1.219139,-0.156715 -5.319094,-3.375898 -3.434067,-4.643986 -2.054344,-1.487025 -3.727652,-3.307166 -10.41576,-3.628253 -1.847801,2.286856 -9.045783,2.775692 -9.045783,2.775692 l -6.130693,2.310258 z"
           id="path906-1"
           sodipodi:nodetypes="cscsscccccccc" />
      </g>
      <path
         sodipodi:nodetypes="zzzzzsz"
         id="path870"
         d="m 89.683498,12.95181 c 4.467463,-1.897857 30.313492,0.09904 36.489042,2.640214 6.17556,2.541171 -2.68552,-7.8491893 -3.24145,-8.945626 -0.55593,-1.0964366 -1.38534,-9.0298189 -3.88157,-10.4550616 -2.49621,-1.425243 -15.17661,-0.079899 -16.72269,-0.1984927 -1.54609,-0.1185938 -2.856707,4.63635418 -6.943828,10.2502186 0,0 -10.166967,8.6066047 -5.699504,6.7087477 z"
         style="fill:#d1cac5;fill-opacity:1;stroke:none;stroke-width:0.2588px;stroke-linecap:butt;stroke-linejoin:miter;stroke-opacity:1" />
      <path
         sodipodi:nodetypes="zzccz"
         id="path872"
         d="m 95.522915,6.2252064 c 1.399216,-0.4311424 25.581825,-0.4101558 27.359515,0.732377 1.77769,1.1425329 -0.36619,-2.6679455 -0.36619,-2.6679455 l -26.260949,0.313876 c 0,0 -2.131593,2.0528348 -0.732376,1.6216925 z"
         style="fill:#acaaaa;fill-opacity:1;stroke:none;stroke-width:0.264583px;stroke-linecap:butt;stroke-linejoin:miter;stroke-opacity:1" />
    </g>
  </g>
</svg>
