<?xml version="1.0" encoding="UTF-8" standalone="no"?>
<svg
   xmlns:dc="http://purl.org/dc/elements/1.1/"
   xmlns:cc="http://creativecommons.org/ns#"
   xmlns:rdf="http://www.w3.org/1999/02/22-rdf-syntax-ns#"
   xmlns:svg="http://www.w3.org/2000/svg"
   xmlns="http://www.w3.org/2000/svg"
   xmlns:sodipodi="http://sodipodi.sourceforge.net/DTD/sodipodi-0.dtd"
   xmlns:inkscape="http://www.inkscape.org/namespaces/inkscape"
   inkscape:export-ydpi="241.905"
   inkscape:export-xdpi="241.905"
   inkscape:export-filename="C:\Users\260862\Desktop\bartender.png"
   width="35.018318mm"
   height="115.94879mm"
   viewBox="0 0 35.018318 115.94879"
   version="1.1"
   id="svg8"
   inkscape:version="1.0 (4035a4fb49, 2020-05-01)"
   sodipodi:docname="reka2.svg">
  <defs
     id="defs2">
    <clipPath
       clipPathUnits="userSpaceOnUse"
       id="clipPath4045">
      <path
         style="fill:none;stroke:#000000;stroke-width:0.264583px;stroke-linecap:butt;stroke-linejoin:miter;stroke-opacity:1"
         d="M 87.197134,57.598109 C 88.69643,71.309833 86.336415,84.020996 68.797741,92.79695 L 14.399527,175.72756 -18.399396,142.39532 27.465763,50.665004 Z"
         id="path4047"
         sodipodi:nodetypes="cccccc" />
    </clipPath>
  </defs>
  <sodipodi:namedview
     inkscape:guide-bbox="true"
     showguides="true"
     id="base"
     pagecolor="#ffffff"
     bordercolor="#666666"
     borderopacity="1.0"
     inkscape:pageopacity="0.0"
     inkscape:pageshadow="2"
     inkscape:zoom="0.63221632"
     inkscape:cx="-219.66478"
     inkscape:cy="353.19588"
     inkscape:document-units="mm"
     inkscape:current-layer="layer4"
     inkscape:document-rotation="0"
     showgrid="false"
     inkscape:snap-others="true"
     inkscape:object-nodes="true"
     inkscape:snap-global="false"
     inkscape:window-width="1920"
     inkscape:window-height="1001"
     inkscape:window-x="-9"
     inkscape:window-y="-9"
     inkscape:window-maximized="1" />
  <metadata
     id="metadata5">
    <rdf:RDF>
      <cc:Work
         rdf:about="">
        <dc:format>image/svg+xml</dc:format>
        <dc:type
           rdf:resource="http://purl.org/dc/dcmitype/StillImage" />
        <dc:title></dc:title>
      </cc:Work>
    </rdf:RDF>
  </metadata>
  <g
     transform="translate(-130.80719,-55.039369)"
     inkscape:label="noga1"
     id="layer6"
     inkscape:groupmode="layer" />
  <g
     transform="translate(-130.80719,-55.039369)"
     inkscape:label="noga2"
     id="layer7"
     inkscape:groupmode="layer" />
  <g
     transform="translate(-130.80719,-55.039369)"
     inkscape:label="korpus"
     id="layer8"
     inkscape:groupmode="layer" />
  <g
     sodipodi:insensitive="true"
     transform="translate(-130.80719,-55.039369)"
     inkscape:label="reka2"
     id="layer5"
     inkscape:groupmode="layer">
    <g
       transform="rotate(3.3507592,82.97477,828.3662)"
       inkscape:transform-center-y="47.411059"
       inkscape:transform-center-x="-13.239027"
       id="g3121">
      <path
         style="fill:#d37e4c;fill-opacity:1;stroke:none;stroke-width:0.264583px;stroke-linecap:butt;stroke-linejoin:miter;stroke-opacity:1"
         d="m 105.21724,108.74117 5.54395,45.56692 1.04063,5.4616 -0.6906,7.2026 c 6.1135,2.27204 8.80155,0.0813 10.749,-2.21739 l -2.17116,-8.85249 -2.75938,-53.21958 C 104.71612,71.510833 109.12462,75.660721 95.011337,55.858787 c -10.47775,7.966379 -10.567252,8.687249 2.834209,36.180428 z"
         id="path895-3-2-1"
         sodipodi:nodetypes="cccccccccc" />
      <path
         id="path1660-9-5-5"
         d="m 111.65773,158.83808 c -4.65086,8.01273 -3.1348,8.52831 -3.1348,8.52831 0,0 -3.45007,2.04242 -0.0827,0.0452 3.36731,-1.99729 5.04959,-7.47847 5.04959,-7.47847 z"
         style="fill:#d37e4c;fill-opacity:1;stroke:none;stroke-width:0.264583px;stroke-linecap:butt;stroke-linejoin:miter;stroke-opacity:1" />
      <path
         sodipodi:nodetypes="czzzssccc"
         id="path1422-5-0-1"
         d="m 90.597686,79.108152 c 2.770128,9.145196 11.633154,27.942038 11.304674,30.674358 -0.32847,2.73232 -0.84929,20.32002 -0.74609,31.82721 0.10321,11.50718 3.95893,15.86717 4.7879,15.84723 0.82896,-0.0199 16.51334,-1.35096 17.68629,-1.19907 0.58647,0.0759 2.98771,-2.05583 2.19473,-13.43566 -0.79297,-11.37983 -4.78015,-32.00771 -4.78015,-32.00771 -4.31562,-14.514048 -4.93658,-62.165766 -31.39779,-57.328096 -8.069586,11.681613 -0.05572,14.683609 0.950436,25.621738 z"
         style="fill:#eedcd1;fill-opacity:1;stroke:none;stroke-width:0.264583px;stroke-linecap:butt;stroke-linejoin:miter;stroke-opacity:1" />
    </g>
  </g>
  <g
     transform="translate(-130.80719,-55.039369)"
     inkscape:label="reka1"
     id="layer4"
     inkscape:groupmode="layer" />
  <g
     transform="translate(-130.80719,-55.039369)"
     inkscape:label="glowa"
     id="layer3"
     inkscape:groupmode="layer" />
</svg>
