<?xml version="1.0" encoding="UTF-8" standalone="no"?>
<svg
   xmlns:dc="http://purl.org/dc/elements/1.1/"
   xmlns:cc="http://creativecommons.org/ns#"
   xmlns:rdf="http://www.w3.org/1999/02/22-rdf-syntax-ns#"
   xmlns:svg="http://www.w3.org/2000/svg"
   xmlns="http://www.w3.org/2000/svg"
   xmlns:sodipodi="http://sodipodi.sourceforge.net/DTD/sodipodi-0.dtd"
   xmlns:inkscape="http://www.inkscape.org/namespaces/inkscape"
   inkscape:export-ydpi="241.905"
   inkscape:export-xdpi="241.905"
   inkscape:export-filename="C:\Users\260862\Desktop\bartender.png"
   width="37.199005mm"
   height="49.091667mm"
   viewBox="0 0 37.199005 49.091667"
   version="1.1"
   id="svg8"
   inkscape:version="1.0 (4035a4fb49, 2020-05-01)"
   sodipodi:docname="head.svg">
  <defs
     id="defs2">
    <clipPath
       clipPathUnits="userSpaceOnUse"
       id="clipPath4045">
      <path
         style="fill:none;stroke:#000000;stroke-width:0.264583px;stroke-linecap:butt;stroke-linejoin:miter;stroke-opacity:1"
         d="M 87.197134,57.598109 C 88.69643,71.309833 86.336415,84.020996 68.797741,92.79695 L 14.399527,175.72756 -18.399396,142.39532 27.465763,50.665004 Z"
         id="path4047"
         sodipodi:nodetypes="cccccc" />
    </clipPath>
  </defs>
  <sodipodi:namedview
     inkscape:guide-bbox="true"
     showguides="true"
     id="base"
     pagecolor="#ffffff"
     bordercolor="#666666"
     borderopacity="1.0"
     inkscape:pageopacity="0.0"
     inkscape:pageshadow="2"
     inkscape:zoom="0.63221632"
     inkscape:cx="81.402424"
     inkscape:cy="610.81642"
     inkscape:document-units="mm"
     inkscape:current-layer="layer4"
     inkscape:document-rotation="0"
     showgrid="false"
     inkscape:snap-others="true"
     inkscape:object-nodes="true"
     inkscape:snap-global="false"
     inkscape:window-width="1920"
     inkscape:window-height="1001"
     inkscape:window-x="-9"
     inkscape:window-y="-9"
     inkscape:window-maximized="1" />
  <metadata
     id="metadata5">
    <rdf:RDF>
      <cc:Work
         rdf:about="">
        <dc:format>image/svg+xml</dc:format>
        <dc:type
           rdf:resource="http://purl.org/dc/dcmitype/StillImage" />
        <dc:title></dc:title>
      </cc:Work>
    </rdf:RDF>
  </metadata>
  <g
     transform="translate(-89.88155,-7.4114439)"
     inkscape:label="noga1"
     id="layer6"
     inkscape:groupmode="layer" />
  <g
     transform="translate(-89.88155,-7.4114439)"
     inkscape:label="noga2"
     id="layer7"
     inkscape:groupmode="layer" />
  <g
     transform="translate(-89.88155,-7.4114439)"
     inkscape:label="korpus"
     id="layer8"
     inkscape:groupmode="layer" />
  <g
     transform="translate(-89.88155,-7.4114439)"
     inkscape:label="reka2"
     id="layer5"
     inkscape:groupmode="layer" />
  <g
     transform="translate(-89.88155,-7.4114439)"
     inkscape:label="reka1"
     id="layer4"
     inkscape:groupmode="layer" />
  <g
     sodipodi:insensitive="true"
     transform="translate(-89.88155,-7.4114439)"
     inkscape:label="glowa"
     id="layer3"
     inkscape:groupmode="layer">
    <g
       transform="rotate(7.696278,132.75617,216.28436)"
       inkscape:transform-center-y="-21.342667"
       inkscape:transform-center-x="0.49338637"
       id="g3243">
      <path
         style="fill:#d37e4c;fill-opacity:1;stroke:none;stroke-width:0.264583px;stroke-linecap:butt;stroke-linejoin:miter;stroke-opacity:1"
         d="m 67.615849,24.774525 c -0.545559,9.355868 0.473947,12.705662 2.410275,22.520233 3.138858,8.073735 11.028029,9.879824 16.901418,11.739226 7.519114,-4.07247 12.144229,-9.50857 12.858279,-16.73118 -0.73208,-9.599587 0.345109,-13.216161 -2.639974,-22.334829 -19.416641,-8.033566 -21.04899,-5.112685 -29.529998,4.80655 z"
         id="path899-9"
         sodipodi:nodetypes="cccccc" />
      <path
         id="path901-8"
         style="fill:#a45412;fill-opacity:1;stroke:none;stroke-width:0.264583px;stroke-linecap:butt;stroke-linejoin:miter;stroke-opacity:1"
         d="m 99.111941,31.736932 -1.982025,11.0564 c -0.641937,0.118308 -8.463145,-2.941229 -12.476209,-2.715502 -5.476961,1.408531 -8.372515,4.317373 -11.271581,4.811514 l -5.815957,-8.560653 c 1.449137,7.251923 1.564308,8.754477 3.628457,16.157891 14.134791,12.544862 17.811878,10.713011 28.45614,0.251645 0.0822,-7.535937 0.05709,-13.447614 -0.538825,-21.001293 z m -12.07175,12.017502 c 1.015822,0.0255 3.602269,1.175845 6.218052,1.345405 0.0091,0.555789 -0.07502,1.776303 -0.541952,2.812488 -9.216393,-0.08523 -7.006666,-0.587737 -14.238269,1.599473 -1.264275,-1.852225 -0.561083,-2.549389 -0.815804,-1.997872 2.175284,-1.864153 4.520265,-3.153528 5.588405,-3.456312 z"
         sodipodi:nodetypes="cccccccccccccccc" />
      <path
         style="fill:#a45412;fill-opacity:1;stroke:none;stroke-width:0.264583px;stroke-linecap:butt;stroke-linejoin:miter;stroke-opacity:1"
         d="m 66.195808,20.06001 c -1.018544,1.869714 -2.835676,4.158453 -2.09988,8.214204 0.747982,4.122925 2.088396,7.042659 2.352338,8.009417 0.564139,-3.631927 5.204742,-7.175179 10.640596,-14.014124 1.032725,-1.299289 4.273555,-5.32201 4.273555,-5.32201 2.713397,1.446517 12.555077,7.411255 17.093546,10.675755 0.05635,-0.587155 1.292028,1.480565 2.469057,3.2437 0.63039,-1.701682 0.48982,-6.018843 -0.28453,-8.69834 -0.0927,-0.308941 -3.826917,-5.914315 -3.8849,-6.282527 -2.054344,-1.487025 -6.036916,-3.41996 -12.725024,-3.741047 -2.157926,-0.008 -10.031513,2.271603 -10.031513,2.271603 l -5.792633,3.114305 z"
         id="path906-1"
         sodipodi:nodetypes="cscsscccccccc" />
    </g>
  </g>
</svg>
