<?xml version="1.0" encoding="UTF-8" standalone="no"?>
<svg
   xmlns:dc="http://purl.org/dc/elements/1.1/"
   xmlns:cc="http://creativecommons.org/ns#"
   xmlns:rdf="http://www.w3.org/1999/02/22-rdf-syntax-ns#"
   xmlns:svg="http://www.w3.org/2000/svg"
   xmlns="http://www.w3.org/2000/svg"
   xmlns:xlink="http://www.w3.org/1999/xlink"
   xmlns:sodipodi="http://sodipodi.sourceforge.net/DTD/sodipodi-0.dtd"
   xmlns:inkscape="http://www.inkscape.org/namespaces/inkscape"
   sodipodi:docname="noga3.svg"
   inkscape:version="1.0 (4035a4fb49, 2020-05-01)"
   id="svg1182"
   version="1.1"
   viewBox="0 0 41.884922 75.989385"
   height="75.989388mm"
   width="41.884922mm">
  <defs
     id="defs1176">
    <linearGradient
       id="linearGradient3684-2"
       inkscape:collect="always">
      <stop
         id="stop3680"
         offset="0"
         style="stop-color:#666666;stop-opacity:1" />
      <stop
         id="stop3682"
         offset="1"
         style="stop-color:#cccccc;stop-opacity:1" />
    </linearGradient>
    <linearGradient
       inkscape:collect="always"
       xlink:href="#linearGradient3684-2"
       id="linearGradient3696-8"
       x1="134.36404"
       y1="252.2569"
       x2="162.92369"
       y2="242.45168"
       gradientUnits="userSpaceOnUse"
       gradientTransform="matrix(0.98230484,-0.1119029,0.10203396,0.89567341,-34.462013,35.104149)" />
  </defs>
  <sodipodi:namedview
     inkscape:window-maximized="1"
     inkscape:window-y="-9"
     inkscape:window-x="-9"
     inkscape:window-height="1001"
     inkscape:window-width="1920"
     inkscape:snap-global="false"
     showgrid="false"
     inkscape:document-rotation="0"
     inkscape:current-layer="layer6"
     inkscape:document-units="mm"
     inkscape:cy="32.424516"
     inkscape:cx="-28.274265"
     inkscape:zoom="0.89189393"
     inkscape:pageshadow="2"
     inkscape:pageopacity="0.0"
     borderopacity="1.0"
     bordercolor="#666666"
     pagecolor="#ffffff"
     id="base" />
  <metadata
     id="metadata1179">
    <rdf:RDF>
      <cc:Work
         rdf:about="">
        <dc:format>image/svg+xml</dc:format>
        <dc:type
           rdf:resource="http://purl.org/dc/dcmitype/StillImage" />
        <dc:title></dc:title>
      </cc:Work>
    </rdf:RDF>
  </metadata>
  <g
     transform="translate(-114.06956,-209.52374)"
     inkscape:label="ogon"
     id="layer8"
     inkscape:groupmode="layer" />
  <g
     transform="translate(-114.06956,-209.52374)"
     inkscape:label="noga1"
     id="layer3"
     inkscape:groupmode="layer" />
  <g
     sodipodi:insensitive="true"
     transform="translate(-114.06956,-209.52374)"
     inkscape:label="noga3"
     id="layer5"
     inkscape:groupmode="layer">
    <path
       inkscape:transform-center-y="24.392539"
       inkscape:transform-center-x="9.163966"
       style="fill:url(#linearGradient3696-8);fill-opacity:1;stroke:none;stroke-width:0.249781px;stroke-linecap:butt;stroke-linejoin:miter;stroke-opacity:1"
       d="m 127.20293,221.83644 c -0.35374,7.22473 2.02554,16.17085 4.04761,19.88747 2.02209,3.7166 -0.98993,15.23688 -0.60773,16.57902 0.38222,1.34216 -1.82723,7.70196 -2.12643,9.03469 -0.29919,1.33272 -4.5766,7.83727 -7.07444,9.97034 -2.49782,2.13308 -5.29816,3.1155 -6.05682,4.5002 -0.75864,1.38472 -2.23553,1.69914 -0.51704,2.91371 1.71848,1.21459 6.54663,0.99536 8.87214,-0.41397 2.32554,-1.40932 3.23863,-4.12541 4.66143,-6.43504 1.42279,-2.30962 6.30661,-6.713 7.66365,-8.68624 1.35703,-1.97324 3.41739,-7.19152 3.17122,-7.97327 -0.24617,-0.78175 5.63672,-8.59621 6.88583,-12.19093 1.24912,-3.59472 3.78522,-6.63741 5.25324,-13.85554 1.46803,-7.21811 6.41438,-10.2703 3.85709,-16.27246 -2.55731,-6.00215 -4.3246,-8.07151 -8.19789,-9.11013 -3.8733,-1.0386 -7.10665,1.33669 -12.61804,1.73163 0,0 -6.86008,3.09576 -7.21382,10.32052 z"
       id="path3688-5"
       sodipodi:nodetypes="zzzzzzzzzzszzzzsz" />
  </g>
  <g
     transform="translate(-114.06956,-209.52374)"
     inkscape:label="korpus"
     id="layer2"
     inkscape:groupmode="layer" />
  <g
     style="display:inline"
     transform="translate(-114.06956,-209.52374)"
     inkscape:label="glowa"
     id="layer7"
     inkscape:groupmode="layer" />
  <g
     transform="translate(-114.06956,-209.52374)"
     inkscape:label="noga4"
     id="layer6"
     inkscape:groupmode="layer" />
  <g
     transform="translate(-114.06956,-209.52374)"
     inkscape:label="noga2"
     id="layer4"
     inkscape:groupmode="layer" />
</svg>
