<?xml version="1.0" encoding="UTF-8" standalone="no"?>
<svg
   xmlns:dc="http://purl.org/dc/elements/1.1/"
   xmlns:cc="http://creativecommons.org/ns#"
   xmlns:rdf="http://www.w3.org/1999/02/22-rdf-syntax-ns#"
   xmlns:svg="http://www.w3.org/2000/svg"
   xmlns="http://www.w3.org/2000/svg"
   xmlns:sodipodi="http://sodipodi.sourceforge.net/DTD/sodipodi-0.dtd"
   xmlns:inkscape="http://www.inkscape.org/namespaces/inkscape"
   sodipodi:docname="glowa.svg"
   inkscape:version="1.0 (4035a4fb49, 2020-05-01)"
   id="svg8"
   version="1.1"
   viewBox="0 0 72.070121 62.43692"
   height="62.43692mm"
   width="72.070122mm"
   inkscape:export-filename="C:\Users\260862\Desktop\bartender.png"
   inkscape:export-xdpi="241.905"
   inkscape:export-ydpi="241.905">
  <defs
     id="defs2">
    <clipPath
       id="clipPath4045"
       clipPathUnits="userSpaceOnUse">
      <path
         sodipodi:nodetypes="cccccc"
         id="path4047"
         d="M 87.197134,57.598109 C 88.69643,71.309833 86.336415,84.020996 68.797741,92.79695 L 14.399527,175.72756 -18.399396,142.39532 27.465763,50.665004 Z"
         style="fill:none;stroke:#000000;stroke-width:0.264583px;stroke-linecap:butt;stroke-linejoin:miter;stroke-opacity:1" />
    </clipPath>
  </defs>
  <sodipodi:namedview
     inkscape:window-maximized="1"
     inkscape:window-y="-9"
     inkscape:window-x="-9"
     inkscape:window-height="1001"
     inkscape:window-width="1920"
     inkscape:snap-global="false"
     inkscape:object-nodes="true"
     inkscape:snap-others="true"
     showgrid="false"
     inkscape:document-rotation="0"
     inkscape:current-layer="layer8"
     inkscape:document-units="mm"
     inkscape:cy="576.85882"
     inkscape:cx="-2.3585292"
     inkscape:zoom="0.65454796"
     inkscape:pageshadow="2"
     inkscape:pageopacity="0.0"
     borderopacity="1.0"
     bordercolor="#666666"
     pagecolor="#ffffff"
     id="base"
     showguides="true"
     inkscape:guide-bbox="true" />
  <metadata
     id="metadata5">
    <rdf:RDF>
      <cc:Work
         rdf:about="">
        <dc:format>image/svg+xml</dc:format>
        <dc:type
           rdf:resource="http://purl.org/dc/dcmitype/StillImage" />
        <dc:title></dc:title>
      </cc:Work>
    </rdf:RDF>
  </metadata>
  <g
     transform="translate(-69.359193,6.0215768)"
     inkscape:label="noga2"
     id="layer7"
     inkscape:groupmode="layer" />
  <g
     transform="translate(-69.359193,6.0215768)"
     inkscape:label="noga1"
     id="layer6"
     inkscape:groupmode="layer" />
  <g
     transform="translate(-69.359193,6.0215768)"
     inkscape:label="korpus"
     id="layer8"
     inkscape:groupmode="layer" />
  <g
     transform="translate(-69.359193,6.0215768)"
     inkscape:label="reka2"
     id="layer5"
     inkscape:groupmode="layer" />
  <g
     transform="translate(-69.359193,6.0215768)"
     inkscape:label="reka1"
     id="layer4"
     inkscape:groupmode="layer" />
  <g
     transform="translate(-69.359193,6.0215768)"
     sodipodi:insensitive="true"
     inkscape:label="glowa"
     id="layer3"
     inkscape:groupmode="layer">
    <g
       inkscape:transform-center-x="3.1184577"
       transform="rotate(-3.0089396,106.89581,50.23744)"
       inkscape:transform-center-y="-25.040536"
       id="g887">
      <g
         transform="rotate(7.696278,132.75617,216.28437)"
         inkscape:transform-center-y="-21.342667"
         inkscape:transform-center-x="0.49338637"
         id="g3243">
        <path
           style="fill:#d27c5b;fill-opacity:1;stroke:none;stroke-width:0.264583px;stroke-linecap:butt;stroke-linejoin:miter;stroke-opacity:1"
           d="m 67.615849,24.774525 c -0.545559,9.355868 0.473947,12.705662 2.410275,22.520233 3.138858,8.073735 11.028029,9.879824 16.901418,11.739226 7.519114,-4.07247 12.144229,-9.50857 12.858279,-16.73118 -0.73208,-9.599587 0.345109,-13.216161 -2.639974,-22.334829 -19.416641,-8.033566 -21.04899,-5.112685 -29.529998,4.80655 z"
           id="path899-9"
           sodipodi:nodetypes="cccccc" />
        <path
           id="path901-8"
           style="fill:#9b2c00;fill-opacity:1;stroke:none;stroke-width:0.264583px;stroke-linecap:butt;stroke-linejoin:miter;stroke-opacity:1"
           d="m 99.111941,31.736932 -1.982025,11.0564 c -0.641937,0.118308 -8.463145,-2.941229 -12.476209,-2.715502 -5.476961,1.408531 -8.372515,4.317373 -11.271581,4.811514 l -5.815957,-8.560653 c 1.449137,7.251923 1.564308,8.754477 3.628457,16.157891 14.134791,12.544862 17.811878,10.713011 28.45614,0.251645 0.0822,-7.535937 0.05709,-13.447614 -0.538825,-21.001293 z m -12.07175,12.017502 c 1.015822,0.0255 3.602269,1.175845 6.218052,1.345405 0.0091,0.555789 -0.07502,1.776303 -0.541952,2.812488 -9.216393,-0.08523 -7.006666,-0.587737 -14.238269,1.599473 -1.264275,-1.852225 -0.561083,-2.549389 -0.815804,-1.997872 2.175284,-1.864153 4.520265,-3.153528 5.588405,-3.456312 z"
           sodipodi:nodetypes="cccccccccccccccc" />
        <path
           style="fill:#9b2c00;fill-opacity:1;stroke:none;stroke-width:0.264583px;stroke-linecap:butt;stroke-linejoin:miter;stroke-opacity:1"
           d="m 64.693627,20.263014 c -0.05228,0.71939 -1.338905,4.67 -2.546473,8.682453 -1.207567,4.012452 1.289945,8.680176 1.553887,9.646934 1.968902,1.480901 6.5337,-7.150824 11.969554,-13.989769 1.032725,-1.299289 5.691822,-7.655135 5.691822,-7.655135 -0.66448,2.106949 13.643143,7.16224 18.181612,10.42674 0.05635,-0.587155 3.765881,-0.587309 3.730331,-1.005721 -2.20616,-0.808482 -2.79061,-3.128144 -2.63387,-4.199904 -0.0927,-0.308941 -4.170652,-3.93035 -4.228635,-4.298562 -2.054344,-1.487025 -2.983844,-6.483883 -9.671952,-6.80497 -7.901406,-0.251563 -15.10081,2.491376 -22.046237,9.197929 l -0.14119,0.413061 z"
           id="path906-1"
           sodipodi:nodetypes="cscsscccccccc" />
      </g>
      <path
         sodipodi:nodetypes="zzzzczzcz"
         id="path889"
         d="m 85.471996,20.38065 c 11.862418,-3.898919 52.883694,-2.321199 57.091434,-5.449855 4.20774,-3.128655 -8.82424,-2.692816 -12.84031,-4.867339 -4.01606,-2.1745221 -5.68875,-4.0393163 -9.79904,-7.6915326 -4.11029,-3.6522162 -14.03042,-8.5238456 -14.03042,-8.5238456 0,0 -10.568935,2.9977646 -13.234101,6.47524348 -2.665167,3.47747902 -0.85488,5.34954152 -4.236834,10.55063272 -3.381954,5.201091 -18.020723,18.538874 -18.020723,18.538874 0,0 3.207576,-5.133259 15.069994,-9.032178 z"
         style="fill:#d0b48d;fill-opacity:1;stroke:none;stroke-width:0.264583px;stroke-linecap:butt;stroke-linejoin:miter;stroke-opacity:1" />
      <path
         sodipodi:nodetypes="ccccccccccc"
         id="path891"
         d="M 87.51774,12.249799 130.30663,9.3703644 128.15925,7.711029 87.029699,11.054102 89.99454,18.545513 88.432814,17.862257 86.871087,11.322524 83.747633,26.74458 81.112216,26.256542 86.980894,10.822283 Z"
         style="fill:#ede0cf;fill-opacity:1;stroke:none;stroke-width:0.264583px;stroke-linecap:butt;stroke-linejoin:miter;stroke-opacity:1" />
    </g>
  </g>
</svg>
