<?xml version="1.0" encoding="UTF-8" standalone="no"?>
<svg
   xmlns:dc="http://purl.org/dc/elements/1.1/"
   xmlns:cc="http://creativecommons.org/ns#"
   xmlns:rdf="http://www.w3.org/1999/02/22-rdf-syntax-ns#"
   xmlns:svg="http://www.w3.org/2000/svg"
   xmlns="http://www.w3.org/2000/svg"
   xmlns:sodipodi="http://sodipodi.sourceforge.net/DTD/sodipodi-0.dtd"
   xmlns:inkscape="http://www.inkscape.org/namespaces/inkscape"
   sodipodi:docname="korpus.svg"
   inkscape:version="1.0 (4035a4fb49, 2020-05-01)"
   id="svg8"
   version="1.1"
   viewBox="0 0 73.509917 144.84027"
   height="144.84027mm"
   width="73.509918mm"
   inkscape:export-filename="C:\Users\260862\Desktop\bartender.png"
   inkscape:export-xdpi="241.905"
   inkscape:export-ydpi="241.905">
  <defs
     id="defs2">
    <clipPath
       id="clipPath4045"
       clipPathUnits="userSpaceOnUse">
      <path
         sodipodi:nodetypes="cccccc"
         id="path4047"
         d="M 87.197134,57.598109 C 88.69643,71.309833 86.336415,84.020996 68.797741,92.79695 L 14.399527,175.72756 -18.399396,142.39532 27.465763,50.665004 Z"
         style="fill:none;stroke:#000000;stroke-width:0.264583px;stroke-linecap:butt;stroke-linejoin:miter;stroke-opacity:1" />
    </clipPath>
  </defs>
  <sodipodi:namedview
     inkscape:window-maximized="1"
     inkscape:window-y="-9"
     inkscape:window-x="-9"
     inkscape:window-height="1001"
     inkscape:window-width="1920"
     inkscape:snap-global="false"
     inkscape:object-nodes="true"
     inkscape:snap-others="true"
     showgrid="false"
     inkscape:document-rotation="0"
     inkscape:current-layer="layer5"
     inkscape:document-units="mm"
     inkscape:cy="414.9518"
     inkscape:cx="-129.61897"
     inkscape:zoom="0.65454796"
     inkscape:pageshadow="2"
     inkscape:pageopacity="0.0"
     borderopacity="1.0"
     bordercolor="#666666"
     pagecolor="#ffffff"
     id="base"
     showguides="true"
     inkscape:guide-bbox="true" />
  <metadata
     id="metadata5">
    <rdf:RDF>
      <cc:Work
         rdf:about="">
        <dc:format>image/svg+xml</dc:format>
        <dc:type
           rdf:resource="http://purl.org/dc/dcmitype/StillImage" />
        <dc:title></dc:title>
      </cc:Work>
    </rdf:RDF>
  </metadata>
  <g
     transform="translate(-71.072242,-42.772017)"
     inkscape:label="noga2"
     id="layer7"
     inkscape:groupmode="layer" />
  <g
     transform="translate(-71.072242,-42.772017)"
     inkscape:label="noga1"
     id="layer6"
     inkscape:groupmode="layer" />
  <g
     sodipodi:insensitive="true"
     transform="translate(-71.072242,-42.772017)"
     inkscape:label="korpus"
     id="layer8"
     inkscape:groupmode="layer">
    <g
       inkscape:transform-center-x="0.1851426"
       transform="rotate(-0.29816947,108.01247,157.53679)"
       inkscape:transform-center-y="-42.344781"
       id="g958">
      <path
         sodipodi:nodetypes="cccccccc"
         id="path895-3"
         d="m 89.060112,57.083597 c 3.81242,-4.050854 6.221296,4.159581 11.577318,-14.351514 l 14.71867,0.0781 c 1.69817,3.383011 -0.0493,9.157166 10.99271,13.59132 9.82258,15.490363 20.13019,33.95966 6.97037,47.065207 l -6.98282,45.0987 -38.175595,0.37798 C 74.953665,74.71246 70.875717,99.637109 89.060112,57.083597 Z"
         style="fill:#d27c5b;fill-opacity:1;stroke:none;stroke-width:0.264583px;stroke-linecap:butt;stroke-linejoin:miter;stroke-opacity:1" />
      <rect
         transform="rotate(-28.20864)"
         y="124.15797"
         x="47.923203"
         height="1.1999606"
         width="18.666054"
         id="rect1426-4-1-3-4"
         style="opacity:0.99;fill:#b5a17a;fill-opacity:1;stroke:none;stroke-width:0.264583;stroke-dasharray:0.264583, 0.529167" />
      <path
         style="fill:#b5a17a;fill-opacity:1;stroke:none;stroke-width:0.264583px;stroke-linecap:butt;stroke-linejoin:miter;stroke-opacity:1"
         d="m 90.702805,54.041957 c 3.4011,6.671922 4.87171,13.52819 9.24454,16.448704 0.489585,11.200851 4.103475,18.889434 8.094485,26.58886 4.13944,-6.925395 7.15228,-16.510313 8.28443,-27.445448 2.96319,-1.951059 7.34747,-9.855915 7.56233,-16.20492 l 14.79392,7.211782 c -4.23214,12.897296 3.22223,22.857048 -9.42009,90.035775 l -41.482225,0.56566 C 74.443165,92.495486 85.182555,87.002186 77.161365,59.173029 Z"
         id="path1422-5"
         sodipodi:nodetypes="cccccccccc" />
      <path
         style="fill:#000000;stroke:none;stroke-width:0.264583px;stroke-linecap:butt;stroke-linejoin:miter;stroke-opacity:1"
         d="m 87.853265,154.03978 c 13.885195,1.16543 25.673875,1.02316 41.549915,-0.57162 l 0.30036,-3.29988 -42.311405,0.0306 z"
         id="path1652-5"
         sodipodi:nodetypes="ccccc" />
      <rect
         y="151.06644"
         x="103.80711"
         height="2.6726952"
         width="9.3544331"
         id="rect893-2"
         style="opacity:0.99;fill:#aa8800;fill-opacity:1;stroke:none;stroke-width:0.264583;stroke-miterlimit:4;stroke-dasharray:0.264583, 0.529167;stroke-dashoffset:0;stroke-opacity:1" />
      <rect
         style="opacity:0.99;fill:#b5a17a;fill-opacity:1;stroke:none;stroke-width:0.264583;stroke-dasharray:0.264583, 0.529167"
         id="rect1426-4-1-7"
         width="18.666054"
         height="1.1999606"
         x="125.20113"
         y="25.81741"
         transform="rotate(26.612994)" />
      <rect
         style="opacity:0.99;fill:#b5a17a;fill-opacity:1;stroke:none;stroke-width:0.264583;stroke-dasharray:0.264583, 0.529167"
         id="rect1426-6"
         width="18.666054"
         height="1.1999606"
         x="111.17232"
         y="47.914333"
         transform="rotate(11.845872)" />
      <rect
         transform="rotate(-13.482039)"
         y="94.701584"
         x="79.269913"
         height="1.1999606"
         width="18.666054"
         id="rect1426-7-9"
         style="opacity:0.99;fill:#b5a17a;fill-opacity:1;stroke:none;stroke-width:0.264583;stroke-dasharray:0.264583, 0.529167" />
      <rect
         transform="rotate(17.746836)"
         y="40.041523"
         x="116.79109"
         height="1.1999606"
         width="18.666054"
         id="rect1426-4-6"
         style="opacity:0.99;fill:#b5a17a;fill-opacity:1;stroke:none;stroke-width:0.264583;stroke-dasharray:0.264583, 0.529167" />
      <rect
         style="opacity:0.99;fill:#b5a17a;fill-opacity:1;stroke:none;stroke-width:0.264583;stroke-dasharray:0.264583, 0.529167"
         id="rect1426-7-7-9"
         width="18.666054"
         height="1.1999606"
         x="70.509361"
         y="106.46539"
         transform="rotate(-18.035543)" />
      <g
         transform="matrix(1.3162758,0,0,0.83343021,-198.17811,1.452686)"
         id="g3248">
        <path
           style="fill:#8c5737;fill-opacity:1;stroke:none;stroke-width:0.264583px;stroke-linecap:butt;stroke-linejoin:miter;stroke-opacity:1"
           d="m 215.27388,64.906307 c 1.91845,-0.08555 16.54671,38.120373 16.54671,38.120373 3.07968,-5.831306 15.11513,-38.997617 17.02991,-39.77407 1.91479,-0.776452 8.66962,2.086286 8.66962,2.086286 0,0 3.18054,85.053184 -0.45527,88.704054 -3.63581,3.65087 -2.57932,2.53731 -0.15268,16.36668 2.42663,13.82937 3.38177,49.64328 3.38177,49.64328 -1.92647,-0.56886 -4.98013,-3.37283 -6.38251,-3.70779 -1.40239,-0.33496 -2.63658,-28.65105 -3.89032,-28.71315 -1.25374,-0.0621 1.04419,29.02951 0.44172,26.50566 -0.52526,-2.2004 -7.61763,2.53894 -9.70043,3.13943 -8.3312,2.40195 -32.94501,8.19185 -35.05608,4.92407 -1.05554,-1.63389 -0.0413,-14.77093 1.11606,-27.82524 1.10422,-12.45424 1.935,-26.12682 2.3752,-28.56049 0.85313,-4.71661 4.58277,-4.20335 1.10778,-11.43223 -3.47498,-7.22887 -5.36177,-85.252025 -5.36177,-85.252025 0,0 8.41184,-4.139289 10.33029,-4.224838 z"
           id="path1654"
           sodipodi:nodetypes="zczczzcssssssszcz" />
        <path
           style="fill:#d6bd71;fill-opacity:1;stroke:none;stroke-width:0.264583px;stroke-linecap:butt;stroke-linejoin:miter;stroke-opacity:1"
           d="m 209.89579,158.00109 0.39397,4.14666 45.33498,0.19162 0.87526,-5.70843 z"
           id="path1656"
           sodipodi:nodetypes="ccccc" />
        <path
           sodipodi:nodetypes="ccccccccc"
           style="fill:#d6bd71;fill-opacity:1;stroke:none;stroke-width:0.264583px;stroke-linecap:butt;stroke-linejoin:miter;stroke-opacity:1"
           d="m 245.60272,161.7084 -1.76061,16.12091 2.84893,-1.02184 0.64725,-14.17003 5.34691,34.63145 0.70385,1.21053 -3.65345,-36.91451 -3.59889,0.40883 z"
           id="path1681" />
      </g>
    </g>
  </g>
  <g
     transform="translate(-71.072242,-42.772017)"
     inkscape:label="reka2"
     id="layer5"
     inkscape:groupmode="layer" />
  <g
     transform="translate(-71.072242,-42.772017)"
     inkscape:label="reka1"
     id="layer4"
     inkscape:groupmode="layer" />
  <g
     transform="translate(-71.072242,-42.772017)"
     inkscape:label="glowa"
     id="layer3"
     inkscape:groupmode="layer" />
</svg>
