<?xml version="1.0" encoding="UTF-8" standalone="no"?>
<svg
   xmlns:dc="http://purl.org/dc/elements/1.1/"
   xmlns:cc="http://creativecommons.org/ns#"
   xmlns:rdf="http://www.w3.org/1999/02/22-rdf-syntax-ns#"
   xmlns:svg="http://www.w3.org/2000/svg"
   xmlns="http://www.w3.org/2000/svg"
   xmlns:sodipodi="http://sodipodi.sourceforge.net/DTD/sodipodi-0.dtd"
   xmlns:inkscape="http://www.inkscape.org/namespaces/inkscape"
   sodipodi:docname="reka1.svg"
   inkscape:version="1.0 (4035a4fb49, 2020-05-01)"
   id="svg8"
   version="1.1"
   viewBox="0 0 115.89757 139.71089"
   height="139.71089mm"
   width="115.89757mm"
   inkscape:export-filename="C:\Users\260862\Desktop\bartender.png"
   inkscape:export-xdpi="241.905"
   inkscape:export-ydpi="241.905">
  <defs
     id="defs2">
    <clipPath
       id="clipPath4045"
       clipPathUnits="userSpaceOnUse">
      <path
         sodipodi:nodetypes="cccccc"
         id="path4047"
         d="M 87.197134,57.598109 C 88.69643,71.309833 86.336415,84.020996 68.797741,92.79695 L 14.399527,175.72756 -18.399396,142.39532 27.465763,50.665004 Z"
         style="fill:none;stroke:#000000;stroke-width:0.264583px;stroke-linecap:butt;stroke-linejoin:miter;stroke-opacity:1" />
    </clipPath>
  </defs>
  <sodipodi:namedview
     inkscape:window-maximized="1"
     inkscape:window-y="-8"
     inkscape:window-x="1352"
     inkscape:window-height="1017"
     inkscape:window-width="1920"
     inkscape:snap-global="false"
     inkscape:object-nodes="true"
     inkscape:snap-others="true"
     showgrid="false"
     inkscape:document-rotation="0"
     inkscape:current-layer="layer11"
     inkscape:document-units="mm"
     inkscape:cy="285.95886"
     inkscape:cx="475.03547"
     inkscape:zoom="0.49611004"
     inkscape:pageshadow="2"
     inkscape:pageopacity="0.0"
     borderopacity="1.0"
     bordercolor="#666666"
     pagecolor="#ffffff"
     id="base"
     showguides="true"
     inkscape:guide-bbox="true" />
  <metadata
     id="metadata5">
    <rdf:RDF>
      <cc:Work
         rdf:about="">
        <dc:format>image/svg+xml</dc:format>
        <dc:type
           rdf:resource="http://purl.org/dc/dcmitype/StillImage" />
        <dc:title></dc:title>
      </cc:Work>
    </rdf:RDF>
  </metadata>
  <g
     transform="translate(18.847898,-57.622693)"
     inkscape:label="right_leg"
     id="layer10"
     inkscape:groupmode="layer"
     style="display:inline" />
  <g
     transform="translate(18.847898,-57.622693)"
     style="display:inline"
     inkscape:label="left_leg"
     id="layer9"
     inkscape:groupmode="layer" />
  <g
     transform="translate(18.847898,-57.622693)"
     style="display:inline"
     inkscape:label="right_arm"
     id="layer8"
     inkscape:groupmode="layer" />
  <g
     transform="translate(18.847898,-57.622693)"
     style="display:inline"
     inkscape:label="left_arm"
     id="layer7"
     inkscape:groupmode="layer">
    <path
       sodipodi:nodetypes="cccccccccc"
       id="path895-3-2-1-0"
       d="m 55.582876,115.06752 -21.527435,30.0854 -3.646026,4.19744 -6.084977,3.91503 c 1.998805,6.2082 5.383172,6.96386 8.393996,7.07097 l 5.60989,-7.18399 37.856399,-28.26154 C 93.11144,96.00571 84.548499,87.911805 91.368445,64.571077 78.626534,61.271058 73.813884,54.371065 63.60551,84.373256 Z"
       style="fill:#ffb380;stroke:none;stroke-width:0.264583px;stroke-linecap:butt;stroke-linejoin:miter;stroke-opacity:1" />
    <path
       style="fill:#501616;stroke:none;stroke-width:0.264583px;stroke-linecap:butt;stroke-linejoin:miter;stroke-opacity:1"
       d="m 60.340891,79.805711 c 0.79402,11.979861 -0.855157,18.858951 -3.368616,28.437459 l -1.33871,1.99103 c 16.3611,10.89992 21.89023,5.5002 28.533624,3.06966 l 0.02479,-2.85799 C 89.36807,95.999366 105.42095,73.864816 91.512523,62.576906 73.349113,48.169098 57.871721,68.673601 60.340891,79.805711 Z"
       id="path1422-5-0-1-2"
       sodipodi:nodetypes="ccccccc" />
    <path
       style="fill:#784421;stroke:none;stroke-width:0.264583px;stroke-linecap:butt;stroke-linejoin:miter;stroke-opacity:1"
       d="m 78.228379,197.33359 -83.9072492,-65.71162 5.65666803,-4.7139 79.94758117,67.88003 c 0.33528,1.28326 -0.523894,2.01643 -1.697,2.54549 z"
       id="path1775"
       sodipodi:nodetypes="ccccc" />
    <path
       style="fill:#ffb380;stroke:none;stroke-width:0.264583px;stroke-linecap:butt;stroke-linejoin:miter;stroke-opacity:1"
       d="m 33.592186,148.34791 c -9.172221,1.30564 -8.638958,2.81557 -8.638958,2.81557 0,0 -3.739456,-1.446 -0.08668,-0.037 3.652789,1.40893 8.999327,-0.6618 8.999327,-0.6618 z"
       id="path1660-9-5-5-3" />
    <path
       style="fill:#808080;stroke:none;stroke-width:0.264583px;stroke-linecap:butt;stroke-linejoin:miter;stroke-opacity:1"
       d="m 5.4282964,123.49721 c 2.1490915,1.55198 5.3166546,3.9736 7.5376626,5.73926 L -0.06375049,151.91229 C -12.012052,150.49912 -14.658766,146.97689 -17.057564,141.8746 -6.6363815,134.80848 -4.7606185,130.93008 5.4282964,123.49721 Z"
       id="path1780"
       sodipodi:nodetypes="ccccc" />
    <path
       sodipodi:nodetypes="ccccc"
       id="path1780-2"
       d="m -15.718241,140.97373 c 0.07498,2.87187 10.9733225,9.63027 16.58833035,9.69893 l -1.33925934,1.55759 C -12.417472,150.81708 -15.064186,147.29485 -17.462984,142.19256 c 10.421183,-7.06612 -8.444172,6.21404 1.744743,-1.21883 z"
       style="display:inline;fill:#999999;stroke:none;stroke-width:0.264583px;stroke-linecap:butt;stroke-linejoin:miter;stroke-opacity:1" />
  </g>
  <g
     transform="translate(18.847898,-57.622693)"
     style="display:inline"
     id="layer1"
     inkscape:groupmode="layer"
     inkscape:label="torso">
    <rect
       style="opacity:0.99;fill:#e6e6e6;stroke:none;stroke-width:0.264583;stroke-dasharray:0.264583, 0.529167"
       id="rect1426-4-1-7-1"
       width="18.666054"
       height="1.1999606"
       x="609.90704"
       y="-202.42381"
       transform="rotate(26.612994)" />
  </g>
  <g
     transform="translate(18.847898,-57.622693)"
     style="display:inline"
     inkscape:label="head"
     id="layer11"
     inkscape:groupmode="layer" />
</svg>
