<?xml version="1.0" encoding="UTF-8" standalone="no"?>
<svg
   xmlns:dc="http://purl.org/dc/elements/1.1/"
   xmlns:cc="http://creativecommons.org/ns#"
   xmlns:rdf="http://www.w3.org/1999/02/22-rdf-syntax-ns#"
   xmlns:svg="http://www.w3.org/2000/svg"
   xmlns="http://www.w3.org/2000/svg"
   xmlns:sodipodi="http://sodipodi.sourceforge.net/DTD/sodipodi-0.dtd"
   xmlns:inkscape="http://www.inkscape.org/namespaces/inkscape"
   inkscape:export-ydpi="241.905"
   inkscape:export-xdpi="241.905"
   inkscape:export-filename="C:\Users\260862\Desktop\bartender.png"
   width="32.543201mm"
   height="46.575459mm"
   viewBox="0 0 32.543201 46.575459"
   version="1.1"
   id="svg8"
   inkscape:version="1.0 (4035a4fb49, 2020-05-01)"
   sodipodi:docname="glowa.svg">
  <defs
     id="defs2">
    <clipPath
       clipPathUnits="userSpaceOnUse"
       id="clipPath4045">
      <path
         style="fill:none;stroke:#000000;stroke-width:0.264583px;stroke-linecap:butt;stroke-linejoin:miter;stroke-opacity:1"
         d="M 87.197134,57.598109 C 88.69643,71.309833 86.336415,84.020996 68.797741,92.79695 L 14.399527,175.72756 -18.399396,142.39532 27.465763,50.665004 Z"
         id="path4047"
         sodipodi:nodetypes="cccccc" />
    </clipPath>
  </defs>
  <sodipodi:namedview
     inkscape:guide-bbox="true"
     showguides="false"
     id="base"
     pagecolor="#ffffff"
     bordercolor="#666666"
     borderopacity="1.0"
     inkscape:pageopacity="0.0"
     inkscape:pageshadow="2"
     inkscape:zoom="0.49611004"
     inkscape:cx="47.048787"
     inkscape:cy="376.51082"
     inkscape:document-units="mm"
     inkscape:current-layer="layer1"
     inkscape:document-rotation="0"
     showgrid="false"
     inkscape:snap-others="true"
     inkscape:object-nodes="true"
     inkscape:snap-global="false"
     inkscape:window-width="1920"
     inkscape:window-height="1017"
     inkscape:window-x="1352"
     inkscape:window-y="-8"
     inkscape:window-maximized="1" />
  <metadata
     id="metadata5">
    <rdf:RDF>
      <cc:Work
         rdf:about="">
        <dc:format>image/svg+xml</dc:format>
        <dc:type
           rdf:resource="http://purl.org/dc/dcmitype/StillImage" />
        <dc:title></dc:title>
      </cc:Work>
    </rdf:RDF>
  </metadata>
  <g
     transform="translate(-92.929266,-7.7319403)"
     style="display:inline"
     inkscape:groupmode="layer"
     id="layer10"
     inkscape:label="right_leg" />
  <g
     transform="translate(-92.929266,-7.7319403)"
     inkscape:groupmode="layer"
     id="layer9"
     inkscape:label="left_leg"
     style="display:inline" />
  <g
     transform="translate(-92.929266,-7.7319403)"
     inkscape:groupmode="layer"
     id="layer8"
     inkscape:label="right_arm"
     style="display:inline" />
  <g
     transform="translate(-92.929266,-7.7319403)"
     inkscape:groupmode="layer"
     id="layer7"
     inkscape:label="left_arm"
     style="display:inline" />
  <g
     transform="translate(-92.929266,-7.7319403)"
     inkscape:label="torso"
     inkscape:groupmode="layer"
     id="layer1"
     style="display:inline">
    <rect
       transform="rotate(26.612994)"
       y="-202.42381"
       x="609.90704"
       height="1.1999606"
       width="18.666054"
       id="rect1426-4-1-7-1"
       style="opacity:0.99;fill:#e6e6e6;stroke:none;stroke-width:0.264583;stroke-dasharray:0.264583, 0.529167" />
  </g>
  <g
     transform="translate(-92.929266,-7.7319403)"
     inkscape:groupmode="layer"
     id="layer11"
     inkscape:label="head"
     style="display:inline">
    <path
       sodipodi:nodetypes="cccccc"
       id="path899-9"
       d="m 95.699617,12.954898 c -4.108883,3.680089 -2.528418,17.063496 -2.186606,27.061412 1.807268,8.471801 9.306059,11.516319 14.806489,14.291089 8.07363,-2.817561 13.50858,-7.444023 15.36851,-14.459478 0.81256,-9.59311 4.42592,-21.140125 -1.77633,-27.601927 -7.1343,-5.5672578 -17.93088,-6.7030167 -26.212063,0.708904 z"
       style="fill:#ffb380;stroke:none;stroke-width:0.264583px;stroke-linecap:butt;stroke-linejoin:miter;stroke-opacity:1" />
    <path
       style="fill:#000000;stroke:none;stroke-width:0.238828px;stroke-linecap:butt;stroke-linejoin:miter;stroke-opacity:1"
       d="m 111.1838,22.495672 c -0.92648,1.543896 -1.08976,4.486541 0.71182,6.893846 2.4502,1.02775 3.81867,0.924712 6.26889,0.873455 0.7005,-0.350955 4.21585,-5.035432 3.15034,-6.278204 -1.07035,-1.248393 -8.92631,-2.862376 -10.13105,-1.489097 z"
       id="path3334"
       sodipodi:nodetypes="cccsc" />
    <path
       style="fill:#000000;stroke:none;stroke-width:0.264583px;stroke-linecap:butt;stroke-linejoin:miter;stroke-opacity:1"
       d="m 93.452877,18.47845 c 6.151442,1.85506 12.377483,4.415015 18.454883,5.562391 4.47708,0.345359 9.04844,1.344646 13.52552,1.02429 l 0.002,0.17209 c -0.95354,0.100798 -1.20568,0.120045 -4.02146,0.124196 l -9.36481,-1.03775 C 105.73564,23.315894 99.515129,20.805194 93.429268,18.784854 Z"
       id="path3338"
       sodipodi:nodetypes="cccccccc" />
    <path
       id="path3340"
       style="fill:#000000;stroke:none;stroke-width:0.328171px;stroke-linecap:butt;stroke-linejoin:miter;stroke-opacity:1"
       d="m 109.6204,38.356395 c -0.26256,-0.0059 -1.23808,-0.0051 -1.52193,0.0038 -3.86826,0.0256 -6.27652,0.795116 -8.0782,2.603696 -1.788421,2.16551 -1.676438,5.340551 -0.39339,8.121588 1.87617,2.783403 4.80086,3.746743 8.22365,4.370009 4.50278,-0.420814 6.35088,-1.815284 9.01424,-3.15363 1.09712,-2.596089 1.61445,-5.607776 0.70268,-8.52619 -1.72947,-2.468372 -5.1363,-3.008466 -7.94705,-3.419308 z m 5.21525,5.254168 c 0.47077,2.167334 0.8779,4.325597 -0.16556,6.277124 -3.62304,0.648813 -4.58746,-1.089478 -6.12586,-2.312402 -1.11896,1.448907 -3.26863,1.915988 -6.37431,2.043549 -0.82792,-2.699288 -1.14232,-3.787892 0.16562,-6.173454 5.19294,-2.14998 9.02518,-0.898689 12.50005,0.165183 z"
       sodipodi:nodetypes="ccccccccccccccsc" />
  </g>
</svg>
