<?xml version="1.0" encoding="UTF-8" standalone="no"?>
<svg
   xmlns:dc="http://purl.org/dc/elements/1.1/"
   xmlns:cc="http://creativecommons.org/ns#"
   xmlns:rdf="http://www.w3.org/1999/02/22-rdf-syntax-ns#"
   xmlns:svg="http://www.w3.org/2000/svg"
   xmlns="http://www.w3.org/2000/svg"
   xmlns:sodipodi="http://sodipodi.sourceforge.net/DTD/sodipodi-0.dtd"
   xmlns:inkscape="http://www.inkscape.org/namespaces/inkscape"
   inkscape:export-ydpi="241.905"
   inkscape:export-xdpi="241.905"
   inkscape:export-filename="C:\Users\260862\Desktop\bartender.png"
   width="75.231392mm"
   height="113.56129mm"
   viewBox="0 0 75.231392 113.56129"
   version="1.1"
   id="svg8"
   inkscape:version="1.0 (4035a4fb49, 2020-05-01)"
   sodipodi:docname="korpus.svg">
  <defs
     id="defs2">
    <clipPath
       clipPathUnits="userSpaceOnUse"
       id="clipPath4045">
      <path
         style="fill:none;stroke:#000000;stroke-width:0.264583px;stroke-linecap:butt;stroke-linejoin:miter;stroke-opacity:1"
         d="M 87.197134,57.598109 C 88.69643,71.309833 86.336415,84.020996 68.797741,92.79695 L 14.399527,175.72756 -18.399396,142.39532 27.465763,50.665004 Z"
         id="path4047"
         sodipodi:nodetypes="cccccc" />
    </clipPath>
  </defs>
  <sodipodi:namedview
     inkscape:guide-bbox="true"
     showguides="false"
     id="base"
     pagecolor="#ffffff"
     bordercolor="#666666"
     borderopacity="1.0"
     inkscape:pageopacity="0.0"
     inkscape:pageshadow="2"
     inkscape:zoom="0.49611004"
     inkscape:cx="-219.96366"
     inkscape:cy="376.43645"
     inkscape:document-units="mm"
     inkscape:current-layer="layer1"
     inkscape:document-rotation="0"
     showgrid="false"
     inkscape:snap-others="true"
     inkscape:object-nodes="true"
     inkscape:snap-global="false"
     inkscape:window-width="1920"
     inkscape:window-height="1017"
     inkscape:window-x="1352"
     inkscape:window-y="-8"
     inkscape:window-maximized="1" />
  <metadata
     id="metadata5">
    <rdf:RDF>
      <cc:Work
         rdf:about="">
        <dc:format>image/svg+xml</dc:format>
        <dc:type
           rdf:resource="http://purl.org/dc/dcmitype/StillImage" />
        <dc:title></dc:title>
      </cc:Work>
    </rdf:RDF>
  </metadata>
  <g
     transform="translate(-70.647044,-42.684944)"
     style="display:inline"
     inkscape:groupmode="layer"
     id="layer10"
     inkscape:label="right_leg" />
  <g
     transform="translate(-70.647044,-42.684944)"
     inkscape:groupmode="layer"
     id="layer9"
     inkscape:label="left_leg"
     style="display:inline" />
  <g
     transform="translate(-70.647044,-42.684944)"
     inkscape:groupmode="layer"
     id="layer8"
     inkscape:label="right_arm"
     style="display:inline" />
  <g
     transform="translate(-70.647044,-42.684944)"
     inkscape:groupmode="layer"
     id="layer7"
     inkscape:label="left_arm"
     style="display:inline" />
  <g
     transform="translate(-70.647044,-42.684944)"
     inkscape:label="torso"
     inkscape:groupmode="layer"
     id="layer1"
     style="display:inline">
    <path
       sodipodi:nodetypes="cccccccc"
       id="path895-3"
       d="m 96.135024,51.570412 c 3.81242,-4.050854 2.70741,-4.039488 4.549546,-8.885468 l 14.71867,0.0781 c 1.69817,3.383011 -0.43974,7.205007 10.60228,11.639161 24.0676,19.833113 17.18312,32.073185 17.90246,34.571388 l -17.52448,59.544677 -38.175596,0.37798 c -13.2071,-74.230929 -32.51189,-65.704415 7.92712,-97.325838 z"
       style="fill:#ffb380;stroke:none;stroke-width:0.264583px;stroke-linecap:butt;stroke-linejoin:miter;stroke-opacity:1" />
    <rect
       transform="rotate(26.612994)"
       y="-202.42381"
       x="609.90704"
       height="1.1999606"
       width="18.666054"
       id="rect1426-4-1-7-1"
       style="opacity:0.99;fill:#e6e6e6;stroke:none;stroke-width:0.264583;stroke-dasharray:0.264583, 0.529167" />
    <path
       style="fill:#e6e6e6;stroke:none;stroke-width:0.264583px;stroke-linecap:butt;stroke-linejoin:miter;stroke-opacity:1"
       d="m 90.883808,147.8276 34.694232,0.37711 14.14167,-88.621134 -18.47845,-7.730781 -2.45123,-1.744141 c -1.33772,14.130145 0.90661,27.66088 -3.58255,41.340819 -1.72579,2.074112 -3.29276,4.33678 -7.35367,6.410892 -3.7984,-2.646892 -6.44604,-5.523933 -7.73078,-8.673558 C 96.158657,77.119248 96.259425,65.4288 97.860364,53.172685 L 98.237476,49.213016 77.87347,69.388468 Z"
       id="path3368"
       sodipodi:nodetypes="cccccccccccc" />
    <path
       style="fill:#803300;stroke:none;stroke-width:0.264583px;stroke-linecap:butt;stroke-linejoin:miter;stroke-opacity:1"
       d="m 88.432583,149.14749 17.535677,-0.37711 C 99.750921,130.12815 95.129363,105.63513 93.523587,93.523586 91.964019,78.604779 95.938582,65.67097 95.03203,52.607018 c -7.599548,2.296857 -24.348282,1.527567 -23.003785,8.296447 1.161264,5.640713 0.242488,16.502386 -1.038048,24.715331 -2.742982,24.176504 11.685118,43.653334 17.442383,63.528694 z"
       id="path3349"
       sodipodi:nodetypes="cccccccc" />
    <path
       sodipodi:nodetypes="ccccccc"
       id="path3349-3"
       d="m 128.09289,148.58182 -17.53568,-0.37711 c 6.21734,-18.64223 11.02745,-43.3238 12.63323,-55.435344 1.55956,-14.918808 -2.60355,-27.664061 -1.697,-40.728013 7.59955,2.296857 24.34829,1.527567 23.00379,8.296447 -1.16127,5.640713 -0.24249,16.502386 1.03805,24.715332 2.74298,24.176498 -11.68512,43.653338 -17.44239,63.528688 z"
       style="display:inline;fill:#803300;stroke:none;stroke-width:0.264583px;stroke-linecap:butt;stroke-linejoin:miter;stroke-opacity:1" />
    <path
       style="fill:#000000;stroke:none;stroke-width:0.265741px;stroke-linecap:butt;stroke-linejoin:miter;stroke-opacity:1"
       d="m 85.926135,143.11371 c 0.596509,2.60967 1.360138,8.01392 0.951049,11.12479 10.946262,1.41463 20.929466,3.08365 44.780396,1.0895 -0.96065,-4.23112 -1.07696,-10.63489 -0.86155,-14.78936 -14.71104,1.59514 -29.6561,2.48821 -44.869895,2.57507 z"
       id="path3370"
       sodipodi:nodetypes="ccccc" />
    <path
       style="fill:#241c1c;stroke:none;stroke-width:0.269096px;stroke-linecap:butt;stroke-linejoin:miter;stroke-opacity:1"
       d="m 98.26086,49.219992 8.68354,28.023935 0.93893,-0.575821 -9.369878,-28.338655 z"
       id="path3408"
       inkscape:transform-center-x="-4.5258539"
       inkscape:transform-center-y="13.754966"
       sodipodi:nodetypes="ccccc" />
    <path
       id="path3408-1"
       d="m 117.99892,49.551395 -8.86268,28.265249 -0.90604,-0.578427 9.26873,-28.378808 z"
       style="display:inline;fill:#241c1c;stroke:none;stroke-width:0.264583px;stroke-linecap:butt;stroke-linejoin:miter;stroke-opacity:1"
       inkscape:transform-center-x="4.4815803"
       inkscape:transform-center-y="13.739655" />
    <path
       style="fill:#808080;stroke:none;stroke-width:0.3368px;stroke-linecap:butt;stroke-linejoin:miter;stroke-opacity:1"
       d="m 105.83994,75.963782 c 1.5092,-1.457506 4.68965,-0.751686 4.99435,0.658741 0.13469,1.001167 -1.35954,2.693337 -2.89078,2.474377 -1.39996,-0.304561 -3.08003,-2.225144 -2.10357,-3.133118 z"
       id="path3427"
       sodipodi:nodetypes="cccc" />
  </g>
  <g
     transform="translate(-70.647044,-42.684944)"
     inkscape:groupmode="layer"
     id="layer11"
     inkscape:label="head"
     style="display:inline" />
</svg>
