<?xml version="1.0" encoding="UTF-8" standalone="no"?>
<svg
   xmlns:dc="http://purl.org/dc/elements/1.1/"
   xmlns:cc="http://creativecommons.org/ns#"
   xmlns:rdf="http://www.w3.org/1999/02/22-rdf-syntax-ns#"
   xmlns:svg="http://www.w3.org/2000/svg"
   xmlns="http://www.w3.org/2000/svg"
   xmlns:sodipodi="http://sodipodi.sourceforge.net/DTD/sodipodi-0.dtd"
   xmlns:inkscape="http://www.inkscape.org/namespaces/inkscape"
   inkscape:export-ydpi="241.905"
   inkscape:export-xdpi="241.905"
   inkscape:export-filename="C:\Users\260862\Desktop\bartender.png"
   width="31.338955mm"
   height="52.89632mm"
   viewBox="0 0 31.338955 52.89632"
   version="1.1"
   id="svg8"
   inkscape:version="1.0 (4035a4fb49, 2020-05-01)"
   sodipodi:docname="head.svg">
  <defs
     id="defs2">
    <clipPath
       clipPathUnits="userSpaceOnUse"
       id="clipPath4045">
      <path
         style="fill:none;stroke:#000000;stroke-width:0.264583px;stroke-linecap:butt;stroke-linejoin:miter;stroke-opacity:1"
         d="M 87.197134,57.598109 C 88.69643,71.309833 86.336415,84.020996 68.797741,92.79695 L 14.399527,175.72756 -18.399396,142.39532 27.465763,50.665004 Z"
         id="path4047"
         sodipodi:nodetypes="cccccc" />
    </clipPath>
  </defs>
  <sodipodi:namedview
     inkscape:guide-bbox="true"
     showguides="true"
     id="base"
     pagecolor="#ffffff"
     bordercolor="#666666"
     borderopacity="1.0"
     inkscape:pageopacity="0.0"
     inkscape:pageshadow="2"
     inkscape:zoom="0.41706061"
     inkscape:cx="23.509186"
     inkscape:cy="122.36835"
     inkscape:document-units="mm"
     inkscape:current-layer="layer8"
     inkscape:document-rotation="0"
     showgrid="false"
     inkscape:snap-others="true"
     inkscape:object-nodes="true"
     inkscape:snap-global="false"
     inkscape:window-width="1920"
     inkscape:window-height="1001"
     inkscape:window-x="-9"
     inkscape:window-y="-9"
     inkscape:window-maximized="1" />
  <metadata
     id="metadata5">
    <rdf:RDF>
      <cc:Work
         rdf:about="">
        <dc:format>image/svg+xml</dc:format>
        <dc:type
           rdf:resource="http://purl.org/dc/dcmitype/StillImage" />
        <dc:title></dc:title>
      </cc:Work>
    </rdf:RDF>
  </metadata>
  <g
     transform="translate(-102.56813,-79.420276)"
     inkscape:label="left_leg"
     id="layer4"
     inkscape:groupmode="layer" />
  <g
     transform="translate(-102.56813,-79.420276)"
     inkscape:label="right_leg"
     id="layer5"
     inkscape:groupmode="layer" />
  <g
     transform="translate(-102.56813,-79.420276)"
     inkscape:label="head"
     id="layer3"
     inkscape:groupmode="layer">
    <g
       transform="rotate(-1.4721437,3076.6517,-281.92936)"
       inkscape:transform-center-y="-20.24443"
       inkscape:transform-center-x="0.4736436"
       id="g899">
      <path
         transform="matrix(1.112289,0.1434951,-0.15382403,1.0618321,19.929055,-22.417268)"
         sodipodi:nodetypes="cccccc"
         id="path899-9"
         d="m 71.365861,22.672343 c -0.545559,9.355868 2.104678,17.424543 4.094505,27.082577 3.138858,8.073735 6.905497,6.506874 12.778886,8.366276 C 95.758366,54.048726 97.531919,50.53208 98.245973,43.30947 97.513889,33.709883 99.664662,29.119776 96.679581,20.001108 77.26294,11.967542 81.455845,15.820437 71.365861,22.672343 Z"
         style="fill:#f7ac79;fill-opacity:1;stroke:none;stroke-width:0.264583px;stroke-linecap:butt;stroke-linejoin:miter;stroke-opacity:1" />
      <path
         transform="matrix(1.112289,0.1434951,-0.15382403,1.0618321,19.929055,-22.417268)"
         sodipodi:nodetypes="cccccccc"
         d="m 98.412188,47.057035 -1.779464,-0.156452 c -2.024557,3.167189 -5.174399,5.554361 -9.509149,5.773167 -5.904059,1.572637 -7.055179,-0.516815 -9.399051,-4.265197 l -2.653881,1.01026 0.20208,0.518691 c 1.22935,4.831522 6.710834,9.551191 12.979591,12.151552 5.580982,-4.407167 10.399042,-10.171515 10.159874,-15.032021 z"
         style="fill:#432207;fill-opacity:1;stroke:none;stroke-width:0.295943px;stroke-linecap:butt;stroke-linejoin:miter;stroke-opacity:1"
         id="path901-8" />
      <path
         transform="matrix(1.112289,0.1434951,-0.15382403,1.0618321,19.929055,-22.417268)"
         sodipodi:nodetypes="cscsscccccc"
         id="path906-1"
         d="m 70.097293,20.183962 c -0.245599,1.387251 -0.858216,-0.402454 -0.0411,4.119865 0.830651,4.59722 1.025282,8.01878 1.317258,9.09696 2.446946,-3.795624 4.630697,-2.766305 10.766762,-12.451 0.986835,-1.557545 6.788916,-0.674388 6.788916,-0.674388 1.850246,0.905944 6.742296,2.481298 8.730987,2.857205 -0.459176,-3.698513 -0.208343,-5.929698 -0.769449,-8.014095 -2.258424,-1.662258 -1.685072,-1.695146 -6.207289,-2.300344 -2.368668,-0.01396 -11.372069,0.587187 -11.372069,0.587187 l -8.357057,3.208265 z"
         style="fill:#412107;fill-opacity:1;stroke:none;stroke-width:0.292655px;stroke-linecap:butt;stroke-linejoin:miter;stroke-opacity:1" />
      <path
         style="fill:#432207;fill-opacity:1;stroke:none;stroke-width:0.264583px;stroke-linecap:butt;stroke-linejoin:miter;stroke-opacity:1"
         d="m 97.792333,40.933717 10.653987,-3.476562 13.34551,4.710181 -13.34551,-7.401714 z"
         id="path884"
         sodipodi:nodetypes="ccccc" />
    </g>
  </g>
  <g
     transform="translate(-102.56813,-79.420276)"
     inkscape:label="torso"
     id="layer8"
     inkscape:groupmode="layer" />
  <g
     transform="translate(-102.56813,-79.420276)"
     inkscape:label="left_arm"
     id="layer7"
     inkscape:groupmode="layer" />
  <g
     transform="translate(-102.56813,-79.420276)"
     inkscape:label="right_arm"
     id="layer6"
     inkscape:groupmode="layer" />
</svg>
