<?xml version="1.0" encoding="UTF-8" standalone="no"?>
<svg
   xmlns:dc="http://purl.org/dc/elements/1.1/"
   xmlns:cc="http://creativecommons.org/ns#"
   xmlns:rdf="http://www.w3.org/1999/02/22-rdf-syntax-ns#"
   xmlns:svg="http://www.w3.org/2000/svg"
   xmlns="http://www.w3.org/2000/svg"
   xmlns:xlink="http://www.w3.org/1999/xlink"
   xmlns:sodipodi="http://sodipodi.sourceforge.net/DTD/sodipodi-0.dtd"
   xmlns:inkscape="http://www.inkscape.org/namespaces/inkscape"
   sodipodi:docname="wolf.svg"
   inkscape:version="1.0 (4035a4fb49, 2020-05-01)"
   id="svg1182"
   version="1.1"
   viewBox="0 0 201.42952 126.25845"
   height="126.25845mm"
   width="201.42952mm">
  <defs
     id="defs1176">
    <linearGradient
       id="linearGradient3883"
       inkscape:collect="always">
      <stop
         id="stop3879"
         offset="0"
         style="stop-color:#000000;stop-opacity:1;" />
      <stop
         id="stop3881"
         offset="1"
         style="stop-color:#000000;stop-opacity:0;" />
    </linearGradient>
    <linearGradient
       id="linearGradient3684-2"
       inkscape:collect="always">
      <stop
         id="stop3680"
         offset="0"
         style="stop-color:#666666;stop-opacity:1" />
      <stop
         id="stop3682"
         offset="1"
         style="stop-color:#cccccc;stop-opacity:1" />
    </linearGradient>
    <radialGradient
       gradientUnits="userSpaceOnUse"
       gradientTransform="matrix(1,0,0,0.35566366,-1.3837822,140.39535)"
       r="68.646774"
       fy="261.44229"
       fx="101.43298"
       cy="261.44229"
       cx="101.43298"
       id="radialGradient3686"
       xlink:href="#linearGradient3684-2"
       inkscape:collect="always" />
    <linearGradient
       gradientUnits="userSpaceOnUse"
       y2="252.2569"
       x2="158.43805"
       y1="252.2569"
       x1="134.36404"
       id="linearGradient3696"
       xlink:href="#linearGradient3684-2"
       inkscape:collect="always"
       gradientTransform="rotate(-4.1239308,52.192701,269.11508)" />
    <linearGradient
       gradientTransform="rotate(-5.9250728,116.85218,970.13511)"
       inkscape:collect="always"
       xlink:href="#linearGradient3684-2"
       id="linearGradient3696-7"
       x1="134.36404"
       y1="252.2569"
       x2="158.43805"
       y2="252.2569"
       gradientUnits="userSpaceOnUse" />
    <linearGradient
       gradientUnits="userSpaceOnUse"
       y2="252.2569"
       x2="158.43805"
       y1="252.2569"
       x1="134.36404"
       id="linearGradient3696-7-2"
       xlink:href="#linearGradient3684-2"
       inkscape:collect="always"
       gradientTransform="rotate(2.2775256,156.11754,-1909.9596)" />
    <linearGradient
       gradientTransform="rotate(-3.4846536,153.27641,218.27115)"
       gradientUnits="userSpaceOnUse"
       y2="212.40437"
       x2="209.0975"
       y1="212.40437"
       x1="155.39532"
       id="linearGradient3788"
       xlink:href="#linearGradient3684-2"
       inkscape:collect="always" />
    <linearGradient
       gradientTransform="translate(-6.5628197,2.387368)"
       gradientUnits="userSpaceOnUse"
       y2="185.42682"
       x2="51.753452"
       y1="185.42682"
       x1="10.516745"
       id="linearGradient3806"
       xlink:href="#linearGradient3684-2"
       inkscape:collect="always" />
    <linearGradient
       gradientTransform="matrix(1.3076923,0,0,1.3181817,-13.495741,-61.432191)"
       gradientUnits="userSpaceOnUse"
       y2="178.42986"
       x2="54.937706"
       y1="178.42986"
       x1="45.991951"
       id="linearGradient3824"
       xlink:href="#linearGradient3684-2"
       inkscape:collect="always" />
    <linearGradient
       gradientTransform="rotate(-14.228716,18.207543,176.59221)"
       inkscape:collect="always"
       xlink:href="#linearGradient3684-2"
       id="linearGradient3824-3"
       x1="45.991951"
       y1="178.42986"
       x2="54.937706"
       y2="178.42986"
       gradientUnits="userSpaceOnUse" />
    <radialGradient
       gradientUnits="userSpaceOnUse"
       gradientTransform="matrix(1.8063706,2.4394213e-6,-2.3305104e-6,1.7257231,-36.449141,-140.87946)"
       r="1.3651139"
       fy="188.2599"
       fx="41.181854"
       cy="188.2599"
       cx="41.181854"
       id="radialGradient3887"
       xlink:href="#linearGradient3883"
       inkscape:collect="always" />
    <linearGradient
       gradientTransform="translate(-1.2604787,-2.4202954)"
       gradientUnits="userSpaceOnUse"
       y2="196.82799"
       x2="24.770908"
       y1="198.08592"
       x1="24.824053"
       id="linearGradient3903"
       xlink:href="#linearGradient3883"
       inkscape:collect="always" />
    <linearGradient
       inkscape:collect="always"
       xlink:href="#linearGradient3883"
       id="linearGradient3903-6"
       x1="23.422874"
       y1="196.63655"
       x2="23.480797"
       y2="197.62274"
       gradientUnits="userSpaceOnUse"
       gradientTransform="matrix(1.0231959,0,0,1.446429,0.70419708,-88.979311)" />
    <linearGradient
       inkscape:collect="always"
       xlink:href="#linearGradient3684-2"
       id="linearGradient3696-8"
       x1="134.36404"
       y1="252.2569"
       x2="162.92369"
       y2="242.45168"
       gradientUnits="userSpaceOnUse"
       gradientTransform="matrix(0.98230484,-0.1119029,0.10203396,0.89567341,-34.462013,35.104149)" />
  </defs>
  <sodipodi:namedview
     inkscape:window-maximized="1"
     inkscape:window-y="-9"
     inkscape:window-x="-9"
     inkscape:window-height="1001"
     inkscape:window-width="1920"
     inkscape:snap-global="false"
     showgrid="false"
     inkscape:document-rotation="0"
     inkscape:current-layer="layer7"
     inkscape:document-units="mm"
     inkscape:cy="206.60976"
     inkscape:cx="433.59159"
     inkscape:zoom="0.89189393"
     inkscape:pageshadow="2"
     inkscape:pageopacity="0.0"
     borderopacity="1.0"
     bordercolor="#666666"
     pagecolor="#ffffff"
     id="base" />
  <metadata
     id="metadata1179">
    <rdf:RDF>
      <cc:Work
         rdf:about="">
        <dc:format>image/svg+xml</dc:format>
        <dc:type
           rdf:resource="http://purl.org/dc/dcmitype/StillImage" />
        <dc:title />
      </cc:Work>
    </rdf:RDF>
  </metadata>
  <g
     transform="translate(-10.466719,-162.06605)"
     sodipodi:insensitive="true"
     inkscape:label="ogon"
     id="layer8"
     inkscape:groupmode="layer">
    <path
       inkscape:transform-center-y="-8.0703399"
       inkscape:transform-center-x="-29.694726"
       sodipodi:nodetypes="zzzzzzzzz"
       id="path3772"
       d="m 154.89625,214.11726 c 1.32721,-1.98404 17.93861,1.08289 25.58148,-2.0253 7.64288,-3.10819 20.08827,-17.61394 25.29215,-18.3074 5.20389,-0.69345 4.35886,1.48242 5.77228,3.59755 1.41341,2.11513 -1.69581,6.78475 -4.19314,11.09903 -2.49733,4.31428 -10.06702,13.614 -16.47152,16.26104 -6.4045,2.64702 -14.24747,1.72316 -19.72841,1.98416 -5.48093,0.26102 -12.48554,-1.82692 -14.98932,-4.18582 -2.50378,-2.3589 -2.59073,-6.43922 -1.26352,-8.42326 z"
       style="fill:url(#linearGradient3788);fill-opacity:1;stroke:none;stroke-width:0.264583px;stroke-linecap:butt;stroke-linejoin:miter;stroke-opacity:1" />
  </g>
  <g
     transform="translate(-10.466719,-162.06605)"
     sodipodi:insensitive="true"
     inkscape:label="noga1"
     id="layer3"
     inkscape:groupmode="layer">
    <path
       inkscape:transform-center-y="26.37261"
       inkscape:transform-center-x="5.0748588"
       sodipodi:nodetypes="zzzzzzzczzzz"
       id="path3688-4-9"
       d="m 55.390004,222.45332 c -2.014394,6.15321 0.264337,26.93821 0.75486,32.39059 0.490522,5.45238 -4.38032,21.84374 -5.857546,21.92504 -1.477227,0.0813 -4.864093,1.4727 -5.651739,2.82195 -0.787645,1.34926 -0.904353,1.95605 0.155561,3.05291 1.059914,1.09687 3.8003,0.7561 6.072834,0.51853 2.272534,-0.23757 5.217861,-0.83117 7.288967,-2.20289 2.071106,-1.37172 6.845409,-28.24642 6.845409,-28.24642 0,0 10.946791,-21.45076 10.778473,-27.51007 -0.168318,-6.05932 -1.659976,-6.59694 -4.3712,-8.48311 -2.711225,-1.88616 -7.200512,-2.42493 -10.198908,-1.23655 -2.998397,1.1884 -3.802317,0.81681 -5.816711,6.97002 z"
       style="fill:url(#linearGradient3696-7-2);fill-opacity:1;stroke:none;stroke-width:0.264583px;stroke-linecap:butt;stroke-linejoin:miter;stroke-opacity:1" />
  </g>
  <g
     transform="translate(-10.466719,-162.06605)"
     sodipodi:insensitive="true"
     inkscape:label="noga3"
     id="layer5"
     inkscape:groupmode="layer">
    <path
       inkscape:transform-center-y="24.392539"
       inkscape:transform-center-x="9.163966"
       style="fill:url(#linearGradient3696-8);fill-opacity:1;stroke:none;stroke-width:0.249781px;stroke-linecap:butt;stroke-linejoin:miter;stroke-opacity:1"
       d="m 127.20293,221.83644 c -0.35374,7.22473 2.02554,16.17085 4.04761,19.88747 2.02209,3.7166 -0.98993,15.23688 -0.60773,16.57902 0.38222,1.34216 -1.82723,7.70196 -2.12643,9.03469 -0.29919,1.33272 -4.5766,7.83727 -7.07444,9.97034 -2.49782,2.13308 -5.29816,3.1155 -6.05682,4.5002 -0.75864,1.38472 -2.23553,1.69914 -0.51704,2.91371 1.71848,1.21459 6.54663,0.99536 8.87214,-0.41397 2.32554,-1.40932 3.23863,-4.12541 4.66143,-6.43504 1.42279,-2.30962 6.30661,-6.713 7.66365,-8.68624 1.35703,-1.97324 3.41739,-7.19152 3.17122,-7.97327 -0.24617,-0.78175 5.63672,-8.59621 6.88583,-12.19093 1.24912,-3.59472 3.78522,-6.63741 5.25324,-13.85554 1.46803,-7.21811 6.41438,-10.2703 3.85709,-16.27246 -2.55731,-6.00215 -4.3246,-8.07151 -8.19789,-9.11013 -3.8733,-1.0386 -7.10665,1.33669 -12.61804,1.73163 0,0 -6.86008,3.09576 -7.21382,10.32052 z"
       id="path3688-5"
       sodipodi:nodetypes="zzzzzzzzzzszzzzsz" />
  </g>
  <g
     transform="translate(-10.466719,-162.06605)"
     sodipodi:insensitive="true"
     inkscape:label="korpus"
     id="layer2"
     inkscape:groupmode="layer">
    <path
       inkscape:transform-center-y="-8.0096408"
       inkscape:transform-center-x="-1.4832668"
       sodipodi:nodetypes="zzzzzzzzzzzcczz"
       id="path1745"
       d="m 80.09352,198.69798 c 8.614153,3.16346 20.69954,8.03088 33.64376,9.07111 12.94422,1.04023 27.54746,-3.95806 35.9138,-1.69849 8.36634,2.25956 7.95872,7.04041 9.25151,8.07467 1.2928,1.03426 2.08668,4.54777 2.72317,9.47395 0.63649,4.92618 0.38236,14.62728 -4.16085,17.75423 -4.5432,3.12695 -14.38635,6.97028 -28.05487,6.80612 -13.66852,-0.16412 -40.528691,-2.49374 -51.412206,-1.97523 -10.883515,0.5185 -9.818305,2.08481 -14.529714,0.83027 -4.711408,-1.25455 -7.964408,-3.0256 -12.315661,-8.02594 -4.351252,-5.00035 -10.097003,-14.88005 -11.97208,-20.97184 -1.875076,-6.0918 1.482777,-17.52759 1.482777,-17.52759 l 19.539629,-8.53805 c 0,0 5.689204,-0.16161 14.303357,3.00185 z"
       style="fill:url(#radialGradient3686);fill-opacity:1;stroke:none;stroke-width:0.264583px;stroke-linecap:butt;stroke-linejoin:miter;stroke-opacity:1" />
  </g>
  <g
     transform="translate(-10.466719,-162.06605)"
     sodipodi:insensitive="true"
     inkscape:label="glowa"
     id="layer7"
     inkscape:groupmode="layer">
    <g
       transform="rotate(-1.8881423,19.577461,214.45842)"
       inkscape:transform-center-y="-19.798734"
       inkscape:transform-center-x="2.099683"
       id="g887">
      <path
         sodipodi:nodetypes="ccccc"
         id="path3808-5"
         d="m 46.778396,174.17891 2.562604,-4.41812 5.791008,-6.5511 0.310433,12.48397 z"
         style="fill:url(#linearGradient3824-3);fill-opacity:1;stroke:none;stroke-width:0.264583px;stroke-linecap:butt;stroke-linejoin:miter;stroke-opacity:1" />
      <path
         style="fill:url(#linearGradient3806);fill-opacity:1;stroke:none;stroke-width:0.264583px;stroke-linecap:butt;stroke-linejoin:miter;stroke-opacity:1"
         d="m 52.781378,221.51961 c -7.776155,0.25407 -10.633837,-5.99072 -13.241714,-9.63491 -2.607877,-3.64419 -2.393385,-6.45696 -3.970867,-8.0344 -1.577482,-1.57744 -5.317124,-5.7772 -5.317124,-5.7772 l -13.849369,0.005 -0.553512,-1.38376 18.007976,-1.68081 -19.945272,0.85052 c 0,0 -1.905041,-3.58362 -1.279999,-4.4627 0.625042,-0.87907 3.858794,-1.71747 7.562944,-3.30566 3.704149,-1.58819 8.458887,-2.82919 8.93804,-4.8136 0.207999,-0.86143 2.531052,-4.21976 3.392701,-5.24329 0.86165,-1.02353 12.499161,-4.2194 16.642392,-3.57844 4.143231,0.64097 15.117512,6.61859 16.726471,8.99388 1.60896,2.37529 13.614898,17.81393 13.614898,17.81393 0,0 -18.95141,19.99768 -26.727565,20.25175 z"
         id="path3790"
         sodipodi:nodetypes="zzzccccczsszzzczz" />
      <path
         style="fill:url(#linearGradient3824);fill-opacity:1;stroke:none;stroke-width:0.347378px;stroke-linecap:butt;stroke-linejoin:miter;stroke-opacity:1"
         d="m 47.305517,177.5218 5.779953,-6.22701 8.334627,-5.08226 -4.172636,16.05188 z"
         id="path3808"
         sodipodi:nodetypes="ccccc" />
      <path
         style="fill:#333333;fill-opacity:1;stroke:none;stroke-width:0.226673px;stroke-linecap:butt;stroke-linejoin:miter;stroke-opacity:1"
         d="m 33.610613,185.31132 c 2.502847,-0.83088 1.886468,-3.1908 4.403875,-3.33783 2.517404,-0.14704 1.910245,2.06483 4.443759,3.081 2.533515,1.0162 -1.087627,0.68111 -4.140873,0.91979 -3.053246,0.23868 -7.209608,0.16792 -4.706761,-0.66296 z"
         id="path3855"
         sodipodi:nodetypes="zzzzz" />
      <path
         style="fill:#333333;fill-opacity:1;stroke:none;stroke-width:1.5"
         id="path3857"
         sodipodi:type="arc"
         sodipodi:cx="37.940113"
         sodipodi:cy="183.22234"
         sodipodi:rx="0.52593398"
         sodipodi:ry="1.1986402"
         sodipodi:start="0"
         sodipodi:end="6.0518245"
         sodipodi:open="true"
         sodipodi:arc-type="arc"
         d="m 38.466047,183.22234 a 0.52593398,1.1986402 0 0 1 -0.495531,1.19663 0.52593398,1.1986402 0 0 1 -0.552822,-1.05828 0.52593398,1.1986402 0 0 1 0.431616,-1.31899 0.52593398,1.1986402 0 0 1 0.602724,0.90578" />
      <path
         style="fill:#aa8800;fill-opacity:1;stroke:url(#radialGradient3887);stroke-width:0.1;stroke-miterlimit:4;stroke-dasharray:none;stroke-opacity:1"
         id="path3859"
         sodipodi:type="arc"
         sodipodi:cx="37.940113"
         sodipodi:cy="184.00511"
         sodipodi:rx="1.657582"
         sodipodi:ry="1.6453511"
         sodipodi:start="0"
         sodipodi:end="6.2809154"
         sodipodi:arc-type="arc"
         d="m 39.597695,184.00511 a 1.657582,1.6453511 0 0 1 -1.656641,1.64535 1.657582,1.6453511 0 0 1 -1.658522,-1.64348 1.657582,1.6453511 0 0 1 1.654759,-1.64722 1.657582,1.6453511 0 0 1 1.6604,1.64162"
         sodipodi:open="true" />
      <path
         style="opacity:1;fill:#28220b;fill-opacity:1;stroke:#000000;stroke-width:0.1;stroke-miterlimit:4;stroke-dasharray:none;stroke-dashoffset:0;stroke-opacity:1"
         id="path3889"
         sodipodi:type="arc"
         sodipodi:cx="38.013496"
         sodipodi:cy="183.98065"
         sodipodi:rx="0.62378216"
         sodipodi:ry="0.6849373"
         sodipodi:start="0"
         sodipodi:end="6.2809164"
         sodipodi:arc-type="slice"
         d="m 38.637279,183.98065 a 0.62378216,0.6849373 0 0 1 -0.623429,0.68494 0.62378216,0.6849373 0 0 1 -0.624135,-0.68416 0.62378216,0.6849373 0 0 1 0.62272,-0.68571 0.62378216,0.6849373 0 0 1 0.624842,0.68338 l -0.623781,0.002 z" />
      <path
         style="fill:#483e37;fill-opacity:1;stroke:none;stroke-width:0.264583px;stroke-linecap:butt;stroke-linejoin:miter;stroke-opacity:1"
         d="m 11.242463,190.98147 c -0.119519,0.58868 0.864864,2.49081 0.864864,2.49081 0,0 0.748203,1.7477 0.864864,2.28324 0.11666,0.53553 0.931473,-0.0548 1.176214,-0.27676 0.244741,-0.22196 -0.03459,-1.76433 -0.03459,-1.76433 0,0 1.695967,-1.53217 1.868106,-2.17945 0.172139,-0.64728 -0.138378,-2.31784 -0.138378,-2.31784 0,0 -1.742606,0.50967 -2.404322,0.6746 -0.661715,0.16493 -1.2152,0.18158 -1.548106,0.37189 -0.332906,0.19027 -0.529129,0.12915 -0.648648,0.71784 z"
         id="path3891"
         sodipodi:nodetypes="zczzczczzzz" />
      <path
         style="fill:url(#linearGradient3903);fill-opacity:1;stroke:none;stroke-width:0.264583px;stroke-linecap:butt;stroke-linejoin:miter;stroke-opacity:1"
         d="m 13.318901,195.13518 22.569291,-1.30275 -0.856167,1.27203 -21.664196,0.8135 z"
         id="path3895"
         sodipodi:nodetypes="ccccc" />
      <path
         sodipodi:nodetypes="ccccc"
         id="path3895-5"
         d="m 15.621757,196.77066 20.37472,-2.0942 0.088,0.98724 -20.314812,1.87226 z"
         style="fill:url(#linearGradient3903-6);fill-opacity:1;stroke:none;stroke-width:0.321877px;stroke-linecap:butt;stroke-linejoin:miter;stroke-opacity:1" />
    </g>
  </g>
  <g
     transform="translate(-10.466719,-162.06605)"
     sodipodi:insensitive="true"
     inkscape:label="noga4"
     id="layer6"
     inkscape:groupmode="layer">
    <path
       inkscape:transform-center-y="25.092951"
       inkscape:transform-center-x="-6.6447535"
       sodipodi:nodetypes="zzzzzzzzzzzzzzzsz"
       id="path3688"
       d="m 130.01284,220.38749 c -0.61012,7.98306 9.66262,23.3363 14.1862,29.92052 4.52357,6.58421 7.86664,7.74424 10.22079,10.72774 2.35416,2.98349 4.3222,3.06701 4.34185,6.70189 0.0196,3.63489 -4.78986,9.45253 -7.39067,11.68273 -2.6008,2.23021 -5.35613,1.19583 -6.17179,2.68929 -0.81565,1.49348 -1.14123,1.99714 0.55443,3.43337 1.69565,1.43623 7.45369,1.3866 9.85495,-0.0511 2.40126,-1.43774 1.78806,-3.61557 3.30774,-6.09825 1.51968,-2.48268 4.51646,-6.56595 5.95789,-8.67955 1.44142,-2.11359 2.74583,-1.46189 2.70489,-3.99222 -0.0409,-2.53034 -3.8923,-5.01338 -6.08651,-8.38569 -2.19422,-3.37231 -4.6164,-11.15328 -4.4981,-14.24573 0.11831,-3.09246 3.84716,-18.69375 1.47034,-25.47689 -2.37681,-6.78315 -4.09198,-9.16867 -7.97314,-10.52413 -3.88118,-1.35546 -12.32842,1.14367 -12.82236,1.24958 0,0 -7.04641,3.06541 -7.65651,11.04848 z"
       style="fill:url(#linearGradient3696);fill-opacity:1;stroke:none;stroke-width:0.264583px;stroke-linecap:butt;stroke-linejoin:miter;stroke-opacity:1" />
  </g>
  <g
     transform="translate(-10.466719,-162.06605)"
     sodipodi:insensitive="true"
     inkscape:label="noga2"
     id="layer4"
     inkscape:groupmode="layer">
    <path
       style="fill:url(#linearGradient3696-7);fill-opacity:1;stroke:none;stroke-width:0.264583px;stroke-linecap:butt;stroke-linejoin:miter;stroke-opacity:1"
       d="m 62.427819,229.15338 c 0.984873,5.76615 4.456209,21.28794 5.357646,29.07193 0.901441,7.784 -1.582803,22.23171 -1.942199,22.60503 -0.359393,0.37331 -3.907361,0.10477 -5.219837,1.36172 -1.312475,1.25696 -3.032314,3.4422 -1.619631,5.26573 1.412686,1.82353 8.051329,0.30157 10.631985,-0.33337 2.580656,-0.63495 2.506711,-1.04139 4.109246,-2.35452 1.602534,-1.31313 3.383913,-29.72055 3.383913,-29.72055 0,0 7.662389,-29.89565 7.611905,-34.00326 -0.05048,-4.10762 -2.501051,-4.61144 -5.453645,-6.09149 -2.952594,-1.48005 -9.790281,-0.7529 -12.373598,1.02558 -2.583319,1.77847 -5.470658,7.40705 -4.485785,13.1732 z"
       id="path3688-4"
       sodipodi:nodetypes="zzzzzzzczzzz"
       inkscape:transform-center-x="5.4819015"
       inkscape:transform-center-y="29.389376" />
  </g>
</svg>
