<?xml version="1.0" encoding="UTF-8" standalone="no"?>
<svg
   xmlns:dc="http://purl.org/dc/elements/1.1/"
   xmlns:cc="http://creativecommons.org/ns#"
   xmlns:rdf="http://www.w3.org/1999/02/22-rdf-syntax-ns#"
   xmlns:svg="http://www.w3.org/2000/svg"
   xmlns="http://www.w3.org/2000/svg"
   xmlns:xlink="http://www.w3.org/1999/xlink"
   xmlns:sodipodi="http://sodipodi.sourceforge.net/DTD/sodipodi-0.dtd"
   xmlns:inkscape="http://www.inkscape.org/namespaces/inkscape"
   sodipodi:docname="glowa.svg"
   inkscape:version="1.0 (4035a4fb49, 2020-05-01)"
   id="svg8"
   version="1.1"
   viewBox="0 0 118.75406 127.09039"
   height="127.09039mm"
   width="118.75407mm">
  <defs
     id="defs2">
    <linearGradient
       inkscape:collect="always"
       id="linearGradient2925">
      <stop
         style="stop-color:#547119;stop-opacity:1"
         offset="0"
         id="stop2921" />
      <stop
         style="stop-color:#e9d98f;stop-opacity:1"
         offset="1"
         id="stop2923" />
    </linearGradient>
    <linearGradient
       inkscape:collect="always"
       id="linearGradient2919">
      <stop
         style="stop-color:#547119;stop-opacity:1"
         offset="0"
         id="stop2915" />
      <stop
         style="stop-color:#e9d98f;stop-opacity:1"
         offset="1"
         id="stop2917" />
    </linearGradient>
    <linearGradient
       gradientTransform="rotate(6.0895567,356.83548,10.037367)"
       gradientUnits="userSpaceOnUse"
       y2="238.50298"
       x2="302.00299"
       y1="218.84824"
       x1="305.02679"
       id="linearGradient2891"
       xlink:href="#linearGradient2919"
       inkscape:collect="always" />
    <linearGradient
       gradientTransform="rotate(7.6029752,114.19607,-10.139552)"
       gradientUnits="userSpaceOnUse"
       y2="190.46556"
       x2="79.775421"
       y1="139.02835"
       x1="104.68025"
       id="linearGradient2905"
       xlink:href="#linearGradient2919"
       inkscape:collect="always" />
    <linearGradient
       gradientTransform="rotate(7.6029752,114.19607,-10.139552)"
       gradientUnits="userSpaceOnUse"
       y2="190.46556"
       x2="79.775421"
       y1="139.02835"
       x1="104.68025"
       id="linearGradient2913"
       xlink:href="#linearGradient2925"
       inkscape:collect="always" />
    <linearGradient
       inkscape:collect="always"
       xlink:href="#linearGradient2925"
       id="linearGradient133"
       gradientUnits="userSpaceOnUse"
       gradientTransform="rotate(7.6029752,114.19607,-10.139552)"
       x1="104.68025"
       y1="139.02835"
       x2="79.775421"
       y2="190.46556" />
    <linearGradient
       inkscape:collect="always"
       xlink:href="#linearGradient2919"
       id="linearGradient135"
       gradientUnits="userSpaceOnUse"
       gradientTransform="rotate(7.6029752,114.19607,-10.139552)"
       x1="104.68025"
       y1="139.02835"
       x2="79.775421"
       y2="190.46556" />
  </defs>
  <sodipodi:namedview
     inkscape:window-maximized="1"
     inkscape:window-y="-9"
     inkscape:window-x="-9"
     inkscape:window-height="1001"
     inkscape:window-width="1920"
     inkscape:snap-global="false"
     showgrid="false"
     inkscape:document-rotation="0"
     inkscape:current-layer="layer2"
     inkscape:document-units="mm"
     inkscape:cy="584.74872"
     inkscape:cx="523.24169"
     inkscape:zoom="0.44602144"
     inkscape:pageshadow="2"
     inkscape:pageopacity="0.0"
     borderopacity="1.0"
     bordercolor="#666666"
     pagecolor="#ffffff"
     id="base"
     showguides="true"
     inkscape:guide-bbox="true">
    <sodipodi:guide
       position="-35.394677,75.10187"
       orientation="1,0"
       id="guide107" />
  </sodipodi:namedview>
  <metadata
     id="metadata5">
    <rdf:RDF>
      <cc:Work
         rdf:about="">
        <dc:format>image/svg+xml</dc:format>
        <dc:type
           rdf:resource="http://purl.org/dc/dcmitype/StillImage" />
        <dc:title></dc:title>
      </cc:Work>
    </rdf:RDF>
  </metadata>
  <g
     inkscape:groupmode="layer"
     id="layer6"
     inkscape:label="noga3"
     transform="translate(23.048137,-3.4557339)" />
  <g
     inkscape:groupmode="layer"
     id="layer5"
     inkscape:label="noga2"
     transform="translate(23.048137,-3.4557339)" />
  <g
     transform="translate(23.048137,-3.4557339)"
     inkscape:groupmode="layer"
     id="layer2"
     inkscape:label="glowa"
     style="display:inline">
    <g
       style="display:inline"
       id="g115"
       inkscape:transform-center-x="17.178943"
       inkscape:transform-center-y="-50.681883"
       transform="rotate(0.11776672,53.699586,120.70865)">
      <g
         id="g131"
         inkscape:transform-center-x="31.791102"
         inkscape:transform-center-y="-61.19654"
         transform="rotate(1.6725158,139.60319,184.15803)">
        <path
           style="fill:#4c6319;fill-opacity:1;stroke:none;stroke-width:0.264583px;stroke-linecap:butt;stroke-linejoin:miter;stroke-opacity:1"
           d="M 24.701744,58.724914 C 25.986491,55.09122 90.383702,10.387852 90.383702,10.387852 L 62.044491,34.399091 49.371602,57.964999 Z"
           id="path2933-0"
           sodipodi:nodetypes="ccccc" />
        <path
           sodipodi:nodetypes="csscccsszssssscszzssc"
           id="path18"
           d="m 22.480761,85.619542 c -7.268947,1.344168 -40.840222,6.455296 -41.481633,6.188004 -1.245623,-0.519084 -4.61529,-5.080026 -3.478283,-5.243552 3.677192,-0.528859 29.8040169,-6.363095 30.6418361,-7.171523 L 18.857438,76.223105 c 0,0 1.187652,-1.254709 0.0376,-1.550565 -0.282571,0.174215 -11.8825054,1.282435 -23.7635808,3.001983 -7.0464542,1.019834 -9.2884802,1.402438 -19.3069242,3.220933 -1.447461,0.262735 -2.295619,-5.187228 -2.019176,-6.717338 0.276443,-1.53011 2.583504,-0.549308 15.071481,-4.251327 11.17806375,-3.313702 18.0467951,-5.411877 18.2664721,-5.579817 0.045717,-0.03494 7.3574109,-6.354805 7.5805049,-7.860611 0.730378,-4.929773 2.730826,-8.655879 2.935076,-8.775617 4.738529,-2.77786 10.766288,-5.960446 18.986175,-6.972447 l 12.543967,-1.476966 8.533284,4.601027 c 1.006447,0.542662 2.141602,2.848992 3.554541,4.99595 1.412939,2.146958 2.355562,6.282926 2.706368,10.370604 0.350806,4.087678 -2.617691,13.415944 -1.94639,15.777256 0.6713,2.361311 13.512254,36.01503 14.392013,39.96183 0.87976,3.94678 -17.409095,35.98202 -39.381157,3.10541"
           style="fill:url(#linearGradient133);fill-opacity:1;stroke:url(#linearGradient135);stroke-width:0.314158;stroke-opacity:1"
           inkscape:transform-center-x="32.586364"
           inkscape:transform-center-y="-30.649272" />
        <path
           sodipodi:nodetypes="ccccc"
           id="path2933"
           d="M 22.230243,53.143707 C 23.514992,49.510013 87.912202,4.8066447 87.912202,4.8066447 L 59.572991,28.817884 46.900101,52.383793 Z"
           style="fill:#4c6319;fill-opacity:1;stroke:none;stroke-width:0.264583px;stroke-linecap:butt;stroke-linejoin:miter;stroke-opacity:1" />
        <path
           sodipodi:nodetypes="zzzzccz"
           id="path2952"
           d="m 18.443043,58.566052 c -1.390399,0.664309 -2.708019,1.415281 -2.679885,2.986094 0.02813,1.570814 -0.545088,2.309805 0.811709,3.266998 1.356794,0.957193 4.312664,0.87211 5.263019,-0.135782 0.950355,-1.007893 5.172202,-2.175671 5.172202,-2.175671 l -3.018592,-3.093674 c 0,0 -4.158056,-1.512275 -5.548453,-0.847965 z"
           style="fill:#4c2119;fill-opacity:1;stroke:none;stroke-width:0.264583px;stroke-linecap:butt;stroke-linejoin:miter;stroke-opacity:1" />
        <path
           id="path2962"
           d="m 18.383388,59.525093 0.0058,3.607855 1.944752,1.7902 0.378399,-2.250216 z"
           style="fill:#e1bd19;fill-opacity:1;stroke:none;stroke-width:0.264583px;stroke-linecap:butt;stroke-linejoin:miter;stroke-opacity:1" />
        <path
           inkscape:transform-center-y="1.2537453"
           inkscape:transform-center-x="-0.34357937"
           style="fill:#010101;fill-opacity:1;stroke:none;stroke-width:0.15492px;stroke-linecap:butt;stroke-linejoin:miter;stroke-opacity:1"
           d="m 18.563517,60.611348 0.570209,2.57736 1.130176,0.896028 -0.188969,-1.682812 z"
           id="path2962-2" />
      </g>
    </g>
  </g>
  <g
     inkscape:groupmode="layer"
     id="layer8"
     inkscape:label="skrzydlo1"
     transform="translate(23.048137,-3.4557339)" />
  <g
     id="layer1"
     inkscape:groupmode="layer"
     inkscape:label="korpus"
     style="display:inline"
     transform="translate(23.048137,-3.4557339)" />
  <g
     inkscape:groupmode="layer"
     id="layer3"
     inkscape:label="ogon"
     transform="translate(23.048137,-3.4557339)" />
  <g
     inkscape:groupmode="layer"
     id="layer7"
     inkscape:label="noga4"
     transform="translate(23.048137,-3.4557339)" />
  <g
     inkscape:groupmode="layer"
     id="layer9"
     inkscape:label="skrzydlo2"
     transform="translate(23.048137,-3.4557339)" />
  <g
     inkscape:groupmode="layer"
     id="layer4"
     inkscape:label="noga1"
     transform="translate(23.048137,-3.4557339)" />
</svg>
