<?xml version="1.0" encoding="UTF-8" standalone="no"?>
<svg
   xmlns:dc="http://purl.org/dc/elements/1.1/"
   xmlns:cc="http://creativecommons.org/ns#"
   xmlns:rdf="http://www.w3.org/1999/02/22-rdf-syntax-ns#"
   xmlns:svg="http://www.w3.org/2000/svg"
   xmlns="http://www.w3.org/2000/svg"
   xmlns:xlink="http://www.w3.org/1999/xlink"
   xmlns:sodipodi="http://sodipodi.sourceforge.net/DTD/sodipodi-0.dtd"
   xmlns:inkscape="http://www.inkscape.org/namespaces/inkscape"
   sodipodi:docname="korpus.svg"
   inkscape:version="1.0 (4035a4fb49, 2020-05-01)"
   id="svg8"
   version="1.1"
   viewBox="0 0 264.22433 176.25357"
   height="176.25357mm"
   width="264.22433mm">
  <defs
     id="defs2">
    <linearGradient
       inkscape:collect="always"
       id="linearGradient2925">
      <stop
         style="stop-color:#547119;stop-opacity:1"
         offset="0"
         id="stop2921" />
      <stop
         style="stop-color:#e9d98f;stop-opacity:1"
         offset="1"
         id="stop2923" />
    </linearGradient>
    <linearGradient
       inkscape:collect="always"
       id="linearGradient2919">
      <stop
         style="stop-color:#547119;stop-opacity:1"
         offset="0"
         id="stop2915" />
      <stop
         style="stop-color:#e9d98f;stop-opacity:1"
         offset="1"
         id="stop2917" />
    </linearGradient>
    <linearGradient
       gradientTransform="rotate(6.0895567,356.83548,10.037367)"
       gradientUnits="userSpaceOnUse"
       y2="238.50298"
       x2="302.00299"
       y1="218.84824"
       x1="305.02679"
       id="linearGradient2891"
       xlink:href="#linearGradient2919"
       inkscape:collect="always" />
    <linearGradient
       gradientTransform="rotate(7.6029752,114.19607,-10.139552)"
       gradientUnits="userSpaceOnUse"
       y2="190.46556"
       x2="79.775421"
       y1="139.02835"
       x1="104.68025"
       id="linearGradient2905"
       xlink:href="#linearGradient2919"
       inkscape:collect="always" />
    <linearGradient
       gradientTransform="rotate(7.6029752,114.19607,-10.139552)"
       gradientUnits="userSpaceOnUse"
       y2="190.46556"
       x2="79.775421"
       y1="139.02835"
       x1="104.68025"
       id="linearGradient2913"
       xlink:href="#linearGradient2925"
       inkscape:collect="always" />
    <linearGradient
       inkscape:collect="always"
       xlink:href="#linearGradient2925"
       id="linearGradient103"
       gradientUnits="userSpaceOnUse"
       gradientTransform="matrix(0.93308391,0,0,1.0001027,-17.412806,-0.23530585)"
       x1="104.68025"
       y1="139.02835"
       x2="79.775421"
       y2="190.46556" />
    <linearGradient
       inkscape:collect="always"
       xlink:href="#linearGradient2919"
       id="linearGradient105"
       gradientUnits="userSpaceOnUse"
       gradientTransform="matrix(0.93308391,0,0,1.0001027,-17.412806,-0.23530585)"
       x1="104.68025"
       y1="139.02835"
       x2="79.775421"
       y2="190.46556" />
  </defs>
  <sodipodi:namedview
     inkscape:window-maximized="1"
     inkscape:window-y="-9"
     inkscape:window-x="-9"
     inkscape:window-height="1001"
     inkscape:window-width="1920"
     inkscape:snap-global="false"
     showgrid="false"
     inkscape:document-rotation="0"
     inkscape:current-layer="layer9"
     inkscape:document-units="mm"
     inkscape:cy="341.148"
     inkscape:cx="436.01624"
     inkscape:zoom="0.44602144"
     inkscape:pageshadow="2"
     inkscape:pageopacity="0.0"
     borderopacity="1.0"
     bordercolor="#666666"
     pagecolor="#ffffff"
     id="base"
     showguides="true"
     inkscape:guide-bbox="true">
    <sodipodi:guide
       position="-42.926798,292.32477"
       orientation="1,0"
       id="guide107" />
  </sodipodi:namedview>
  <metadata
     id="metadata5">
    <rdf:RDF>
      <cc:Work
         rdf:about="">
        <dc:format>image/svg+xml</dc:format>
        <dc:type
           rdf:resource="http://purl.org/dc/dcmitype/StillImage" />
        <dc:title></dc:title>
      </cc:Work>
    </rdf:RDF>
  </metadata>
  <g
     inkscape:groupmode="layer"
     id="layer6"
     inkscape:label="noga3"
     transform="translate(15.516018,-49.570513)" />
  <g
     inkscape:groupmode="layer"
     id="layer5"
     inkscape:label="noga2"
     transform="translate(15.516018,-49.570513)" />
  <g
     transform="translate(15.516018,-49.570513)"
     inkscape:groupmode="layer"
     id="layer2"
     inkscape:label="glowa"
     style="display:inline" />
  <g
     inkscape:groupmode="layer"
     id="layer8"
     inkscape:label="skrzydlo1"
     transform="translate(15.516018,-49.570513)" />
  <g
     sodipodi:insensitive="true"
     id="layer1"
     inkscape:groupmode="layer"
     inkscape:label="korpus"
     style="display:inline"
     transform="translate(15.516018,-49.570513)">
    <path
       sodipodi:nodetypes="cccccccccccccccccccccc"
       id="path10"
       d="m 49.74742,126.66788 14.557646,46.53367 31.964896,26.83631 79.961348,11.60194 57.45103,14.18428 15.02599,-31.54432 -44.97917,-36.28571 -66.52381,-25.70239 -18.72976,-9.54111 L 78.035393,88.343589 70.24007,64.702037 c 1.609637,0.70604 -8.66753,-11.372084 -13.437148,-15.131524 l -36.689598,9.457273 -3.363798,18.490713 -32.265544,14.344102 4.157738,3.02381 28.72619,-6.04762 -26.4583333,18.898809 4.913691,6.04762 40.6000153,-13.55342 7.597512,10.14444 z"
       style="fill:none;stroke:none;stroke-width:0.264583px;stroke-linecap:butt;stroke-linejoin:miter;stroke-opacity:1" />
    <path
       id="path3007"
       d="m 116.02856,128.94236 11.15283,17.60974 -18.58805,-13.30514 z"
       style="fill:#536e19;fill-opacity:1;stroke:none;stroke-width:0.264583px;stroke-linecap:butt;stroke-linejoin:miter;stroke-opacity:1" />
    <path
       style="display:inline;fill:url(#linearGradient103);fill-opacity:1;stroke:url(#linearGradient105);stroke-width:0.30348;stroke-opacity:1"
       d="m 34.783592,105.00255 c 0,0 22.31776,4.249 28.608317,3.73708 6.290557,-0.51192 3.055564,-3.86587 8.634301,-2.59816 5.578737,1.26771 16.07313,13.31838 21.282235,16.76378 5.209105,3.4454 6.068363,3.32725 9.102545,4.99087 3.03418,1.66362 2.53512,1.84413 9.10255,4.99085 6.56743,3.14672 20.52329,8.4869 30.78493,12.73034 10.26164,4.24344 24.83994,9.07281 30.78493,12.73033 5.94499,3.65752 2.04156,1.75823 6.49123,5.59037 4.44967,3.83214 27.90481,11.08702 33.63467,16.14923 5.72986,5.06221 5.46906,4.68469 5.28781,5.4587 -0.18125,0.77401 -6.08711,23.06972 -10.10338,22.91282 -4.01626,-0.1569 0.48402,0.58652 -3.11881,-0.12184 -3.60283,-0.70836 -8.75661,-0.45532 -12.72293,-0.60686 -3.96632,-0.15154 -6.05064,1.50938 -13.40197,2.26815 -7.35133,0.75877 -20.94973,1.74168 -30.72751,1.16976 -9.77778,-0.57192 -20.06926,-3.13387 -27.68173,-4.32258 -7.61247,-1.18871 -34.706271,-5.42633 -37.370754,-5.845 -2.664483,-0.41867 -6.646506,-0.0905 -9.689041,-1.52242 -3.042535,-1.43193 -5.631729,-4.97858 -7.767904,-6.86702 -2.136175,-1.88844 -9.361584,-6.74655 -11.316138,-8.50094 -1.954555,-1.75438 -9.903409,-4.86653 -14.819168,-12.31166 -4.915759,-7.44513 -9.377822,-42.75771 -9.377822,-42.75771"
       id="path101"
       sodipodi:nodetypes="czzzzzzzzzzzzzzzzzzzzzc"
       inkscape:transform-center-x="22.920383"
       inkscape:transform-center-y="-27.504066" />
  </g>
  <g
     inkscape:groupmode="layer"
     id="layer3"
     inkscape:label="ogon"
     transform="translate(15.516018,-49.570513)" />
  <g
     inkscape:groupmode="layer"
     id="layer7"
     inkscape:label="noga4"
     transform="translate(15.516018,-49.570513)" />
  <g
     inkscape:groupmode="layer"
     id="layer9"
     inkscape:label="skrzydlo2"
     transform="translate(15.516018,-49.570513)" />
  <g
     inkscape:groupmode="layer"
     id="layer4"
     inkscape:label="noga1"
     transform="translate(15.516018,-49.570513)" />
</svg>
