<?xml version="1.0" encoding="UTF-8" standalone="no"?>
<svg
   xmlns:dc="http://purl.org/dc/elements/1.1/"
   xmlns:cc="http://creativecommons.org/ns#"
   xmlns:rdf="http://www.w3.org/1999/02/22-rdf-syntax-ns#"
   xmlns:svg="http://www.w3.org/2000/svg"
   xmlns="http://www.w3.org/2000/svg"
   xmlns:sodipodi="http://sodipodi.sourceforge.net/DTD/sodipodi-0.dtd"
   xmlns:inkscape="http://www.inkscape.org/namespaces/inkscape"
   sodipodi:docname="glowa.svg"
   inkscape:version="1.0 (4035a4fb49, 2020-05-01)"
   id="svg8"
   version="1.1"
   viewBox="0 0 36.345917 51.711853"
   height="51.711853mm"
   width="36.345917mm"
   inkscape:export-filename="C:\Users\260862\Desktop\bartender.png"
   inkscape:export-xdpi="241.905"
   inkscape:export-ydpi="241.905">
  <defs
     id="defs2">
    <clipPath
       id="clipPath4045"
       clipPathUnits="userSpaceOnUse">
      <path
         sodipodi:nodetypes="cccccc"
         id="path4047"
         d="M 87.197134,57.598109 C 88.69643,71.309833 86.336415,84.020996 68.797741,92.79695 L 14.399527,175.72756 -18.399396,142.39532 27.465763,50.665004 Z"
         style="fill:none;stroke:#000000;stroke-width:0.264583px;stroke-linecap:butt;stroke-linejoin:miter;stroke-opacity:1" />
    </clipPath>
  </defs>
  <sodipodi:namedview
     inkscape:window-maximized="1"
     inkscape:window-y="-8"
     inkscape:window-x="1352"
     inkscape:window-height="1017"
     inkscape:window-width="1920"
     inkscape:snap-global="false"
     inkscape:object-nodes="true"
     inkscape:snap-others="true"
     showgrid="false"
     inkscape:document-rotation="0"
     inkscape:current-layer="layer11"
     inkscape:document-units="mm"
     inkscape:cy="503.38203"
     inkscape:cx="-100.67773"
     inkscape:zoom="0.49611004"
     inkscape:pageshadow="2"
     inkscape:pageopacity="0.0"
     borderopacity="1.0"
     bordercolor="#666666"
     pagecolor="#ffffff"
     id="base"
     showguides="true"
     inkscape:guide-bbox="true" />
  <metadata
     id="metadata5">
    <rdf:RDF>
      <cc:Work
         rdf:about="">
        <dc:format>image/svg+xml</dc:format>
        <dc:type
           rdf:resource="http://purl.org/dc/dcmitype/StillImage" />
        <dc:title></dc:title>
      </cc:Work>
    </rdf:RDF>
  </metadata>
  <g
     transform="translate(-91.891718,-5.7428335)"
     inkscape:label="right_leg"
     id="layer10"
     inkscape:groupmode="layer"
     style="display:inline">
    <g
       id="g3238-3-6"
       inkscape:transform-center-x="24.683707"
       inkscape:transform-center-y="63.430107"
       transform="rotate(11.829413,-293.38348,193.63644)"
       style="display:inline" />
  </g>
  <g
     transform="translate(-91.891718,-5.7428335)"
     style="display:inline"
     inkscape:label="left_leg"
     id="layer9"
     inkscape:groupmode="layer" />
  <g
     transform="translate(-91.891718,-5.7428335)"
     style="display:inline"
     inkscape:label="right_arm"
     id="layer8"
     inkscape:groupmode="layer" />
  <g
     transform="translate(-91.891718,-5.7428335)"
     style="display:inline"
     inkscape:label="left_arm"
     id="layer7"
     inkscape:groupmode="layer" />
  <g
     transform="translate(-91.891718,-5.7428335)"
     style="display:inline"
     id="layer1"
     inkscape:groupmode="layer"
     inkscape:label="torso">
    <rect
       style="opacity:0.99;fill:#e6e6e6;stroke:none;stroke-width:0.264583;stroke-dasharray:0.264583, 0.529167"
       id="rect1426-4-1-7-1"
       width="18.666054"
       height="1.1999606"
       x="609.90704"
       y="-202.42381"
       transform="rotate(26.612994)" />
  </g>
  <g
     transform="translate(-91.891718,-5.7428335)"
     style="display:inline"
     inkscape:label="head"
     id="layer11"
     inkscape:groupmode="layer">
    <path
       style="fill:#ffb380;stroke:none;stroke-width:0.264583px;stroke-linecap:butt;stroke-linejoin:miter;stroke-opacity:1"
       d="m 94.6161,15.10442 c -2.03477,9.148197 -0.18765,19.684317 0.15416,29.682237 1.80727,8.4718 9.17273,9.116399 14.67316,11.891169 8.07363,-2.81756 13.64191,-5.044099 15.50185,-12.059559 0.81255,-9.59311 1.68516,-19.035627 0.1968,-28.514314 C 107.26011,5.068582 102.52017,10.520832 94.6161,15.10442 Z"
       id="path899-9"
       sodipodi:nodetypes="cccccc" />
    <path
       transform="scale(0.26458333)"
       sodipodi:nodetypes="ccccccccccccccc"
       d="m 474.625,138.9668 c -3.42799,8.27335 -12.23609,26.73582 -20.15117,33.21434 -28.02957,-6.54643 -62.98021,-4.38187 -76.36113,1.90315 -10.13374,-7.08177 -18.03963,-24.88726 -22.14395,-33.69171 l 1.42578,29.57422 c 2.36114,21.75334 16.28289,32.50427 29.98256,41.85905 12.19431,3.7486 35.58174,9.75464 58.43319,0.14845 12.45369,-12.17954 22.38643,-26.87826 28.10183,-46.63836 z m -90.9238,45.72081 c 22.42887,-4.9115 26.44674,-11.59689 58.80452,1.13141 -4.45318,3.83051 -2.58255,5.27981 -1.37486,11.94075 -18.49394,-14.22801 -37.33745,-10.27707 -57.36914,-2.84961 3.25743,-3.54679 2.27897,-4.81012 -0.0605,-10.22255 z"
       style="fill:#808080;stroke:none;stroke-width:0.999999px;stroke-linecap:butt;stroke-linejoin:miter;stroke-opacity:1"
       id="path4615" />
    <path
       style="display:inline;fill:#808080;stroke:none;stroke-width:0.264583px;stroke-linecap:butt;stroke-linejoin:miter;stroke-opacity:1"
       d="m 106.06827,14.190101 c -3.03836,2.129438 -4.30205,7.092628 -6.098168,9.964554 -0.33403,0.534104 -0.310738,-3.865935 -0.609408,-3.364112 -3.08726,5.187247 -3.299189,13.245146 -5.887549,14.531943 0.0353,-0.733802 -1.132761,-4.942764 -1.100061,-5.689712 0.017,-0.388566 -0.49901,0.988248 -0.4809,0.597798 0.33307,-7.180685 1.48306,-16.349621 6.13089,-20.4104426 0.23227,-0.2029345 -1.22533,0.3024536 -0.97246,0.116654 2.18411,-1.6047918 8.854016,-4.1871404 12.911356,-4.1939499 10.2873,0.7563536 15.51209,5.5127935 18.26869,18.3974685 0.18155,0.84858 -3.25804,-1.931006 -1.41459,1.197807 1.02643,1.742124 0.57932,7.541726 0.6369,9.015267 -1.42629,-0.0061 -3.62547,-2.004907 -3.81891,-4.266605 -0.21091,-2.465889 -1.1446,-0.08205 -1.46369,-0.559893 -2.64787,-3.965135 -4.78191,-9.070223 -7.16225,-12.211194 -0.42912,-0.56624 0.74967,4.263574 0.32626,3.704901 -2.35743,-3.110467 -3.82877,-6.565867 -7.26618,-7.897108 z"
       id="path3663"
       sodipodi:nodetypes="csscsssscsscsssscc"
       inkscape:transform-center-x="0.27141378"
       inkscape:transform-center-y="-29.415278" />
  </g>
</svg>
