<?xml version="1.0" encoding="UTF-8" standalone="no"?>
<svg
   xmlns:dc="http://purl.org/dc/elements/1.1/"
   xmlns:cc="http://creativecommons.org/ns#"
   xmlns:rdf="http://www.w3.org/1999/02/22-rdf-syntax-ns#"
   xmlns:svg="http://www.w3.org/2000/svg"
   xmlns="http://www.w3.org/2000/svg"
   xmlns:sodipodi="http://sodipodi.sourceforge.net/DTD/sodipodi-0.dtd"
   xmlns:inkscape="http://www.inkscape.org/namespaces/inkscape"
   inkscape:export-ydpi="241.905"
   inkscape:export-xdpi="241.905"
   inkscape:export-filename="C:\Users\260862\Desktop\bartender.png"
   width="36.796196mm"
   height="52.829414mm"
   viewBox="0 0 36.796196 52.829414"
   version="1.1"
   id="svg8"
   inkscape:version="1.0 (4035a4fb49, 2020-05-01)"
   sodipodi:docname="glowa.svg">
  <defs
     id="defs2">
    <clipPath
       clipPathUnits="userSpaceOnUse"
       id="clipPath4045">
      <path
         style="fill:none;stroke:#000000;stroke-width:0.264583px;stroke-linecap:butt;stroke-linejoin:miter;stroke-opacity:1"
         d="M 87.197134,57.598109 C 88.69643,71.309833 86.336415,84.020996 68.797741,92.79695 L 14.399527,175.72756 -18.399396,142.39532 27.465763,50.665004 Z"
         id="path4047"
         sodipodi:nodetypes="cccccc" />
    </clipPath>
  </defs>
  <sodipodi:namedview
     inkscape:guide-bbox="true"
     showguides="true"
     id="base"
     pagecolor="#ffffff"
     bordercolor="#666666"
     borderopacity="1.0"
     inkscape:pageopacity="0.0"
     inkscape:pageshadow="2"
     inkscape:zoom="0.49611004"
     inkscape:cx="-228.711"
     inkscape:cy="513.11539"
     inkscape:document-units="mm"
     inkscape:current-layer="layer11"
     inkscape:document-rotation="0"
     showgrid="false"
     inkscape:snap-others="true"
     inkscape:object-nodes="true"
     inkscape:snap-global="false"
     inkscape:window-width="1920"
     inkscape:window-height="1017"
     inkscape:window-x="1352"
     inkscape:window-y="-8"
     inkscape:window-maximized="1" />
  <metadata
     id="metadata5">
    <rdf:RDF>
      <cc:Work
         rdf:about="">
        <dc:format>image/svg+xml</dc:format>
        <dc:type
           rdf:resource="http://purl.org/dc/dcmitype/StillImage" />
        <dc:title></dc:title>
      </cc:Work>
    </rdf:RDF>
  </metadata>
  <g
     transform="translate(-91.319917,-6.2483336)"
     inkscape:groupmode="layer"
     id="layer2"
     inkscape:label="robe"
     style="display:inline" />
  <g
     transform="translate(-91.319917,-6.2483336)"
     style="display:inline"
     inkscape:groupmode="layer"
     id="layer10"
     inkscape:label="right_leg" />
  <g
     transform="translate(-91.319917,-6.2483336)"
     inkscape:groupmode="layer"
     id="layer9"
     inkscape:label="left_leg"
     style="display:inline" />
  <g
     transform="translate(-91.319917,-6.2483336)"
     inkscape:groupmode="layer"
     id="layer8"
     inkscape:label="right_arm"
     style="display:inline" />
  <g
     transform="translate(-91.319917,-6.2483336)"
     inkscape:groupmode="layer"
     id="layer7"
     inkscape:label="left_arm"
     style="display:inline" />
  <g
     transform="translate(-91.319917,-6.2483336)"
     inkscape:label="torso"
     inkscape:groupmode="layer"
     id="layer1"
     style="display:inline">
    <rect
       transform="rotate(26.612994)"
       y="-202.42381"
       x="609.90704"
       height="1.1999606"
       width="18.666054"
       id="rect1426-4-1-7-1"
       style="opacity:0.99;fill:#e6e6e6;stroke:none;stroke-width:0.264583;stroke-dasharray:0.264583, 0.529167" />
  </g>
  <g
     transform="translate(-91.319917,-6.2483336)"
     inkscape:groupmode="layer"
     id="layer11"
     inkscape:label="head"
     style="display:inline">
    <path
       sodipodi:nodetypes="cccccc"
       id="path899-9"
       d="m 94.6161,15.10442 c -2.03477,9.148197 -0.18765,19.684317 0.15416,29.682237 1.80727,8.4718 9.30606,11.51632 14.80649,14.29109 8.07363,-2.81756 13.50858,-7.44402 15.36852,-14.45948 0.81255,-9.59311 2.61846,-19.23562 1.1301,-28.714307 C 108.19341,4.8685886 102.52017,10.520832 94.6161,15.10442 Z"
       style="fill:#ffb380;stroke:none;stroke-width:0.264583px;stroke-linecap:butt;stroke-linejoin:miter;stroke-opacity:1" />
    <path
       style="fill:#1a1a1a;stroke:none;stroke-width:0.26485px;stroke-linecap:butt;stroke-linejoin:miter;stroke-opacity:1"
       d="m 104.92792,19.683025 c -6.714986,2.631427 -10.515077,13.745586 -13.158549,19.776798 -0.100314,-4.755835 -1.231655,-8.36901 0.531744,-18.126611 0.148746,-0.823072 1.009073,-2.653397 1.166454,-3.427029 0.05388,-0.264878 -1.238554,-0.462086 -1.584394,-0.01174 4.981564,-9.0937564 17.761175,-15.2052193 26.093965,-9.3330294 0.13078,0.092161 0.51175,0.4020406 0.66793,0.437584 3.16382,0.7200432 5.86388,3.9441844 7.68885,8.0901764 0.5275,1.370633 1.62834,6.276619 1.77569,7.601099 0.11113,0.998993 -1.24178,-2.389833 -1.03559,-1.423952 1.08344,5.075229 -0.41334,11.341352 0.25513,16.999018 -5.63025,-2.403562 -8.37599,-7.739849 -11.59962,-13.760607 -0.32018,1.812198 -0.52704,3.133439 1.07611,7.175171 -5.14311,-4.609077 -5.51482,-13.641886 -11.87772,-13.996878 z"
       id="path4811"
       sodipodi:nodetypes="ccsscsscsscccc" />
  </g>
</svg>
