<?xml version="1.0" encoding="UTF-8" standalone="no"?>
<svg
   xmlns:dc="http://purl.org/dc/elements/1.1/"
   xmlns:cc="http://creativecommons.org/ns#"
   xmlns:rdf="http://www.w3.org/1999/02/22-rdf-syntax-ns#"
   xmlns:svg="http://www.w3.org/2000/svg"
   xmlns="http://www.w3.org/2000/svg"
   xmlns:sodipodi="http://sodipodi.sourceforge.net/DTD/sodipodi-0.dtd"
   xmlns:inkscape="http://www.inkscape.org/namespaces/inkscape"
   sodipodi:docname="trader.svg"
   inkscape:version="1.0 (4035a4fb49, 2020-05-01)"
   id="svg8"
   version="1.1"
   viewBox="0 0 144.01149 299.91333"
   height="299.91333mm"
   width="144.01149mm"
   inkscape:export-filename="C:\Users\260862\Desktop\bartender.png"
   inkscape:export-xdpi="241.905"
   inkscape:export-ydpi="241.905">
  <defs
     id="defs2">
    <clipPath
       id="clipPath4045"
       clipPathUnits="userSpaceOnUse">
      <path
         sodipodi:nodetypes="cccccc"
         id="path4047"
         d="M 87.197134,57.598109 C 88.69643,71.309833 86.336415,84.020996 68.797741,92.79695 L 14.399527,175.72756 -18.399396,142.39532 27.465763,50.665004 Z"
         style="fill:none;stroke:#000000;stroke-width:0.264583px;stroke-linecap:butt;stroke-linejoin:miter;stroke-opacity:1" />
    </clipPath>
  </defs>
  <sodipodi:namedview
     inkscape:window-maximized="1"
     inkscape:window-y="-9"
     inkscape:window-x="-9"
     inkscape:window-height="1001"
     inkscape:window-width="1920"
     inkscape:snap-global="false"
     inkscape:object-nodes="true"
     inkscape:snap-others="true"
     showgrid="false"
     inkscape:document-rotation="0"
     inkscape:current-layer="layer1"
     inkscape:document-units="mm"
     inkscape:cy="647.55757"
     inkscape:cx="246.06518"
     inkscape:zoom="1.2212932"
     inkscape:pageshadow="2"
     inkscape:pageopacity="0.0"
     borderopacity="1.0"
     bordercolor="#666666"
     pagecolor="#ffffff"
     id="base"
     showguides="true"
     inkscape:guide-bbox="true" />
  <metadata
     id="metadata5">
    <rdf:RDF>
      <cc:Work
         rdf:about="">
        <dc:format>image/svg+xml</dc:format>
        <dc:type
           rdf:resource="http://purl.org/dc/dcmitype/StillImage" />
        <dc:title />
      </cc:Work>
    </rdf:RDF>
  </metadata>
  <g
     sodipodi:insensitive="true"
     inkscape:label="right_leg"
     id="layer10"
     inkscape:groupmode="layer"
     style="display:inline"
     transform="translate(-28.537626,4.0830382)">
    <g
       id="g1130"
       inkscape:transform-center-x="-9.060405"
       inkscape:transform-center-y="65.353332"
       transform="rotate(3.6007638,119.50625,159.88491)">
      <path
         inkscape:transform-center-y="54.330535"
         inkscape:transform-center-x="-6.4664385"
         id="path3150-8"
         d="m 139.48577,281.22413 -10.12621,0.45695 -22.05496,-118.61644 c -1.4049,-10.74913 18.8855,-8.66463 24.49382,-6.90486 l 6.10218,8.60556 z"
         style="display:inline;fill:#622915;fill-opacity:1;stroke:none;stroke-width:0.264583px;stroke-linecap:butt;stroke-linejoin:miter;stroke-opacity:1"
         sodipodi:nodetypes="cccccc" />
      <g
         transform="rotate(5.0664895,150.31686,481.3704)"
         inkscape:transform-center-y="66.343279"
         inkscape:transform-center-x="1.133646"
         id="g3230"
         style="display:inline">
        <g
           id="g3222"
           inkscape:transform-center-x="-5.0665003"
           inkscape:transform-center-y="65.06453" />
        <g
           inkscape:transform-center-y="67.154279"
           inkscape:transform-center-x="-5.8564778"
           id="g81">
          <path
             sodipodi:nodetypes="cccccccc"
             id="path855-9-6"
             d="m 103.41379,260.88352 6.69645,18.22602 -5.50395,11.62918 c -1.22991,4.34187 -0.16532,6.46829 3.75041,6.90799 6.70921,-1.29516 8.23991,-2.44178 10.97221,-4.50522 2.88024,-3.83165 4.78617,-7.78662 4.18841,-11.02863 l -2.62068,-24.35204 c -3.18266,1.72395 -11.36079,4.12157 -17.48285,3.1227 z"
             style="display:inline;fill:#2b1100;stroke:none;stroke-width:0.264583px;stroke-linecap:butt;stroke-linejoin:miter;stroke-opacity:1" />
          <path
             style="display:inline;fill:#241c1c;stroke:none;stroke-width:0.356346px;stroke-linecap:butt;stroke-linejoin:miter;stroke-opacity:1"
             d="m 93.435525,215.45431 c 1.996079,2.96759 12.235725,0.66733 16.871955,-2.81423 l 0.0608,1.44154 c -3.05293,4.46245 -11.660459,5.80644 -16.144729,3.29998 z"
             id="path1685-96-6"
             sodipodi:nodetypes="ccccc" />
          <path
             sodipodi:nodetypes="ccccc"
             id="path1614-3-2"
             d="m 109.55254,277.08503 c 3.70131,0.74267 8.1552,0.16108 12.98238,-2.53582 l -0.21688,-2.65894 c -6.38503,3.03193 -11.72166,3.04871 -13.9928,2.02482 z"
             style="fill:#000000;stroke:#000000;stroke-width:0.264583px;stroke-linecap:butt;stroke-linejoin:miter;stroke-opacity:1" />
          <path
             style="fill:#000000;stroke:#000000;stroke-width:0.264583px;stroke-linecap:butt;stroke-linejoin:miter;stroke-opacity:1"
             d="m 107.35128,271.34365 c 3.7013,0.74267 9.76152,-0.094 14.58868,-2.79095 l -0.33897,-2.94871 c -6.38502,3.03193 -13.20587,3.59361 -15.47703,2.56969 z"
             id="path1614-5-3-9"
             sodipodi:nodetypes="ccccc" />
        </g>
      </g>
    </g>
  </g>
  <g
     sodipodi:insensitive="true"
     style="display:inline"
     inkscape:label="left_leg"
     id="layer9"
     inkscape:groupmode="layer"
     transform="translate(-28.537626,4.0830382)">
    <g
       id="g3238"
       inkscape:transform-center-x="3.9304165"
       inkscape:transform-center-y="69.07517"
       transform="rotate(-5.2002938,-205.93944,2039.8742)">
      <g
         transform="matrix(1.0497118,0.00626966,0.00626966,0.98139431,180.15256,41.439241)"
         inkscape:transform-center-y="60.660138"
         inkscape:transform-center-x="5.0945768"
         id="g65">
        <g
           id="g3217" />
      </g>
    </g>
    <g
       transform="rotate(-2.4372975,98.922735,160.10327)"
       inkscape:transform-center-y="65.779003"
       inkscape:transform-center-x="10.357373"
       id="g1113">
      <g
         id="g1120"
         inkscape:transform-center-x="12.896378"
         inkscape:transform-center-y="62.05483"
         transform="rotate(2.7566026,99.250006,162.19736)">
        <path
           inkscape:transform-center-y="55.295672"
           inkscape:transform-center-x="4.9162982"
           id="path3150"
           d="m 78.40738,278.12682 10.642493,0.26219 20.827907,-116.72634 c -4.0584,-9.93758 -15.496381,-7.6366 -25.934271,-2.17042 l -4.623975,6.66068 z"
           style="display:inline;fill:#622915;fill-opacity:1;stroke:none;stroke-width:0.268541px;stroke-linecap:butt;stroke-linejoin:miter;stroke-opacity:1"
           sodipodi:nodetypes="cccccc" />
        <path
           sodipodi:nodetypes="cccccccc"
           id="path855-3"
           d="m 75.457025,260.87962 2.265963,18.927 -8.526275,9.78997 c -2.341832,3.84815 -1.78848,6.12261 2.09541,7.4572 7.167661,0.33539 9.016108,-0.39882 12.31976,-1.72532 3.897395,-2.97618 6.831858,-6.29768 7.034046,-9.5256 l 3.42543,-23.80903 c -3.677998,0.8978 -12.620043,1.26899 -18.614334,-1.11422 z"
           style="display:inline;fill:#2b1100;stroke:none;stroke-width:0.268541px;stroke-linecap:butt;stroke-linejoin:miter;stroke-opacity:1" />
        <path
           style="display:inline;fill:#241c1c;stroke:none;stroke-width:0.361676px;stroke-linecap:butt;stroke-linejoin:miter;stroke-opacity:1"
           d="m 79.407704,211.92708 c 0.858335,3.41505 11.772093,4.85755 17.620118,3.27215 l -0.475837,1.34357 c -4.657054,3.03462 -13.61219,1.28112 -17.086179,-2.57419 z"
           id="path1685-96"
           sodipodi:nodetypes="ccccc" />
        <path
           transform="matrix(1.0459594,-0.0888996,0.09519517,0.97678655,-2.5701423,14.670446)"
           sodipodi:nodetypes="ccccc"
           id="path1614-0"
           d="m 51.973595,273.75666 c 3.258035,1.90695 7.658697,2.80668 13.100811,1.8278 l 0.660373,-2.58474 c -7.024181,0.78862 -12.075682,-0.9325 -13.889894,-2.63986 z"
           style="display:inline;fill:#000000;stroke:#000000;stroke-width:0.264583px;stroke-linecap:butt;stroke-linejoin:miter;stroke-opacity:1" />
        <path
           transform="matrix(1.0459594,-0.0888996,0.09519517,0.97678655,-2.5701423,14.670446)"
           style="display:inline;fill:#000000;stroke:#000000;stroke-width:0.264583px;stroke-linecap:butt;stroke-linejoin:miter;stroke-opacity:1"
           d="m 51.760908,267.61143 c 3.258034,1.90695 9.26059,3.08829 14.702715,2.1094 l 0.639227,-2.89848 C 60.078669,267.61097 53.446409,265.922 51.6322,264.21461 Z"
           id="path1614-5-7"
           sodipodi:nodetypes="ccccc" />
      </g>
    </g>
  </g>
  <g
     sodipodi:insensitive="true"
     style="display:inline"
     id="layer1"
     inkscape:groupmode="layer"
     inkscape:label="torso"
     transform="translate(-28.537626,4.0830382)">
    <rect
       style="opacity:0.99;fill:#e6e6e6;stroke:none;stroke-width:0.264583;stroke-dasharray:0.264583, 0.529167"
       id="rect1426-4-1-7-1"
       width="18.666054"
       height="1.1999606"
       x="609.90704"
       y="-202.42381"
       transform="rotate(26.612994)" />
    <g
       transform="rotate(-0.18922381,108.31977,155.81695)"
       inkscape:transform-center-y="-34.660445"
       inkscape:transform-center-x="-2.4441069"
       id="g1005">
      <path
         style="fill:#622915;fill-opacity:1;stroke:none;stroke-width:0.264583px;stroke-linecap:butt;stroke-linejoin:miter;stroke-opacity:1"
         d="m 85.217551,140.98693 -0.919134,31.71012 44.731183,0.30638 -3.06378,-40.28871 -40.288701,-3.82972 z"
         id="path118"
         sodipodi:nodetypes="cccccc" />
      <g
         inkscape:transform-center-x="-2.7420173"
         transform="matrix(0.99149525,0.00183866,-0.00179712,0.99549334,1.522637,0.58238946)"
         inkscape:transform-center-y="-36.069023"
         id="g1102">
        <path
           sodipodi:nodetypes="ccccccccccccc"
           style="fill:#b17910;fill-opacity:1;stroke:none;stroke-width:0.597222px;stroke-linecap:butt;stroke-linejoin:miter;stroke-opacity:1"
           d="m 124.44167,125.62395 6.8828,12.21675 -10.92659,24.47497 2.84873,14.53648 10.28091,3.57498 15.28692,-3.04212 2.45269,-11.58577 -7.5743,-27.27527 4.63483,-14.38597 -8.03519,2.55726 -12.78859,-0.55985 -4.37506,-2.04211 z"
           id="path1073" />
        <g
           id="g71">
          <path
             sodipodi:nodetypes="cccccccc"
             id="path895-3"
             d="m 97.181171,52.050777 c 4.360639,-2.963753 1.614124,-4.472714 3.456259,-9.318694 l 14.71867,0.0781 c 1.69817,3.383011 -3.69327,8.3194 7.34875,12.753554 18.00272,19.292759 8.61373,11.459661 10.52627,32.237393 l -6.89476,60.76428 -38.175595,0.37798 C 118.34593,104.28563 69.375742,63.237906 97.181171,52.050777 Z"
             style="fill:#ffb380;stroke:none;stroke-width:0.264583px;stroke-linecap:butt;stroke-linejoin:miter;stroke-opacity:1" />
          <g
             transform="translate(-254.40024,-3.7398264)"
             id="g3248" />
        </g>
        <path
           style="display:inline;fill:#3c2a11;fill-opacity:1;stroke:none;stroke-width:0.264583px;stroke-linecap:butt;stroke-linejoin:miter;stroke-opacity:1"
           d="m 83.700261,66.332452 0.43843,84.865208 45.045369,-0.32531 1.59759,-83.702898 -9.8949,-19.085436 -0.64589,27.265568 -13.93141,19.79883 -15.749611,-18.934652 2.975202,-26.830611 -1.88325,2.301756 z"
           id="path1004"
           sodipodi:nodetypes="ccccccccccc" />
        <path
           style="display:inline;fill:#2b1100;stroke:none;stroke-width:0.27059px;stroke-linecap:butt;stroke-linejoin:miter;stroke-opacity:1"
           d="m 79.771781,145.10957 0.816527,4.51024 c 0,0 19.413902,3.4218 29.718662,3.44502 10.30477,0.0232 23.76588,-2.02963 23.76588,-2.02963 l -0.72379,-3.52491 c 0,0 -13.49202,1.72441 -23.81225,1.53697 -10.320215,-0.18745 -29.765029,-3.93769 -29.765029,-3.93769 z"
           id="path1656"
           sodipodi:nodetypes="cczcczc" />
        <path
           style="display:inline;fill:#381208;fill-opacity:1;stroke:none;stroke-width:0.238083px;stroke-linecap:butt;stroke-linejoin:miter;stroke-opacity:1"
           d="m 93.500309,53.055041 c 3.014256,6.095661 -1.356787,7.735122 2.518673,10.403385 -2.81537,5.603121 1.218513,8.509282 1.098363,9.156004 -0.37129,1.99841 -1.971755,2.454956 0.724355,9.970351 -0.72792,3.281221 -1.198556,10.157901 0.152734,14.304296 -0.20514,0.582826 -0.619594,5.627163 0.373166,9.216893 -0.31863,2.84465 -1.697687,5.26051 -1.237457,10.41174 0.13239,5.01577 0.430164,12.00263 0.987944,15.84749 1.998453,19.77967 -1.508091,54.53575 -0.07565,63.51068 L 69.598142,182.81119 78.697909,134.54437 C 74.201259,82.127077 63.990789,54.44327 91.548382,53.756252 Z"
           id="path1422-5"
           sodipodi:nodetypes="ccscccccccccc" />
      </g>
      <path
         sodipodi:nodetypes="ccscccccccccc"
         id="path1422-5-5"
         d="m 120.20767,52.320702 c -3.10558,6.220737 -0.20729,8.938035 -4.20985,11.665861 2.92184,5.70757 -1.24411,8.678252 -1.11865,9.337416 0.3877,2.036855 2.04357,2.49933 -0.73035,10.16701 0.75888,3.344121 1.25844,10.354613 -0.13113,14.584771 0.21322,0.593855 0.65126,5.73621 -0.36861,9.39813 0.33482,2.89976 1.76541,5.36035 1.29915,10.61334 -0.12751,5.11427 -0.42233,12.23855 -0.99192,16.15977 -2.0295,20.17087 1.66171,55.60113 0.19727,64.75456 9.17017,-7.51215 29.18752,-17.05207 28.81034,-18.19933 l -8.30678,-42.48807 c 4.55167,-53.452483 16.61014,-83.357767 -11.8881,-84.006347 z"
         style="display:inline;fill:#381208;fill-opacity:1;stroke:none;stroke-width:0.244467px;stroke-linecap:butt;stroke-linejoin:miter;stroke-opacity:1" />
      <path
         style="fill:#2b1100;fill-opacity:1;stroke:none;stroke-width:0.264583px;stroke-linecap:butt;stroke-linejoin:miter;stroke-opacity:1"
         d="M 136.38268,144.66347 81.694206,55.201101 89.966411,53.822399 136.99543,135.7785 Z"
         id="path943"
         sodipodi:nodetypes="ccccc" />
      <path
         style="fill:#2b1100;fill-opacity:1;stroke:none;stroke-width:0.264583px;stroke-linecap:butt;stroke-linejoin:miter;stroke-opacity:1"
         d="m 135.76992,137.76997 9.03815,-0.15319 0.15319,3.52334 -9.95729,0.61276 z"
         id="path945"
         sodipodi:nodetypes="ccccc" />
      <path
         style="fill:#4f1a0b;fill-opacity:1;stroke:none;stroke-width:0.264583px;stroke-linecap:butt;stroke-linejoin:miter;stroke-opacity:1"
         d="m 81.831545,142.36692 -2.274741,20.36434 10.507135,6.7159 0.866566,-27.40521 z"
         id="path947" />
      <path
         style="fill:#42180c;fill-opacity:1;stroke:none;stroke-width:0.264583px;stroke-linecap:butt;stroke-linejoin:miter;stroke-opacity:1"
         d="m 81.073297,142.90852 4.549482,5.52437 5.849331,-4.98276 v -2.92467 l -10.073849,0.32496 z"
         id="path949" />
      <path
         id="path947-0"
         d="m 130.57599,145.02079 2.27474,20.36434 -10.50714,6.7159 -0.86656,-27.40521 z"
         style="display:inline;fill:#4f1a0b;fill-opacity:1;stroke:none;stroke-width:0.264583px;stroke-linecap:butt;stroke-linejoin:miter;stroke-opacity:1" />
      <path
         id="path949-0"
         d="m 131.33423,145.56239 -4.54948,5.52437 -5.84933,-4.98276 v -2.92467 l 10.07385,0.32496 z"
         style="display:inline;fill:#42180c;fill-opacity:1;stroke:none;stroke-width:0.264583px;stroke-linecap:butt;stroke-linejoin:miter;stroke-opacity:1" />
      <path
         id="path1073-7"
         d="m 87.288091,161.87995 -0.4552,1.5589 -2.230562,4.12573 1.06525,5.03688 4.644098,0.63613 2.79839,-2.33021 0.230474,-3.32161 -2.08199,-4.38329 0.108947,-0.75391 1.235833,-2.56013 -3.254874,-0.52667 -3.467627,-0.30782 z"
         style="display:inline;fill:#7f5b16;fill-opacity:1;stroke:none;stroke-width:0.593336px;stroke-linecap:butt;stroke-linejoin:miter;stroke-opacity:1"
         sodipodi:nodetypes="ccccccccccccc" />
      <path
         sodipodi:nodetypes="ccccc"
         id="path945-8"
         d="m 87.220748,161.86562 4.380345,0.8217 0.04487,0.59868 -4.649567,-0.5788 z"
         style="display:inline;fill:#2b1100;fill-opacity:1;stroke:none;stroke-width:0.264583px;stroke-linecap:butt;stroke-linejoin:miter;stroke-opacity:1" />
    </g>
  </g>
  <g
     sodipodi:insensitive="true"
     style="display:inline"
     inkscape:label="left_arm"
     id="layer7"
     inkscape:groupmode="layer"
     transform="translate(-28.537626,4.0830382)">
    <g
       style="display:inline"
       id="g1052"
       transform="matrix(-0.81494297,0.49257841,0.54861254,0.90764815,49.167937,-4.8977397)"
       inkscape:transform-center-x="13.512409"
       inkscape:transform-center-y="47.34545">
      <g
         id="g1056">
        <path
           sodipodi:nodetypes="ccccccccccccc"
           id="path895-3-2-1-1"
           d="m 42.214321,108.43384 37.630238,25.44153 2.578597,2.64095 0.64608,6.70433 1.901387,-1.94379 1.75793,2.62446 2.42875,2.12871 c 6.6402,-0.10709 3.99668,-4.92298 5.03809,-7.77734 l -7.86839,-8.63696 -33.279162,-29.33956 C 35.36172,78.349057 34.0851,74.524646 19.644018,64.397686 c 5.220759,14.466481 2.155653,3.015144 6.226484,27.6316 z"
           style="display:inline;fill:#ffb380;stroke:none;stroke-width:0.267179px;stroke-linecap:butt;stroke-linejoin:miter;stroke-opacity:1" />
        <path
           style="display:inline;fill:#381208;fill-opacity:1;stroke:none;stroke-width:0.281718px;stroke-linecap:butt;stroke-linejoin:miter;stroke-opacity:1"
           d="m 18.291042,88.480054 c 0.868702,0.45831 12.668422,14.681876 19.944195,21.838696 l 43.199086,28.89272 c 2.08302,-2.29603 8.644,-3.05106 10.98826,-6.64777 L 52.083184,98.686102 C 41.63039,86.478781 25.220107,60.421923 12.820981,62.772545 c -20.7438943,0.867123 3.973558,24.489916 5.470061,25.707509 z"
           id="path1422-5-0-1-9"
           sodipodi:nodetypes="ccccccc" />
      </g>
    </g>
  </g>
  <g
     sodipodi:insensitive="true"
     style="display:inline"
     inkscape:label="right_arm"
     id="layer8"
     inkscape:groupmode="layer"
     transform="translate(-28.537626,4.0830382)">
    <g
       id="g1030"
       transform="rotate(10.388927,145.03355,37.355967)"
       inkscape:transform-center-x="-9.8486346"
       inkscape:transform-center-y="49.483237">
      <path
         style="display:inline;fill:#ffb380;stroke:none;stroke-width:0.267179px;stroke-linecap:butt;stroke-linejoin:miter;stroke-opacity:1"
         d="m 160.49109,109.95505 8.15429,36.55511 0.52447,7.0027 -3.57302,6.32911 3.13232,-0.5762 0.36447,3.13772 1.1877,3.00327 c 5.9554,2.93887 5.80452,-2.55278 8.03511,-4.61588 l -3.05242,-11.27792 -1.63238,-42.44925 C 156.96914,76.990084 158.65272,83.922431 146.51059,62.692655 c -11.51544,6.732618 -12.65779,-3.199516 1.91878,25.113377 z"
         id="path895-3-2-1"
         sodipodi:nodetypes="ccccccccccccc" />
      <g
         transform="matrix(1.1017409,0.09519949,-0.07372056,1.0226565,31.939095,-16.841657)"
         inkscape:transform-center-y="41.842071"
         inkscape:transform-center-x="-8.3811682"
         id="g3121">
        <path
           sodipodi:nodetypes="ccccccc"
           id="path1422-5-0-1"
           d="m 104.93463,90.920883 c 8.5659,8.256658 11.14551,16.138097 17.11384,24.040267 l 10.58185,41.52156 c 2.54678,-1.30343 8.27353,0.43825 11.49855,-1.94292 l -8.26729,-48.7883 C 127.7173,92.745171 117.80329,66.321517 103.10979,62.906891 82.052103,64.576719 97.258413,82.97476 104.93463,90.920883 Z"
           style="fill:#381208;fill-opacity:1;stroke:none;stroke-width:0.264583px;stroke-linecap:butt;stroke-linejoin:miter;stroke-opacity:1" />
      </g>
    </g>
  </g>
  <g
     sodipodi:insensitive="true"
     style="display:inline"
     inkscape:label="head"
     id="layer11"
     inkscape:groupmode="layer"
     transform="translate(-28.537626,4.0830382)">
    <g
       id="g1093"
       transform="rotate(-1.2979727,104.12334,8.8924556)"
       inkscape:transform-center-x="2.9520794"
       inkscape:transform-center-y="-20.963035">
      <path
         sodipodi:nodetypes="cczcc"
         id="path1000"
         d="m 91.198918,11.097191 -3.309169,28.236067 c 0,0 -2.327478,-0.655006 5.804482,1.466354 8.131959,2.121315 19.696599,-16.647465 19.696599,-16.647465 -2.9441,-42.755439 -8.18467,-5.771887 -22.191912,-13.054956 z"
         style="fill:#411731;fill-opacity:1;stroke:none;stroke-width:0.254778px;stroke-linecap:butt;stroke-linejoin:miter;stroke-opacity:1" />
      <g
         transform="matrix(0.98967956,0.13087924,-0.12975982,0.99821738,-163.75599,-29.030647)"
         inkscape:transform-center-y="-21.490079"
         inkscape:transform-center-x="0.6427117"
         id="g3243">
        <path
           style="fill:#ffb380;stroke:none;stroke-width:0.264583px;stroke-linecap:butt;stroke-linejoin:miter;stroke-opacity:1"
           d="m 258.91161,3.9022574 c -1.09145,9.2163996 4.23078,16.5889186 6.19208,27.7342556 3.13886,8.073735 6.48154,8.337938 14.63016,9.306119 7.51912,-4.07247 7.25056,-3.234327 10.35448,-10.473827 -0.47414,-17.693202 2.13695,-23.3716785 -0.84813,-32.4903465 -19.41664,-8.0335655 -23.25928,0.1351489 -30.32859,5.9237989 z"
           id="path899-9"
           sodipodi:nodetypes="cccccc" />
        <path
           id="path901-8"
           style="fill:#552200;stroke:none;stroke-width:0.225992px;stroke-linecap:butt;stroke-linejoin:miter;stroke-opacity:1"
           d="m 282.44278,27.540603 c 0.93681,1.456029 1.34478,5.301761 1.70312,5.765475 0.35835,0.463714 -1.97954,3.674588 -2.70865,2.844509 -0.72911,-0.830079 -2.88661,-6.81984 -4.01638,-5.100671 -0.79705,1.779951 0.36988,8.388632 0.55842,9.02999 0.18854,0.641358 2.20501,0.642531 2.92894,-0.03213 0.72393,-0.674661 4.94892,-2.886616 5.0595,-3.244781 0.11058,-0.358165 4.84518,-2.52685 4.92737,-3.720161 0.0822,-1.193311 -1.06357,-18.50534 -1.11888,-15.719266 -0.0154,0.77363 -1.73322,6.56071 -2.16049,6.94671 -1.41932,1.282246 -4.65392,-1.016657 -11.20356,-0.07139 -6.54964,0.945265 -9.25917,3.803717 -10.95904,2.033591 -1.32596,-1.380766 -3.64623,-7.078548 -3.6692,-6.173094 -0.0459,1.810909 4.55763,15.599684 5.01146,16.762919 0.45383,1.163235 5.98776,1.971427 6.18507,2.266168 0.19731,0.294741 5.66807,1.880991 5.70996,1.543444 0.0419,-0.337547 0.16097,-8.760184 -0.59256,-9.501467 -0.7535,-0.741282 -2.02991,0.430316 -2.99192,3.742425 -0.962,3.312109 -2.8664,1.503681 -2.68428,0.686509 0.18212,-0.817172 -1.08059,-5.117981 -0.64956,-5.622615 0.43103,-0.504634 -0.17793,-1.17308 1.02802,-1.795983 1.20595,-0.622903 6.78246,-1.405137 8.16256,-1.159588 1.3801,0.245549 0.43685,0.222791 1.14225,0.249902 0.7054,0.02711 0.33785,0.269507 0.33785,0.269507 z"
           sodipodi:nodetypes="zzzczzzzssssszzzzzzzzzzz" />
      </g>
      <ellipse
         ry="2.4413819"
         rx="3.6250823"
         cy="16.127916"
         cx="97.803246"
         id="path128"
         style="fill:#ffb380;stroke-width:0.310999" />
      <path
         sodipodi:nodetypes="zzzczccccsscczzz"
         id="path996"
         d="m 104.85946,10.379432 c 4.81311,-0.02755 13.47752,2.45431 13.59622,3.256224 0.11869,0.801912 0.72861,6.867089 1.92158,9.655969 1.19296,2.78888 3.58677,17.079127 3.58677,17.079127 0,0 3.12282,8.452867 3.25949,9.502173 0.13667,1.049306 3.87862,4.741489 3.87862,4.741489 1.91993,0.693085 0.38154,-45.1542144 -3.08125,-50.9701403 0,0 -6.59339,-6.1292254 -8.3863,-6.9405168 -1.0531,0.5203716 -5.08075,-1.2839012 -17.20397,-0.4418021 -3.68935,3.20949981 -10.907514,6.3103427 -13.565613,14.4215972 -0.202451,0.617785 -1.793419,3.431401 -4.924628,10.505872 -3.735063,8.438781 -6.894085,18.138774 -6.894085,18.138774 l 12.089708,0.234123 c 0,0 1.963413,-25.234931 3.695982,-27.443333 1.732569,-2.208401 7.214366,-1.711998 12.027476,-1.739552 z"
         style="fill:#651e40;fill-opacity:1;stroke:none;stroke-width:0.272808px;stroke-linecap:butt;stroke-linejoin:miter;stroke-opacity:1" />
      <path
         sodipodi:nodetypes="cccccccccc"
         id="path1077"
         d="M 91.747289,8.4487361 C 91.303404,9.9283613 85.834936,21.162715 85.1752,21.341232 84.311403,25.607211 83.140075,18.62225 83.140075,18.62225 l 8.448734,-14.4792988 28.055941,6.1754458 1.45373,27.403339 8.93522,5.497231 -9.58348,-39.4345047 -8.88647,5.6851404 z"
         style="fill:#6c3950;fill-opacity:1;stroke:#651e40;stroke-width:0.264583px;stroke-linecap:butt;stroke-linejoin:miter;stroke-opacity:1" />
      <path
         id="path1079"
         d="m 110.48433,-2.5633202 -9.78246,5.1789531 -1.935572,3.8188241 6.277522,1.046253 -2.19713,-4.1850124 8.05615,-5.3882039 6.53908,2.19713162 -3.34801,5.33589108 6.27752,-4.91738983 -5.38821,-3.34801007 z"
         style="fill:#6c3950;fill-opacity:1;stroke:none;stroke-width:0.264583px;stroke-linecap:butt;stroke-linejoin:miter;stroke-opacity:1" />
    </g>
  </g>
</svg>
