<?xml version="1.0" encoding="UTF-8" standalone="no"?>
<svg
   xmlns:dc="http://purl.org/dc/elements/1.1/"
   xmlns:cc="http://creativecommons.org/ns#"
   xmlns:rdf="http://www.w3.org/1999/02/22-rdf-syntax-ns#"
   xmlns:svg="http://www.w3.org/2000/svg"
   xmlns="http://www.w3.org/2000/svg"
   xmlns:sodipodi="http://sodipodi.sourceforge.net/DTD/sodipodi-0.dtd"
   xmlns:inkscape="http://www.inkscape.org/namespaces/inkscape"
   sodipodi:docname="glowa.svg"
   inkscape:version="1.0 (4035a4fb49, 2020-05-01)"
   id="svg8"
   version="1.1"
   viewBox="0 0 32.634006 53.908784"
   height="53.908783mm"
   width="32.634007mm"
   inkscape:export-filename="C:\Users\260862\Desktop\bartender.png"
   inkscape:export-xdpi="241.905"
   inkscape:export-ydpi="241.905">
  <defs
     id="defs2">
    <clipPath
       id="clipPath4045"
       clipPathUnits="userSpaceOnUse">
      <path
         sodipodi:nodetypes="cccccc"
         id="path4047"
         d="M 87.197134,57.598109 C 88.69643,71.309833 86.336415,84.020996 68.797741,92.79695 L 14.399527,175.72756 -18.399396,142.39532 27.465763,50.665004 Z"
         style="fill:none;stroke:#000000;stroke-width:0.264583px;stroke-linecap:butt;stroke-linejoin:miter;stroke-opacity:1" />
    </clipPath>
  </defs>
  <sodipodi:namedview
     inkscape:window-maximized="1"
     inkscape:window-y="-8"
     inkscape:window-x="1352"
     inkscape:window-height="1017"
     inkscape:window-width="1920"
     inkscape:snap-global="false"
     inkscape:object-nodes="true"
     inkscape:snap-others="true"
     showgrid="false"
     inkscape:document-rotation="0"
     inkscape:current-layer="layer11"
     inkscape:document-units="mm"
     inkscape:cy="557.67897"
     inkscape:cx="-249.2053"
     inkscape:zoom="0.49611004"
     inkscape:pageshadow="2"
     inkscape:pageopacity="0.0"
     borderopacity="1.0"
     bordercolor="#666666"
     pagecolor="#ffffff"
     id="base"
     showguides="true"
     inkscape:guide-bbox="true" />
  <metadata
     id="metadata5">
    <rdf:RDF>
      <cc:Work
         rdf:about="">
        <dc:format>image/svg+xml</dc:format>
        <dc:type
           rdf:resource="http://purl.org/dc/dcmitype/StillImage" />
        <dc:title></dc:title>
      </cc:Work>
    </rdf:RDF>
  </metadata>
  <g
     transform="translate(-92.838464,-7.7319403)"
     inkscape:label="right_leg"
     id="layer10"
     inkscape:groupmode="layer"
     style="display:inline" />
  <g
     transform="translate(-92.838464,-7.7319403)"
     style="display:inline"
     inkscape:label="left_leg"
     id="layer9"
     inkscape:groupmode="layer" />
  <g
     transform="translate(-92.838464,-7.7319403)"
     style="display:inline"
     inkscape:label="right_arm"
     id="layer8"
     inkscape:groupmode="layer" />
  <g
     transform="translate(-92.838464,-7.7319403)"
     style="display:inline"
     inkscape:label="left_arm"
     id="layer7"
     inkscape:groupmode="layer" />
  <g
     transform="translate(-92.838464,-7.7319403)"
     style="display:inline"
     id="layer1"
     inkscape:groupmode="layer"
     inkscape:label="torso">
    <rect
       style="opacity:0.99;fill:#e6e6e6;stroke:none;stroke-width:0.264583;stroke-dasharray:0.264583, 0.529167"
       id="rect1426-4-1-7-1"
       width="18.666054"
       height="1.1999606"
       x="609.90704"
       y="-202.42381"
       transform="rotate(26.612994)" />
  </g>
  <g
     transform="translate(-92.838464,-7.7319403)"
     style="display:inline"
     inkscape:label="head"
     id="layer11"
     inkscape:groupmode="layer">
    <path
       style="fill:#ffb380;stroke:none;stroke-width:0.264583px;stroke-linecap:butt;stroke-linejoin:miter;stroke-opacity:1"
       d="m 95.699617,12.954898 c -4.108883,3.680089 -2.528418,17.063496 -2.186606,27.061412 1.807268,8.471801 9.306059,11.516319 14.806489,14.291089 8.07363,-2.817561 13.50858,-7.444023 15.36851,-14.459478 0.81256,-9.59311 4.42592,-21.140125 -1.77633,-27.601927 -7.1343,-5.5672578 -17.93088,-6.7030167 -26.212063,0.708904 z"
       id="path899-9"
       sodipodi:nodetypes="cccccc" />
    <path
       id="path901-8"
       style="fill:#000000;stroke:none;stroke-width:0.264583px;stroke-linecap:butt;stroke-linejoin:miter;stroke-opacity:1"
       d="m 124.71255,29.31027 -2.40477,8.524998 c -5.35932,-2.941251 -9.22469,-4.01491 -13.22221,-4.433877 -5.56379,0.356818 -10.118189,1.966546 -13.974307,4.115305 l -2.272799,-8.718719 c 0.270723,7.390338 0.514479,18.215187 2.405127,25.759144 6.303479,8.847808 19.752679,9.626041 26.559129,1.09588 2.2291,-7.142963 2.29005,-18.790971 2.90983,-26.342729 z m -15.86278,8.152942 c 4.63625,2.369691 8.69576,2.504303 11.25076,3.090009 -0.94142,1.804734 -0.36027,1.511049 -1.49273,3.600188 -7.39914,-2.107984 -12.17477,-1.569286 -19.440613,-0.24918 -0.951788,-2.030574 -0.591036,-1.478432 -1.695143,-3.185446 5.147006,-0.634182 7.905846,-1.213845 11.377726,-3.255571 z"
       sodipodi:nodetypes="ccccccccccccccc" />
  </g>
</svg>
