<?xml version="1.0" encoding="UTF-8" standalone="no"?>
<svg
   xmlns:dc="http://purl.org/dc/elements/1.1/"
   xmlns:cc="http://creativecommons.org/ns#"
   xmlns:rdf="http://www.w3.org/1999/02/22-rdf-syntax-ns#"
   xmlns:svg="http://www.w3.org/2000/svg"
   xmlns="http://www.w3.org/2000/svg"
   xmlns:sodipodi="http://sodipodi.sourceforge.net/DTD/sodipodi-0.dtd"
   xmlns:inkscape="http://www.inkscape.org/namespaces/inkscape"
   inkscape:export-ydpi="241.905"
   inkscape:export-xdpi="241.905"
   inkscape:export-filename="C:\Users\260862\Desktop\bartender.png"
   width="144.01149mm"
   height="299.91333mm"
   viewBox="0 0 144.01149 299.91333"
   version="1.1"
   id="svg8"
   inkscape:version="1.0 (4035a4fb49, 2020-05-01)"
   sodipodi:docname="merchant.svg">
  <defs
     id="defs2">
    <clipPath
       clipPathUnits="userSpaceOnUse"
       id="clipPath4045">
      <path
         style="fill:none;stroke:#000000;stroke-width:0.264583px;stroke-linecap:butt;stroke-linejoin:miter;stroke-opacity:1"
         d="M 87.197134,57.598109 C 88.69643,71.309833 86.336415,84.020996 68.797741,92.79695 L 14.399527,175.72756 -18.399396,142.39532 27.465763,50.665004 Z"
         id="path4047"
         sodipodi:nodetypes="cccccc" />
    </clipPath>
  </defs>
  <sodipodi:namedview
     inkscape:guide-bbox="true"
     showguides="true"
     id="base"
     pagecolor="#ffffff"
     bordercolor="#666666"
     borderopacity="1.0"
     inkscape:pageopacity="0.0"
     inkscape:pageshadow="2"
     inkscape:zoom="0.44704445"
     inkscape:cx="-133.3489"
     inkscape:cy="580.05775"
     inkscape:document-units="mm"
     inkscape:current-layer="layer10"
     inkscape:document-rotation="0"
     showgrid="false"
     inkscape:snap-others="true"
     inkscape:object-nodes="true"
     inkscape:snap-global="false"
     inkscape:window-width="1920"
     inkscape:window-height="1001"
     inkscape:window-x="-9"
     inkscape:window-y="-9"
     inkscape:window-maximized="1" />
  <metadata
     id="metadata5">
    <rdf:RDF>
      <cc:Work
         rdf:about="">
        <dc:format>image/svg+xml</dc:format>
        <dc:type
           rdf:resource="http://purl.org/dc/dcmitype/StillImage" />
        <dc:title></dc:title>
      </cc:Work>
    </rdf:RDF>
  </metadata>
  <g
     transform="translate(-28.537626,4.0830382)"
     style="display:inline"
     inkscape:groupmode="layer"
     id="layer10"
     inkscape:label="right_leg">
    <g
       transform="rotate(3.2654996,120.14758,159.91692)"
       inkscape:transform-center-y="64.027652"
       inkscape:transform-center-x="-0.63714898"
       id="g1130">
      <path
         sodipodi:nodetypes="cccccc"
         style="display:inline;fill:#5b1c1c;fill-opacity:1;stroke:none;stroke-width:0.264583px;stroke-linecap:butt;stroke-linejoin:miter;stroke-opacity:1"
         d="m 139.48577,281.22413 -10.12621,0.45695 -22.05496,-118.61644 c -1.4049,-10.74913 18.8855,-8.66463 24.49382,-6.90486 l 6.10218,8.60556 z"
         id="path3150-8"
         inkscape:transform-center-x="-6.4664385"
         inkscape:transform-center-y="54.330535" />
      <g
         style="display:inline"
         id="g3230"
         inkscape:transform-center-x="1.133646"
         inkscape:transform-center-y="66.343279"
         transform="rotate(5.0664895,150.31686,481.3704)">
        <g
           inkscape:transform-center-y="65.06453"
           inkscape:transform-center-x="-5.0665003"
           id="g3222" />
        <g
           id="g81"
           inkscape:transform-center-x="-5.8564778"
           inkscape:transform-center-y="67.154279">
          <path
             style="display:inline;fill:#2b1100;stroke:none;stroke-width:0.264583px;stroke-linecap:butt;stroke-linejoin:miter;stroke-opacity:1"
             d="m 103.41379,260.88352 6.69645,18.22602 -5.50395,11.62918 c -1.22991,4.34187 -0.16532,6.46829 3.75041,6.90799 6.70921,-1.29516 8.23991,-2.44178 10.97221,-4.50522 2.88024,-3.83165 4.78617,-7.78662 4.18841,-11.02863 l -2.62068,-24.35204 c -3.18266,1.72395 -11.36079,4.12157 -17.48285,3.1227 z"
             id="path855-9-6"
             sodipodi:nodetypes="cccccccc" />
          <path
             sodipodi:nodetypes="ccccc"
             id="path1685-96-6"
             d="m 93.435525,215.45431 c 1.996079,2.96759 12.235725,0.66733 16.871955,-2.81423 l 0.0608,1.44154 c -3.05293,4.46245 -11.660459,5.80644 -16.144729,3.29998 z"
             style="display:inline;fill:#241c1c;stroke:none;stroke-width:0.356346px;stroke-linecap:butt;stroke-linejoin:miter;stroke-opacity:1" />
          <path
             style="fill:#000000;stroke:#000000;stroke-width:0.264583px;stroke-linecap:butt;stroke-linejoin:miter;stroke-opacity:1"
             d="m 109.55254,277.08503 c 3.70131,0.74267 8.1552,0.16108 12.98238,-2.53582 l -0.21688,-2.65894 c -6.38503,3.03193 -11.72166,3.04871 -13.9928,2.02482 z"
             id="path1614-3-2"
             sodipodi:nodetypes="ccccc" />
          <path
             sodipodi:nodetypes="ccccc"
             id="path1614-5-3-9"
             d="m 107.35128,271.34365 c 3.7013,0.74267 9.76152,-0.094 14.58868,-2.79095 l -0.33897,-2.94871 c -6.38502,3.03193 -13.20587,3.59361 -15.47703,2.56969 z"
             style="fill:#000000;stroke:#000000;stroke-width:0.264583px;stroke-linecap:butt;stroke-linejoin:miter;stroke-opacity:1" />
        </g>
      </g>
    </g>
  </g>
  <g
     transform="translate(-28.537626,4.0830382)"
     inkscape:groupmode="layer"
     id="layer9"
     inkscape:label="left_leg"
     style="display:inline">
    <g
       transform="rotate(-5.2002938,-205.93944,2039.8742)"
       inkscape:transform-center-y="69.07517"
       inkscape:transform-center-x="3.9304165"
       id="g3238">
      <g
         id="g65"
         inkscape:transform-center-x="5.0945768"
         inkscape:transform-center-y="60.660138"
         transform="matrix(1.0497118,0.00626966,0.00626966,0.98139431,180.15256,41.439241)">
        <g
           id="g3217" />
      </g>
    </g>
    <g
       id="g1113">
      <g
         transform="rotate(2.7566026,99.250006,162.19736)"
         inkscape:transform-center-y="62.05483"
         inkscape:transform-center-x="12.896378"
         id="g1120">
        <path
           sodipodi:nodetypes="cccccc"
           style="display:inline;fill:#5b1c1c;fill-opacity:1;stroke:none;stroke-width:0.268541px;stroke-linecap:butt;stroke-linejoin:miter;stroke-opacity:1"
           d="m 78.40738,278.12682 10.642493,0.26219 20.827907,-116.72634 c -4.0584,-9.93758 -15.802404,-7.62187 -26.240294,-2.15569 l -4.317952,6.64595 z"
           id="path3150"
           inkscape:transform-center-x="4.9162982"
           inkscape:transform-center-y="55.295672" />
        <path
           style="display:inline;fill:#2b1100;stroke:none;stroke-width:0.268541px;stroke-linecap:butt;stroke-linejoin:miter;stroke-opacity:1"
           d="m 75.457025,260.87962 2.265963,18.927 -8.526275,9.78997 c -2.341832,3.84815 -1.78848,6.12261 2.09541,7.4572 7.167661,0.33539 9.016108,-0.39882 12.31976,-1.72532 3.897395,-2.97618 6.831858,-6.29768 7.034046,-9.5256 l 3.42543,-23.80903 c -3.677998,0.8978 -12.620043,1.26899 -18.614334,-1.11422 z"
           id="path855-3"
           sodipodi:nodetypes="cccccccc" />
        <path
           sodipodi:nodetypes="ccccc"
           id="path1685-96"
           d="m 79.407704,211.92708 c 0.858335,3.41505 11.772093,4.85755 17.620118,3.27215 l -0.475837,1.34357 c -4.657054,3.03462 -13.61219,1.28112 -17.086179,-2.57419 z"
           style="display:inline;fill:#241c1c;stroke:none;stroke-width:0.361676px;stroke-linecap:butt;stroke-linejoin:miter;stroke-opacity:1" />
        <path
           style="display:inline;fill:#000000;stroke:#000000;stroke-width:0.264583px;stroke-linecap:butt;stroke-linejoin:miter;stroke-opacity:1"
           d="m 51.973595,273.75666 c 3.258035,1.90695 7.658697,2.80668 13.100811,1.8278 l 0.660373,-2.58474 c -7.024181,0.78862 -12.075682,-0.9325 -13.889894,-2.63986 z"
           id="path1614-0"
           sodipodi:nodetypes="ccccc"
           transform="matrix(1.0459594,-0.0888996,0.09519517,0.97678655,-2.5701423,14.670446)" />
        <path
           sodipodi:nodetypes="ccccc"
           id="path1614-5-7"
           d="m 51.760908,267.61143 c 3.258034,1.90695 9.26059,3.08829 14.702715,2.1094 l 0.639227,-2.89848 C 60.078669,267.61097 53.446409,265.922 51.6322,264.21461 Z"
           style="display:inline;fill:#000000;stroke:#000000;stroke-width:0.264583px;stroke-linecap:butt;stroke-linejoin:miter;stroke-opacity:1"
           transform="matrix(1.0459594,-0.0888996,0.09519517,0.97678655,-2.5701423,14.670446)" />
      </g>
    </g>
  </g>
  <g
     transform="translate(-28.537626,4.0830382)"
     inkscape:label="torso"
     inkscape:groupmode="layer"
     id="layer1"
     style="display:inline">
    <rect
       transform="rotate(26.612994)"
       y="-202.42381"
       x="609.90704"
       height="1.1999606"
       width="18.666054"
       id="rect1426-4-1-7-1"
       style="opacity:0.99;fill:#e6e6e6;stroke:none;stroke-width:0.264583;stroke-dasharray:0.264583, 0.529167" />
    <g
       inkscape:transform-center-x="-0.57559787"
       transform="matrix(0.99149525,0.00183866,-0.00179712,0.99549334,1.522637,0.58238946)"
       inkscape:transform-center-y="-33.036036"
       id="g1102">
      <g
         id="g71">
        <path
           sodipodi:nodetypes="cccccccc"
           id="path895-3"
           d="m 96.087885,51.617551 c 3.81242,-4.050854 2.70741,-4.039488 4.549545,-8.885468 l 14.71867,0.0781 c 1.69817,3.383011 -0.43974,7.205007 10.60228,11.639161 18.00272,19.292759 5.3602,12.574054 7.27274,33.351786 l -6.89476,60.76428 -38.175595,0.37798 C 83.532941,76.804966 66.739159,85.33148 96.087885,51.617551 Z"
           style="fill:#ffb380;stroke:none;stroke-width:0.264583px;stroke-linecap:butt;stroke-linejoin:miter;stroke-opacity:1" />
        <g
           transform="translate(-254.40024,-3.7398264)"
           id="g3248" />
      </g>
      <path
         style="display:inline;fill:#462b07;fill-opacity:1;stroke:none;stroke-width:0.264583px;stroke-linecap:butt;stroke-linejoin:miter;stroke-opacity:1"
         d="m 83.700261,66.332452 17.577049,78.678248 15.6938,1.88326 13.81054,-79.724508 -8.57927,-16.530799 -14.22905,7.323773 -10.462529,-4.394263 -3.97576,-4.185012 -1.88325,2.301756 z"
         id="path1004"
         sodipodi:nodetypes="cccccccccc" />
      <path
         style="display:inline;fill:#3d492f;fill-opacity:1;stroke:none;stroke-width:0.238083px;stroke-linecap:butt;stroke-linejoin:miter;stroke-opacity:1"
         d="m 93.500309,53.055041 c 3.014256,6.095661 9.759861,3.559763 13.635321,6.228026 -2.81537,5.603121 0.44879,10.049528 0.32864,10.69625 -0.37129,1.99841 -2.73841,5.687904 -0.0423,13.203299 -0.72792,3.281221 -1.35529,8.927131 -0.004,13.073526 -0.20514,0.582826 -1.07836,8.244008 -0.0856,11.833738 -0.31863,2.84465 -0.1482,7.71977 0.31203,12.871 0.13239,5.01577 -0.35211,6.61819 0.20567,10.46305 0.16436,3.84486 0.32192,6.5397 0.42708,6.95541 0.0786,-0.0363 0.0179,-3.27082 0.13705,-6.99621 0.1191,-3.72539 0.0855,-5.35516 -0.31765,-10.41996 0.51481,-4.65839 0.52921,-8.33411 0.0359,-12.92527 1.06915,-3.78353 0.36719,-10.943913 -0.0145,-11.638331 0.884,-2.906449 1.33211,-8.203979 -0.16649,-13.201011 0.95311,-4.147691 2.62152,-8.833656 0.01,-13.235906 -0.32732,-0.551773 2.77501,-4.272872 0.82499,-10.563774 2.62615,-1.782536 13.08263,-1.238551 13.27305,-7.039191 l 5.63828,1.869705 c 15.34872,5.280018 11.95778,17.15383 6.94482,87.467928 l 8.57949,31.88891 -31.50365,-0.35158 -38.096725,1.04451 6.014644,-33.42731 C 75.139709,88.434526 63.990789,54.44327 91.548382,53.756252 Z"
         id="path1422-5"
         sodipodi:nodetypes="ccscccccccccccscccccccccc" />
      <path
         sodipodi:nodetypes="ccccccccccccc"
         style="fill:#b17910;fill-opacity:1;stroke:none;stroke-width:0.331093px;stroke-linecap:butt;stroke-linejoin:miter;stroke-opacity:1"
         d="m 126.01067,133.77033 2.72214,7.93435 -6.80534,12.09043 1.76939,7.17868 6.39701,1.76319 10.66701,-1.81221 0.3758,-5.4165 -4.70716,-13.46907 4.80753,-8.78168 -6.92386,1.26846 -6.39702,-0.50377 -2.72214,-1.00753 z"
         id="path1073" />
      <path
         style="display:inline;fill:#2b1100;stroke:none;stroke-width:0.27059px;stroke-linecap:butt;stroke-linejoin:miter;stroke-opacity:1"
         d="m 77.012179,138.03607 0.816527,4.51024 61.828604,0.13932 -0.72379,-3.52491 z"
         id="path1656"
         sodipodi:nodetypes="ccccc" />
    </g>
  </g>
  <g
     transform="translate(-28.537626,4.0830382)"
     inkscape:groupmode="layer"
     id="layer7"
     inkscape:label="left_arm"
     style="display:inline">
    <g
       inkscape:transform-center-y="42.811113"
       inkscape:transform-center-x="21.571834"
       transform="matrix(-0.90982279,0.28104808,0.31301923,1.0133212,71.130811,-9.0506164)"
       id="g1052"
       style="display:inline">
      <g
         id="g1056">
        <path
           style="display:inline;fill:#ffb380;stroke:none;stroke-width:0.267179px;stroke-linecap:butt;stroke-linejoin:miter;stroke-opacity:1"
           d="m 42.214321,108.43384 37.630238,25.44153 2.578597,2.64095 0.64608,6.70433 1.901387,-1.94379 1.75793,2.62446 2.42875,2.12871 c 6.6402,-0.10709 3.99668,-4.92298 5.03809,-7.77734 l -7.86839,-8.63696 -33.279162,-29.33956 C 35.36172,78.349057 34.0851,74.524646 19.644018,64.397686 12.477378,75.648147 6.4766031,71.81391 24.299653,93.825543 Z"
           id="path895-3-2-1-1"
           sodipodi:nodetypes="ccccccccccccc" />
        <path
           sodipodi:nodetypes="ccccccc"
           id="path1422-5-0-1-9"
           d="m 18.291042,88.480054 c 4.937352,1.610245 10.661225,16.883466 19.944195,21.838696 l 43.199086,28.89272 c 2.08302,-2.29603 8.644,-3.05106 10.98826,-6.64777 L 52.083184,98.686102 C 41.63039,86.478781 24.475129,59.199425 12.076003,61.550047 -7.4163769,76.241133 17.497678,87.128292 18.291042,88.480054 Z"
           style="display:inline;fill:#3d492f;fill-opacity:1;stroke:none;stroke-width:0.281718px;stroke-linecap:butt;stroke-linejoin:miter;stroke-opacity:1" />
      </g>
    </g>
  </g>
  <g
     transform="translate(-28.537626,4.0830382)"
     inkscape:groupmode="layer"
     id="layer8"
     inkscape:label="right_arm"
     style="display:inline">
    <g
       inkscape:transform-center-y="47.390379"
       inkscape:transform-center-x="-15.465933"
       transform="rotate(1.2436132,218.45638,-158.35264)"
       id="g1030">
      <path
         sodipodi:nodetypes="ccccccccccccc"
         id="path895-3-2-1"
         d="m 160.49109,109.95505 8.15429,36.55511 0.52447,7.0027 -3.57302,6.32911 3.13232,-0.5762 0.36447,3.13772 1.1877,3.00327 c 5.9554,2.93887 5.80452,-2.55278 8.03511,-4.61588 l -3.05242,-11.27792 -1.63238,-42.44925 C 156.96914,76.990084 158.65272,83.922431 146.51059,62.692655 c -11.51544,6.732618 -12.65779,-3.199516 1.91878,25.113377 z"
         style="display:inline;fill:#ffb380;stroke:none;stroke-width:0.267179px;stroke-linecap:butt;stroke-linejoin:miter;stroke-opacity:1" />
      <g
         id="g3121"
         inkscape:transform-center-x="-8.3811682"
         inkscape:transform-center-y="41.842071"
         transform="matrix(1.1017409,0.09519949,-0.07372056,1.0226565,31.939095,-16.841657)">
        <path
           style="fill:#3d492f;fill-opacity:1;stroke:none;stroke-width:0.264583px;stroke-linecap:butt;stroke-linejoin:miter;stroke-opacity:1"
           d="m 104.93463,90.920883 c 8.5659,8.256658 11.14551,16.138097 17.11384,24.040267 l 10.58185,41.52156 c 2.54678,-1.30343 8.27353,0.43825 11.49855,-1.94292 l -9.17681,-48.83226 C 126.80778,92.701211 117.80329,66.321517 103.10979,62.906891 82.052103,64.576719 97.258413,82.97476 104.93463,90.920883 Z"
           id="path1422-5-0-1"
           sodipodi:nodetypes="ccccccc" />
      </g>
    </g>
  </g>
  <g
     transform="translate(-28.537626,4.0830382)"
     inkscape:groupmode="layer"
     id="layer11"
     inkscape:label="head"
     style="display:inline">
    <g
       inkscape:transform-center-y="-20.963035"
       inkscape:transform-center-x="2.9520794"
       transform="rotate(-1.2979727,104.12334,8.8924556)"
       id="g1093">
      <path
         style="fill:#411731;fill-opacity:1;stroke:none;stroke-width:0.254778px;stroke-linecap:butt;stroke-linejoin:miter;stroke-opacity:1"
         d="m 91.198918,11.097191 -3.309169,28.236067 c 0,0 -2.327478,-0.655006 5.804482,1.466354 8.131959,2.121315 19.696599,-16.647465 19.696599,-16.647465 -2.9441,-42.755439 -8.18467,-5.771887 -22.191912,-13.054956 z"
         id="path1000"
         sodipodi:nodetypes="cczcc" />
      <g
         id="g3243"
         inkscape:transform-center-x="0.6427117"
         inkscape:transform-center-y="-21.490079"
         transform="matrix(0.98967956,0.13087924,-0.12975982,0.99821738,-163.75599,-29.030647)">
        <path
           sodipodi:nodetypes="cccccc"
           id="path899-9"
           d="m 258.91161,3.9022574 c -1.09145,9.2163996 4.23078,16.5889186 6.19208,27.7342556 3.13886,8.073735 6.48154,8.337938 14.63016,9.306119 7.51912,-4.07247 7.25056,-3.234327 10.35448,-10.473827 -0.47414,-17.693202 2.13695,-23.3716785 -0.84813,-32.4903465 -19.41664,-8.0335655 -23.25928,0.1351489 -30.32859,5.9237989 z"
           style="fill:#ffb380;stroke:none;stroke-width:0.264583px;stroke-linecap:butt;stroke-linejoin:miter;stroke-opacity:1" />
        <path
           sodipodi:nodetypes="zzzczzzzzzzzzzzzzzzzz"
           d="m 283.69607,27.710936 c 0.93681,1.456029 1.34478,5.301761 1.70312,5.765475 0.35835,0.463714 -3.75615,5.091458 -4.46331,3.034592 -0.70716,-2.056865 -3.7531,-6.26682 -3.51501,-5.461087 -0.79705,1.779951 0.36988,8.388632 0.55842,9.02999 0.18854,0.641358 2.20501,0.642531 2.92894,-0.03213 0.72393,-0.674661 4.94892,-2.886616 5.0595,-3.244781 0.11058,-0.358165 1.89156,-1.288578 1.97375,-2.481889 0.0822,-1.193311 0.40592,-3.4242 0.20683,-6.297183 -0.19909,-2.872983 1.09345,-6.028979 -11.73333,-4.474073 -12.82678,1.554906 -9.73936,5.309893 -9.7853,7.120802 -0.0459,1.810909 2.09855,5.688174 2.55238,6.851409 0.45383,1.163235 3.60109,1.311667 3.7984,1.606408 0.19731,0.294741 5.66807,1.880991 5.70996,1.543444 0.0419,-0.337547 -0.70833,-7.518129 -1.46183,-8.259412 -0.7535,-0.741282 -1.14736,2.171323 -1.77409,4.299228 -0.62673,2.127905 -4.89331,-0.113359 -4.71119,-0.930531 0.18212,-0.817172 -0.50293,-5.486661 -0.0719,-5.991295 0.43103,-0.504634 0.92279,-0.986218 2.12874,-1.609121 1.20595,-0.622903 6.67069,-1.010402 8.16256,-1.159588 1.49186,-0.149186 1.79655,-0.766286 2.73336,0.689742 z"
           style="fill:#552200;stroke:none;stroke-width:0.225992px;stroke-linecap:butt;stroke-linejoin:miter;stroke-opacity:1"
           id="path901-8" />
      </g>
      <ellipse
         style="fill:#ffb380;stroke-width:0.310999"
         id="path128"
         cx="97.803246"
         cy="16.127916"
         rx="3.6250823"
         ry="2.4413819" />
      <ellipse
         style="fill:none;stroke:#552200;stroke-width:1;stroke-miterlimit:4;stroke-dasharray:none;stroke-opacity:1"
         id="path132"
         ry="4.599597"
         rx="4.8215404"
         cy="21.210316"
         cx="100.39257" />
      <ellipse
         id="path132-6"
         style="display:inline;fill:none;stroke:#552200;stroke-width:1;stroke-miterlimit:4;stroke-dasharray:none;stroke-opacity:1"
         ry="4.6356325"
         rx="4.8205857"
         cy="21.136339"
         cx="114.30106" />
      <path
         style="fill:#8d634a;fill-opacity:1;stroke:#552200;stroke-width:0.82529;stroke-linecap:butt;stroke-linejoin:miter;stroke-miterlimit:4;stroke-dasharray:none;stroke-opacity:1"
         d="m 104.75748,18.853753 h 5.20113"
         id="path982" />
      <path
         style="fill:none;stroke:#552200;stroke-width:0.6;stroke-linecap:butt;stroke-linejoin:miter;stroke-miterlimit:4;stroke-dasharray:none;stroke-opacity:1"
         d="M 95.73979,19.359489 90.732631,15.624812"
         id="path994" />
      <path
         style="fill:#651e40;fill-opacity:1;stroke:none;stroke-width:0.272808px;stroke-linecap:butt;stroke-linejoin:miter;stroke-opacity:1"
         d="m 104.85946,10.379432 c 4.81311,-0.02755 13.47752,2.45431 13.59622,3.256224 0.11869,0.801912 0.72861,6.867089 1.92158,9.655969 1.19296,2.78888 3.58677,17.079127 3.58677,17.079127 0,0 3.12282,8.452867 3.25949,9.502173 0.13667,1.049306 3.87862,4.741489 3.87862,4.741489 1.91993,0.693085 0.38154,-45.1542144 -3.08125,-50.9701403 0,0 -6.59339,-6.1292254 -8.3863,-6.9405168 -1.0531,0.5203716 -5.08075,-1.2839012 -17.20397,-0.4418021 -3.68935,3.20949981 -10.907514,6.3103427 -13.565613,14.4215972 -0.202451,0.617785 -1.793419,3.431401 -4.924628,10.505872 -3.735063,8.438781 -6.894085,18.138774 -6.894085,18.138774 l 12.089708,0.234123 c 0,0 1.963413,-25.234931 3.695982,-27.443333 1.732569,-2.208401 7.214366,-1.711998 12.027476,-1.739552 z"
         id="path996"
         sodipodi:nodetypes="zzzczccccsscczzz" />
      <path
         style="fill:#6c3950;fill-opacity:1;stroke:#651e40;stroke-width:0.264583px;stroke-linecap:butt;stroke-linejoin:miter;stroke-opacity:1"
         d="M 91.747289,8.4487361 C 91.303404,9.9283613 85.834936,21.162715 85.1752,21.341232 84.311403,25.607211 83.140075,18.62225 83.140075,18.62225 l 8.448734,-14.4792988 28.055941,6.1754458 1.45373,27.403339 8.93522,5.497231 -9.58348,-39.4345047 -8.88647,5.6851404 z"
         id="path1077"
         sodipodi:nodetypes="cccccccccc" />
      <path
         style="fill:#6c3950;fill-opacity:1;stroke:none;stroke-width:0.264583px;stroke-linecap:butt;stroke-linejoin:miter;stroke-opacity:1"
         d="m 110.48433,-2.5633202 -9.78246,5.1789531 -1.935572,3.8188241 6.277522,1.046253 -2.19713,-4.1850124 8.05615,-5.3882039 6.53908,2.19713162 -3.34801,5.33589108 6.27752,-4.91738983 -5.38821,-3.34801007 z"
         id="path1079" />
    </g>
  </g>
</svg>
