<?xml version="1.0" encoding="UTF-8" standalone="no"?>
<svg
   xmlns:dc="http://purl.org/dc/elements/1.1/"
   xmlns:cc="http://creativecommons.org/ns#"
   xmlns:rdf="http://www.w3.org/1999/02/22-rdf-syntax-ns#"
   xmlns:svg="http://www.w3.org/2000/svg"
   xmlns="http://www.w3.org/2000/svg"
   xmlns:sodipodi="http://sodipodi.sourceforge.net/DTD/sodipodi-0.dtd"
   xmlns:inkscape="http://www.inkscape.org/namespaces/inkscape"
   inkscape:export-ydpi="241.905"
   inkscape:export-xdpi="241.905"
   inkscape:export-filename="C:\Users\260862\Desktop\bartender.png"
   width="33.151161mm"
   height="55.677845mm"
   viewBox="0 0 33.15116 55.677844"
   version="1.1"
   id="svg8"
   inkscape:version="1.0 (4035a4fb49, 2020-05-01)"
   sodipodi:docname="glowa.svg">
  <defs
     id="defs2">
    <clipPath
       clipPathUnits="userSpaceOnUse"
       id="clipPath4045">
      <path
         style="fill:none;stroke:#000000;stroke-width:0.264583px;stroke-linecap:butt;stroke-linejoin:miter;stroke-opacity:1"
         d="M 87.197134,57.598109 C 88.69643,71.309833 86.336415,84.020996 68.797741,92.79695 L 14.399527,175.72756 -18.399396,142.39532 27.465763,50.665004 Z"
         id="path4047"
         sodipodi:nodetypes="cccccc" />
    </clipPath>
  </defs>
  <sodipodi:namedview
     inkscape:guide-bbox="true"
     showguides="true"
     id="base"
     pagecolor="#ffffff"
     bordercolor="#666666"
     borderopacity="1.0"
     inkscape:pageopacity="0.0"
     inkscape:pageshadow="2"
     inkscape:zoom="0.49611004"
     inkscape:cx="-24.674421"
     inkscape:cy="653.47458"
     inkscape:document-units="mm"
     inkscape:current-layer="layer11"
     inkscape:document-rotation="0"
     showgrid="false"
     inkscape:snap-others="true"
     inkscape:object-nodes="true"
     inkscape:snap-global="false"
     inkscape:window-width="1920"
     inkscape:window-height="1017"
     inkscape:window-x="1352"
     inkscape:window-y="-8"
     inkscape:window-maximized="1" />
  <metadata
     id="metadata5">
    <rdf:RDF>
      <cc:Work
         rdf:about="">
        <dc:format>image/svg+xml</dc:format>
        <dc:type
           rdf:resource="http://purl.org/dc/dcmitype/StillImage" />
        <dc:title></dc:title>
      </cc:Work>
    </rdf:RDF>
  </metadata>
  <g
     transform="translate(-92.417766,-2.1069288)"
     inkscape:groupmode="layer"
     id="layer10"
     inkscape:label="right_leg" />
  <g
     transform="translate(-92.417766,-2.1069288)"
     inkscape:groupmode="layer"
     id="layer9"
     inkscape:label="left_leg"
     style="display:inline" />
  <g
     transform="translate(-92.417766,-2.1069288)"
     inkscape:groupmode="layer"
     id="layer8"
     inkscape:label="right_arm"
     style="display:inline" />
  <g
     transform="translate(-92.417766,-2.1069288)"
     inkscape:groupmode="layer"
     id="layer7"
     inkscape:label="left_arm"
     style="display:inline" />
  <g
     transform="translate(-92.417766,-2.1069288)"
     inkscape:label="torso"
     inkscape:groupmode="layer"
     id="layer1"
     style="display:inline">
    <rect
       transform="rotate(26.612994)"
       y="-202.42381"
       x="609.90704"
       height="1.1999606"
       width="18.666054"
       id="rect1426-4-1-7-1"
       style="opacity:0.99;fill:#e6e6e6;stroke:none;stroke-width:0.264583;stroke-dasharray:0.264583, 0.529167" />
  </g>
  <g
     transform="translate(-92.417766,-2.1069288)"
     inkscape:groupmode="layer"
     id="layer11"
     inkscape:label="head"
     style="display:inline">
    <g
       transform="rotate(9.2025338,126.98836,189.57245)"
       inkscape:transform-center-y="-21.316675"
       inkscape:transform-center-x="-0.41853203"
       id="g3243">
      <path
         style="fill:#ffb380;stroke:none;stroke-width:0.264583px;stroke-linecap:butt;stroke-linejoin:miter;stroke-opacity:1"
         d="m 65.127018,18.019208 c -0.545559,9.355868 2.962778,19.460979 4.899106,29.27555 3.138858,8.073735 11.028029,9.879824 16.901418,11.739226 7.519114,-4.07247 12.144229,-9.50857 12.858279,-16.73118 -0.73208,-9.599587 -0.49149,-19.406798 -3.476571,-28.525466 -19.416641,-8.0335659 -24.112925,-1.54678 -31.182232,4.24187 z"
         id="path899-9"
         sodipodi:nodetypes="cccccc" />
      <path
         id="path901-8"
         style="fill:#552200;stroke:none;stroke-width:0.264583px;stroke-linecap:butt;stroke-linejoin:miter;stroke-opacity:1"
         d="m 99.111941,31.736932 -1.01046,8.799856 c -5.760726,-2.046305 -9.748052,-2.487976 -13.761116,-2.262249 -5.435119,1.242014 -9.673464,3.559385 -13.13631,6.297177 l -3.637886,-8.243025 c 1.449137,7.251923 2.876703,14.092853 4.940852,21.496267 11.996279,6.924146 17.095547,6.870007 27.739809,-3.591359 0.0822,-7.535937 -0.538979,-14.942986 -1.134889,-22.496665 z M 84.757186,42.321791 c 5.019519,1.992578 8.347596,1.319629 10.963379,1.489189 -0.640675,1.932061 -0.686746,2.18228 -0.55291,5.08738 -9.760809,-2.309996 -10.92792,-0.494651 -17.88913,1.970453 -1.264275,-1.852225 -2.085995,-2.510431 -3.448885,-4.0189 4.979334,-1.449153 7.826872,-1.957434 10.927546,-4.528122 z"
         sodipodi:nodetypes="ccccccccccccccc" />
      <path
         style="fill:#552200;stroke:none;stroke-width:0.264583px;stroke-linecap:butt;stroke-linejoin:miter;stroke-opacity:1"
         d="m 64.892296,15.902376 c -0.104564,1.43878 -0.576764,2.971485 -0.04888,4.905001 3.937803,2.961802 13.116819,1.655003 32.724175,-2.227606 0.225411,-2.348621 -0.453247,-3.043283 -0.685179,-4.51613 C 95.377057,9.3505788 93.62668,7.0255293 86.938572,6.7044429 79.037166,6.452879 71.837762,9.1958185 64.892335,15.902371 Z"
         id="path906-1"
         sodipodi:nodetypes="cccccc" />
    </g>
  </g>
</svg>
