<?xml version="1.0" encoding="UTF-8" standalone="no"?>
<svg
   xmlns:dc="http://purl.org/dc/elements/1.1/"
   xmlns:cc="http://creativecommons.org/ns#"
   xmlns:rdf="http://www.w3.org/1999/02/22-rdf-syntax-ns#"
   xmlns:svg="http://www.w3.org/2000/svg"
   xmlns="http://www.w3.org/2000/svg"
   xmlns:xlink="http://www.w3.org/1999/xlink"
   xmlns:sodipodi="http://sodipodi.sourceforge.net/DTD/sodipodi-0.dtd"
   xmlns:inkscape="http://www.inkscape.org/namespaces/inkscape"
   sodipodi:docname="noga1.svg"
   inkscape:version="1.0 (4035a4fb49, 2020-05-01)"
   id="svg1182"
   version="1.1"
   viewBox="0 0 24.737895 100.80661"
   height="100.80661mm"
   width="24.737896mm">
  <defs
     id="defs1176">
    <linearGradient
       id="linearGradient1000"
       inkscape:collect="always">
      <stop
         id="stop996"
         offset="0"
         style="stop-color:#2d1f15;stop-opacity:1" />
      <stop
         id="stop998"
         offset="1"
         style="stop-color:#79371c;stop-opacity:1" />
    </linearGradient>
    <linearGradient
       gradientTransform="matrix(0.81294562,-0.07338937,0.06456454,0.94701551,-71.018816,17.931208)"
       inkscape:collect="always"
       xlink:href="#linearGradient1000"
       id="linearGradient3696-2"
       x1="128.3432"
       y1="304.34058"
       x2="163.66811"
       y2="289.54221"
       gradientUnits="userSpaceOnUse" />
  </defs>
  <sodipodi:namedview
     inkscape:window-maximized="1"
     inkscape:window-y="-9"
     inkscape:window-x="-9"
     inkscape:window-height="1001"
     inkscape:window-width="1920"
     inkscape:snap-global="false"
     showgrid="false"
     inkscape:document-rotation="0"
     inkscape:current-layer="layer8"
     inkscape:document-units="mm"
     inkscape:cy="105.09584"
     inkscape:cx="86.432532"
     inkscape:zoom="1.1767295"
     inkscape:pageshadow="2"
     inkscape:pageopacity="0.0"
     borderopacity="1.0"
     bordercolor="#666666"
     pagecolor="#ffffff"
     id="base" />
  <metadata
     id="metadata1179">
    <rdf:RDF>
      <cc:Work
         rdf:about="">
        <dc:format>image/svg+xml</dc:format>
        <dc:type
           rdf:resource="http://purl.org/dc/dcmitype/StillImage" />
        <dc:title></dc:title>
      </cc:Work>
    </rdf:RDF>
  </metadata>
  <g
     transform="translate(-57.810784,-208.24156)"
     inkscape:label="ogon"
     id="layer8"
     inkscape:groupmode="layer" />
  <g
     transform="translate(-57.810784,-208.24156)"
     inkscape:label="noga3"
     id="layer5"
     inkscape:groupmode="layer" />
  <g
     transform="translate(-57.810784,-208.24156)"
     inkscape:label="noga2"
     id="layer4"
     inkscape:groupmode="layer"
     style="display:inline" />
  <g
     transform="translate(-57.810784,-208.24156)"
     inkscape:label="korpus"
     id="layer2"
     inkscape:groupmode="layer" />
  <g
     transform="translate(-57.810784,-208.24156)"
     inkscape:label="glowa"
     id="layer7"
     inkscape:groupmode="layer" />
  <g
     sodipodi:insensitive="true"
     transform="translate(-57.810784,-208.24156)"
     inkscape:label="noga1"
     id="layer3"
     inkscape:groupmode="layer"
     style="display:inline">
    <path
       style="display:inline;fill:url(#linearGradient3696-2);fill-opacity:1;stroke:none;stroke-width:0.233;stroke-linecap:butt;stroke-linejoin:miter;stroke-miterlimit:4;stroke-dasharray:none;stroke-opacity:1"
       d="m 58.396306,220.39389 c -0.450162,7.58574 4.676301,27.97306 5.308069,30.23051 0.631768,2.25746 1.31857,4.15414 2.021796,6.0623 0.703226,1.90813 1.007321,7.0221 1.04492,10.47457 0.03755,3.45247 -1.322008,29.40867 -3.429689,31.54026 -2.107674,2.13159 -4.340689,4.37213 -4.996983,5.79484 -0.656285,1.42273 -0.918801,1.90278 0.472507,3.25833 1.391299,1.35556 7.843464,1.85157 9.79312,0.47375 1.949655,-1.37787 -0.320196,-4.01583 0.904343,-6.38173 0.306134,-0.59147 1.869541,0.0818 2.530508,-2.97383 0.660973,-3.05554 -1.772668,0.0931 -0.995982,-3.76925 0.776678,-3.86226 1.897007,-18.24909 2.55028,-21.26075 0.653264,-3.01167 1.428212,-6.35218 1.718942,-6.8559 1.16291,-2.01491 1.893634,-6.16067 1.845231,-8.56388 -0.04837,-2.40321 1.386392,-5.9839 1.419781,-9.1874 0.03339,-3.20349 3.149244,-13.51678 3.227361,-16.45472 0.07809,-2.93795 1.75594,-7.78619 -0.222577,-14.21699 -1.97851,-6.4308 -3.391362,-8.68793 -6.56443,-9.95563 -3.173084,-1.2677 -10.04684,1.14913 -10.449011,1.25225 0,0 -5.728041,2.94756 -6.178186,10.53331 z"
       id="path3688-02"
       sodipodi:nodetypes="zzzzzzzzssssszzzzzszz"
       inkscape:transform-center-x="1.9200666"
       inkscape:transform-center-y="41.019984" />
  </g>
  <g
     transform="translate(-57.810784,-208.24156)"
     inkscape:label="noga4"
     id="layer6"
     inkscape:groupmode="layer" />
</svg>
