<?xml version="1.0" encoding="UTF-8" standalone="no"?>
<svg
   xmlns:dc="http://purl.org/dc/elements/1.1/"
   xmlns:cc="http://creativecommons.org/ns#"
   xmlns:rdf="http://www.w3.org/1999/02/22-rdf-syntax-ns#"
   xmlns:svg="http://www.w3.org/2000/svg"
   xmlns="http://www.w3.org/2000/svg"
   xmlns:xlink="http://www.w3.org/1999/xlink"
   xmlns:sodipodi="http://sodipodi.sourceforge.net/DTD/sodipodi-0.dtd"
   xmlns:inkscape="http://www.inkscape.org/namespaces/inkscape"
   sodipodi:docname="noga3.svg"
   inkscape:version="1.0 (4035a4fb49, 2020-05-01)"
   id="svg1182"
   version="1.1"
   viewBox="0 0 195.19598 160.98179"
   height="160.9818mm"
   width="195.19598mm">
  <defs
     id="defs1176">
    <linearGradient
       id="linearGradient1000"
       inkscape:collect="always">
      <stop
         id="stop996"
         offset="0"
         style="stop-color:#2d1f15;stop-opacity:1" />
      <stop
         id="stop998"
         offset="1"
         style="stop-color:#79371c;stop-opacity:1" />
    </linearGradient>
    <linearGradient
       gradientTransform="matrix(0.95381807,-0.07005849,0.06877097,0.9716753,-26.932282,10.902687)"
       inkscape:collect="always"
       xlink:href="#linearGradient1000"
       id="linearGradient3696-5"
       x1="113.11502"
       y1="296.87323"
       x2="146.33458"
       y2="275.06613"
       gradientUnits="userSpaceOnUse" />
  </defs>
  <sodipodi:namedview
     inkscape:window-maximized="1"
     inkscape:window-y="-9"
     inkscape:window-x="-9"
     inkscape:window-height="1001"
     inkscape:window-width="1920"
     inkscape:snap-global="false"
     showgrid="false"
     inkscape:document-rotation="0"
     inkscape:current-layer="layer7"
     inkscape:document-units="mm"
     inkscape:cy="322.77624"
     inkscape:cx="277.70413"
     inkscape:zoom="1.1767295"
     inkscape:pageshadow="2"
     inkscape:pageopacity="0.0"
     borderopacity="1.0"
     bordercolor="#666666"
     pagecolor="#ffffff"
     id="base" />
  <metadata
     id="metadata1179">
    <rdf:RDF>
      <cc:Work
         rdf:about="">
        <dc:format>image/svg+xml</dc:format>
        <dc:type
           rdf:resource="http://purl.org/dc/dcmitype/StillImage" />
        <dc:title></dc:title>
      </cc:Work>
    </rdf:RDF>
  </metadata>
  <g
     transform="translate(7.6673221,-150.87847)"
     inkscape:label="ogon"
     id="layer8"
     inkscape:groupmode="layer" />
  <g
     sodipodi:insensitive="true"
     transform="translate(7.6673221,-150.87847)"
     inkscape:label="noga3"
     id="layer5"
     inkscape:groupmode="layer">
    <path
       style="fill:url(#linearGradient3696-5);fill-opacity:1;stroke:none;stroke-width:0.255377px;stroke-linecap:butt;stroke-linejoin:miter;stroke-opacity:1"
       d="m 115.77631,221.26831 c -0.58345,7.77708 9.24031,22.73417 13.56618,29.1485 4.32586,6.41433 2.82349,3.35553 5.07475,6.26205 2.25127,2.90651 3.83959,4.78311 3.85838,8.32421 0.0187,3.5411 -13.39177,23.86978 -15.87891,26.04243 -2.48713,2.17267 -5.12204,4.45627 -5.90205,5.91119 -0.78,1.45495 -1.09135,1.94561 0.5302,3.34478 1.62154,1.39917 9.18387,1.94923 11.48019,0.54863 2.29631,-1.40064 -0.34605,-4.12069 1.10721,-6.53931 0.36332,-0.60466 2.19167,0.0958 2.98913,-3.03376 0.79746,-3.12953 -2.07936,0.0841 -1.1403,-3.87213 0.93906,-3.95617 9.59791,-14.94035 11.76884,-17.26905 2.01663,-2.16318 3.18984,-3.81279 3.53445,-4.32755 1.37842,-2.05905 2.62582,-4.41624 2.58667,-6.88129 -0.0391,-2.46505 -1.37251,-4.58481 -3.47082,-7.87011 -2.09832,-3.2853 -1.77126,-6.6766 -1.65813,-9.68925 0.11314,-3.01267 1.03564,-15.21934 -1.2373,-21.82746 -2.27293,-6.60813 -3.91314,-8.93209 -7.62467,-10.25258 -3.71155,-1.32049 -11.78959,1.11416 -12.26194,1.21734 0,0 -6.73844,2.98631 -7.32188,10.7634 z"
       id="path3688-0"
       sodipodi:nodetypes="zzzzzzzzssssszzzzzszz"
       inkscape:transform-center-x="-6.3543368"
       inkscape:transform-center-y="24.445491" />
  </g>
  <g
     transform="translate(7.6673221,-150.87847)"
     inkscape:label="noga2"
     id="layer4"
     inkscape:groupmode="layer"
     style="display:inline" />
  <g
     transform="translate(7.6673221,-150.87847)"
     inkscape:label="korpus"
     id="layer2"
     inkscape:groupmode="layer" />
  <g
     transform="translate(7.6673221,-150.87847)"
     inkscape:label="glowa"
     id="layer7"
     inkscape:groupmode="layer" />
  <g
     transform="translate(7.6673221,-150.87847)"
     inkscape:label="noga1"
     id="layer3"
     inkscape:groupmode="layer"
     style="display:inline" />
  <g
     transform="translate(7.6673221,-150.87847)"
     inkscape:label="noga4"
     id="layer6"
     inkscape:groupmode="layer" />
</svg>
