<?xml version="1.0" encoding="UTF-8" standalone="no"?>
<svg
   xmlns:dc="http://purl.org/dc/elements/1.1/"
   xmlns:cc="http://creativecommons.org/ns#"
   xmlns:rdf="http://www.w3.org/1999/02/22-rdf-syntax-ns#"
   xmlns:svg="http://www.w3.org/2000/svg"
   xmlns="http://www.w3.org/2000/svg"
   xmlns:xlink="http://www.w3.org/1999/xlink"
   xmlns:sodipodi="http://sodipodi.sourceforge.net/DTD/sodipodi-0.dtd"
   xmlns:inkscape="http://www.inkscape.org/namespaces/inkscape"
   sodipodi:docname="noga4.svg"
   inkscape:version="1.0 (4035a4fb49, 2020-05-01)"
   id="svg1182"
   version="1.1"
   viewBox="0 0 30.870662 103.8628"
   height="103.8628mm"
   width="30.870663mm">
  <defs
     id="defs1176">
    <linearGradient
       id="linearGradient1000"
       inkscape:collect="always">
      <stop
         id="stop996"
         offset="0"
         style="stop-color:#2d1f15;stop-opacity:1" />
      <stop
         id="stop998"
         offset="1"
         style="stop-color:#79371c;stop-opacity:1" />
    </linearGradient>
    <linearGradient
       gradientUnits="userSpaceOnUse"
       y2="293.78329"
       x2="149.28537"
       y1="297.59763"
       x1="135.40596"
       id="linearGradient3696"
       xlink:href="#linearGradient1000"
       inkscape:collect="always"
       gradientTransform="rotate(-0.69132389,-403.19494,530.57004)" />
  </defs>
  <sodipodi:namedview
     inkscape:window-maximized="1"
     inkscape:window-y="-9"
     inkscape:window-x="-9"
     inkscape:window-height="1001"
     inkscape:window-width="1920"
     inkscape:snap-global="false"
     showgrid="false"
     inkscape:document-rotation="0"
     inkscape:current-layer="layer8"
     inkscape:document-units="mm"
     inkscape:cy="96.700794"
     inkscape:cx="19.478051"
     inkscape:zoom="1.1767295"
     inkscape:pageshadow="2"
     inkscape:pageopacity="0.0"
     borderopacity="1.0"
     bordercolor="#666666"
     pagecolor="#ffffff"
     id="base" />
  <metadata
     id="metadata1179">
    <rdf:RDF>
      <cc:Work
         rdf:about="">
        <dc:format>image/svg+xml</dc:format>
        <dc:type
           rdf:resource="http://purl.org/dc/dcmitype/StillImage" />
        <dc:title></dc:title>
      </cc:Work>
    </rdf:RDF>
  </metadata>
  <g
     transform="translate(-129.51562,-207.99747)"
     inkscape:label="ogon"
     id="layer8"
     inkscape:groupmode="layer" />
  <g
     transform="translate(-129.51562,-207.99747)"
     inkscape:label="noga3"
     id="layer5"
     inkscape:groupmode="layer" />
  <g
     transform="translate(-129.51562,-207.99747)"
     inkscape:label="noga2"
     id="layer4"
     inkscape:groupmode="layer"
     style="display:inline" />
  <g
     transform="translate(-129.51562,-207.99747)"
     inkscape:label="korpus"
     id="layer2"
     inkscape:groupmode="layer" />
  <g
     transform="translate(-129.51562,-207.99747)"
     inkscape:label="glowa"
     id="layer7"
     inkscape:groupmode="layer" />
  <g
     transform="translate(-129.51562,-207.99747)"
     inkscape:label="noga1"
     id="layer3"
     inkscape:groupmode="layer"
     style="display:inline" />
  <g
     sodipodi:insensitive="true"
     transform="translate(-129.51562,-207.99747)"
     inkscape:label="noga4"
     id="layer6"
     inkscape:groupmode="layer">
    <path
       inkscape:transform-center-y="40.624378"
       inkscape:transform-center-x="-3.7336696"
       sodipodi:nodetypes="zzzzzzzzssssszzzzzszz"
       id="path3688"
       d="m 129.60301,219.65887 c -1.08701,7.9322 8.24803,23.87297 12.36927,30.71622 4.12123,6.84325 2.09106,4.19138 4.26236,7.31048 2.17129,3.1191 1.15091,6.83376 0.95288,10.46331 -0.19807,3.62953 -6.3279,30.62782 -9.05758,32.6983 -2.72967,2.07049 -5.62041,4.24538 -6.52402,5.68733 -0.90361,1.44196 -1.25876,1.92522 0.34786,3.46041 1.60662,1.53518 9.46658,2.57227 11.94962,1.28093 2.48303,-1.29139 -0.10796,-4.24391 1.55765,-6.63114 0.4164,-0.59681 2.28184,0.23531 3.30659,-2.92138 1.02475,-3.15673 -2.17566,-0.044 -0.95229,-4.03895 1.22335,-3.99486 5.82804,-18.23662 6.84027,-21.34788 1.01222,-3.11126 2.19658,-6.55821 2.58793,-7.06409 1.56538,-2.02347 3.01232,-4.36067 3.12297,-6.88891 0.11067,-2.52824 -0.19437,-5.34172 -2.18273,-8.83936 -1.98837,-3.49764 -0.42685,-8.42978 -0.1236,-11.5096 0.30322,-3.07982 2.01641,-15.52956 0.05,-22.44283 -1.96642,-6.91329 -3.53568,-9.39723 -7.32872,-10.98264 -3.79306,-1.58541 -12.37478,0.40346 -12.87417,0.47961 0,0 -7.21731,2.63801 -8.30429,10.57023 z"
       style="fill:url(#linearGradient3696);fill-opacity:1;stroke:none;stroke-width:0.265;stroke-linecap:butt;stroke-linejoin:miter;stroke-miterlimit:4;stroke-dasharray:none;stroke-opacity:1" />
  </g>
</svg>
