<?xml version="1.0" encoding="UTF-8" standalone="no"?>
<svg
   xmlns:dc="http://purl.org/dc/elements/1.1/"
   xmlns:cc="http://creativecommons.org/ns#"
   xmlns:rdf="http://www.w3.org/1999/02/22-rdf-syntax-ns#"
   xmlns:svg="http://www.w3.org/2000/svg"
   xmlns="http://www.w3.org/2000/svg"
   xmlns:sodipodi="http://sodipodi.sourceforge.net/DTD/sodipodi-0.dtd"
   xmlns:inkscape="http://www.inkscape.org/namespaces/inkscape"
   sodipodi:docname="korpus.svg"
   inkscape:version="1.0 (4035a4fb49, 2020-05-01)"
   id="svg8"
   version="1.1"
   viewBox="0 0 90.637649 144.51845"
   height="144.51845mm"
   width="90.63765mm"
   inkscape:export-filename="C:\Users\260862\Desktop\bartender.png"
   inkscape:export-xdpi="241.905"
   inkscape:export-ydpi="241.905">
  <defs
     id="defs2">
    <clipPath
       id="clipPath4045"
       clipPathUnits="userSpaceOnUse">
      <path
         sodipodi:nodetypes="cccccc"
         id="path4047"
         d="M 87.197134,57.598109 C 88.69643,71.309833 86.336415,84.020996 68.797741,92.79695 L 14.399527,175.72756 -18.399396,142.39532 27.465763,50.665004 Z"
         style="fill:none;stroke:#000000;stroke-width:0.264583px;stroke-linecap:butt;stroke-linejoin:miter;stroke-opacity:1" />
    </clipPath>
  </defs>
  <sodipodi:namedview
     inkscape:window-maximized="1"
     inkscape:window-y="-8"
     inkscape:window-x="1352"
     inkscape:window-height="1017"
     inkscape:window-width="1920"
     inkscape:snap-global="false"
     inkscape:object-nodes="true"
     inkscape:snap-others="true"
     showgrid="false"
     inkscape:document-rotation="0"
     inkscape:current-layer="layer1"
     inkscape:document-units="mm"
     inkscape:cy="504.29102"
     inkscape:cx="-530.60481"
     inkscape:zoom="0.49611004"
     inkscape:pageshadow="2"
     inkscape:pageopacity="0.0"
     borderopacity="1.0"
     bordercolor="#666666"
     pagecolor="#ffffff"
     id="base"
     showguides="true"
     inkscape:guide-bbox="true" />
  <metadata
     id="metadata5">
    <rdf:RDF>
      <cc:Work
         rdf:about="">
        <dc:format>image/svg+xml</dc:format>
        <dc:type
           rdf:resource="http://purl.org/dc/dcmitype/StillImage" />
        <dc:title></dc:title>
      </cc:Work>
    </rdf:RDF>
  </metadata>
  <g
     transform="translate(-67.46445,-45.914646)"
     inkscape:label="right_leg"
     id="layer10"
     inkscape:groupmode="layer"
     style="display:inline" />
  <g
     transform="translate(-67.46445,-45.914646)"
     style="display:inline"
     inkscape:label="left_leg"
     id="layer9"
     inkscape:groupmode="layer" />
  <g
     transform="translate(-67.46445,-45.914646)"
     style="display:inline"
     inkscape:label="right_arm"
     id="layer8"
     inkscape:groupmode="layer" />
  <g
     transform="translate(-67.46445,-45.914646)"
     style="display:inline"
     inkscape:label="left_arm"
     id="layer7"
     inkscape:groupmode="layer" />
  <g
     transform="translate(-67.46445,-45.914646)"
     style="display:inline"
     id="layer1"
     inkscape:groupmode="layer"
     inkscape:label="torso">
    <path
       style="fill:#ffb380;stroke:none;stroke-width:0.264583px;stroke-linecap:butt;stroke-linejoin:miter;stroke-opacity:1"
       d="m 97.798289,58.028442 c 3.812421,-4.050854 3.636791,-7.056378 5.478921,-11.902358 l 11.92662,-0.211438 c 1.69817,3.383011 1.99416,8.286887 6.62528,11.570533 19.44342,21.24971 19.32678,13.033116 7.14703,94.474231 l -38.175594,0.37798 C 77.593446,78.106461 69.049729,76.07386 97.798289,58.028442 Z"
       id="path895-3"
       sodipodi:nodetypes="ccccccc" />
    <rect
       style="opacity:0.99;fill:#e6e6e6;stroke:none;stroke-width:0.264583;stroke-dasharray:0.264583, 0.529167"
       id="rect1426-4-1-7-1"
       width="18.666054"
       height="1.1999606"
       x="609.90704"
       y="-202.42381"
       transform="rotate(26.612994)" />
    <path
       style="fill:#374548;stroke:none;stroke-width:0.264583px;stroke-linecap:butt;stroke-linejoin:miter;stroke-opacity:1"
       d="m 90.663688,73.330925 6.133131,77.864105 29.599031,0.79998 0.53332,-79.997374 -18.93272,26.132474 z"
       id="path922"
       sodipodi:nodetypes="cccccc" />
    <path
       id="path1047"
       d="m 89.330399,149.72842 0.133329,6.13313 39.865362,-0.13333 1.59994,-7.06644 z"
       style="fill:#000000;stroke:none;stroke-width:0.264583px;stroke-linecap:butt;stroke-linejoin:miter;stroke-opacity:1" />
    <path
       style="fill:#501616;stroke:none;stroke-width:0.264583px;stroke-linecap:butt;stroke-linejoin:miter;stroke-opacity:1"
       d="m 67.46445,174.39427 c 7.577121,7.95025 17.668248,12.75799 30.932318,13.59955 12.689362,-27.77953 0.533315,-58.66474 0.799973,-87.997104 L 97.063479,83.730583 97.863452,57.864766 c -6.067508,4.529021 -17.050796,-0.04596 -21.149627,12.357767 -4.211459,17.802576 0.531863,35.267677 3.687459,51.061057 -1.930093,30.42558 -4.637182,44.39496 -12.936834,53.11068 z"
       id="path905"
       sodipodi:nodetypes="cccccccc" />
    <path
       sodipodi:nodetypes="cccccccc"
       id="path905-8"
       d="m 158.1021,169.28988 c -7.57713,7.95025 -16.91778,20.30165 -30.18185,21.14322 -12.68935,-27.77954 -7.69468,-62.4373 -7.96134,-91.769672 l 2.13327,-16.266134 -0.79998,-25.865817 c 6.06751,4.529021 17.80502,-0.04596 21.90385,12.357767 4.21146,17.802579 -0.15475,37.153236 -3.31035,52.946616 3.66296,24.65249 10.02605,39.09277 18.2164,47.45402 z"
       style="display:inline;fill:#501616;stroke:none;stroke-width:0.264583px;stroke-linecap:butt;stroke-linejoin:miter;stroke-opacity:1" />
    <path
       sodipodi:nodetypes="ccccccccccc"
       id="path903"
       d="M 109.84485,90.841307 C 102.87101,83.088648 99.886652,74.766068 97.845244,66.30878 c -0.30178,-4.724652 0.73096,-6.780293 1.11515,-10.133001 l -17.47279,6.639647 c 2.24384,1.990855 4.49237,3.967635 6.49129,6.69325 6.37787,12.527652 14.100246,18.434478 21.599286,38.665394 9.10557,-28.79083 14.97442,-30.454387 19.19938,-36.265475 3.17324,-3.306453 6.442,-6.230895 9.86633,-8.533054 L 119.396,55.486259 c 0.75859,3.483632 2.55477,6.872814 1.91514,10.822519 -1.9073,7.858376 -5.30152,15.964572 -11.46629,24.532529 z"
       style="display:inline;fill:#e6e6e6;stroke:none;stroke-width:0.264583px;stroke-linecap:butt;stroke-linejoin:miter;stroke-opacity:1" />
  </g>
  <g
     transform="translate(-67.46445,-45.914646)"
     style="display:inline"
     inkscape:label="head"
     id="layer11"
     inkscape:groupmode="layer" />
</svg>
