<?xml version="1.0" encoding="UTF-8" standalone="no"?>
<svg
   xmlns:dc="http://purl.org/dc/elements/1.1/"
   xmlns:cc="http://creativecommons.org/ns#"
   xmlns:rdf="http://www.w3.org/1999/02/22-rdf-syntax-ns#"
   xmlns:svg="http://www.w3.org/2000/svg"
   xmlns="http://www.w3.org/2000/svg"
   xmlns:sodipodi="http://sodipodi.sourceforge.net/DTD/sodipodi-0.dtd"
   xmlns:inkscape="http://www.inkscape.org/namespaces/inkscape"
   sodipodi:docname="korpus.svg"
   inkscape:version="1.0 (4035a4fb49, 2020-05-01)"
   id="svg8"
   version="1.1"
   viewBox="0 0 149.84589 280.44205"
   height="280.44205mm"
   width="149.84589mm"
   inkscape:export-filename="C:\Users\260862\Desktop\bartender.png"
   inkscape:export-xdpi="241.905"
   inkscape:export-ydpi="241.905">
  <defs
     id="defs2">
    <clipPath
       id="clipPath4045"
       clipPathUnits="userSpaceOnUse">
      <path
         sodipodi:nodetypes="cccccc"
         id="path4047"
         d="M 87.197134,57.598109 C 88.69643,71.309833 86.336415,84.020996 68.797741,92.79695 L 14.399527,175.72756 -18.399396,142.39532 27.465763,50.665004 Z"
         style="fill:none;stroke:#000000;stroke-width:0.264583px;stroke-linecap:butt;stroke-linejoin:miter;stroke-opacity:1" />
    </clipPath>
  </defs>
  <sodipodi:namedview
     inkscape:window-maximized="1"
     inkscape:window-y="-9"
     inkscape:window-x="-9"
     inkscape:window-height="1001"
     inkscape:window-width="1920"
     inkscape:snap-global="false"
     inkscape:object-nodes="true"
     inkscape:snap-others="true"
     showgrid="false"
     inkscape:document-rotation="0"
     inkscape:current-layer="layer4"
     inkscape:document-units="mm"
     inkscape:cy="540.3669"
     inkscape:cx="239.98675"
     inkscape:zoom="0.55025325"
     inkscape:pageshadow="2"
     inkscape:pageopacity="0.0"
     borderopacity="1.0"
     bordercolor="#666666"
     pagecolor="#ffffff"
     id="base"
     showguides="true"
     inkscape:guide-bbox="true" />
  <metadata
     id="metadata5">
    <rdf:RDF>
      <cc:Work
         rdf:about="">
        <dc:format>image/svg+xml</dc:format>
        <dc:type
           rdf:resource="http://purl.org/dc/dcmitype/StillImage" />
        <dc:title></dc:title>
      </cc:Work>
    </rdf:RDF>
  </metadata>
  <g
     transform="translate(-20.92422,-13.084804)"
     inkscape:groupmode="layer"
     id="layer4"
     inkscape:label="head"
     style="display:inline" />
  <g
     transform="translate(-20.92422,-13.084804)"
     inkscape:groupmode="layer"
     id="layer5"
     inkscape:label="left_leg"
     style="display:inline" />
  <g
     transform="translate(-20.92422,-13.084804)"
     inkscape:groupmode="layer"
     id="layer6"
     inkscape:label="right_leg"
     style="display:inline" />
  <g
     transform="translate(-20.92422,-13.084804)"
     inkscape:groupmode="layer"
     id="layer2"
     inkscape:label="left_arm"
     style="display:inline" />
  <g
     transform="translate(-20.92422,-13.084804)"
     inkscape:groupmode="layer"
     id="layer3"
     inkscape:label="right_arm"
     style="display:inline" />
  <g
     sodipodi:insensitive="true"
     transform="translate(-20.92422,-13.084804)"
     id="layer1"
     inkscape:groupmode="layer"
     inkscape:label="torso"
     style="display:inline">
    <g
       transform="rotate(-0.46696054,110.26256,161.5273)"
       inkscape:transform-center-y="-46.920375"
       inkscape:transform-center-x="1.5798019"
       id="g894">
      <g
         inkscape:transform-center-y="-40.391183"
         id="g1295"
         transform="matrix(1,0,0,1.0592441,0,-3.236421)">
        <g
           id="g53"
           inkscape:transform-center-y="-27.202583">
          <path
             inkscape:transform-center-y="-40.551579"
             inkscape:transform-center-x="0.87653817"
             sodipodi:nodetypes="ccccccc"
             id="path895-3-0-6"
             d="M 94.899966,68.227934 C 106.63173,67.382523 103.91,58.624673 104.1842,55.997142 l 12.37336,-0.326819 c 0.0727,3.711855 -0.75496,11.709471 9.9099,12.938181 21.794,13.583104 -14.23888,41.805376 7.73166,90.533486 L 86.218626,158.76576 C 108.83709,110.17839 74.636411,84.19924 94.899966,68.227934 Z"
             style="fill:#ffb380;stroke:none;stroke-width:0.264583px;stroke-linecap:butt;stroke-linejoin:miter;stroke-opacity:1" />
          <path
             inkscape:transform-center-y="-22.772092"
             inkscape:transform-center-x="-0.03958483"
             sodipodi:nodetypes="ccccc"
             id="path1652-5-1"
             d="m 90.538556,125.92553 c 13.402664,2.05689 23.088374,3.85962 40.351864,0.94345 l 1.03468,-5.39619 c -11.05236,2.54773 -29.32183,1.60253 -41.168088,-0.69765 z"
             style="fill:#cccccc;stroke:none;stroke-width:0.244845px;stroke-linecap:butt;stroke-linejoin:miter;stroke-opacity:1" />
        </g>
      </g>
      <path
         sodipodi:nodetypes="ssssscsssssssssssssssscssccccsssssssssssssssssss"
         style="fill:#800033;fill-opacity:1;stroke-width:0.498223"
         d="m 418.13366,482.80964 c -11.50484,-0.36735 -31.55462,-2.20834 -45.56531,-4.18384 -6.65576,-0.93846 -23.77664,-3.87585 -23.98125,-4.1144 -0.0447,-0.0522 -3.43048,-13.44652 -7.5239,-29.76526 -9.6703,-38.55144 -13.79773,-57.2464 -16.8728,-76.42448 l -0.97219,-6.06316 -1.07463,0.26827 c -0.59104,0.14755 -2.28881,1.20463 -3.7728,2.34907 -1.484,1.14444 -2.84069,1.99273 -3.01487,1.88508 -0.17418,-0.10765 -0.57155,-1.10601 -0.88305,-2.21857 -0.77046,-2.75182 -3.66705,-5.61579 -6.99259,-6.91384 -2.96829,-1.1586 -8.22279,-1.35104 -11.09207,-0.40623 -2.64479,0.87089 -3.79908,0.29487 -5.96126,-2.97486 -5.03309,-7.61121 -6.91898,-9.1349 -13.37076,-10.8028 -5.10268,-1.31914 -6.43787,-1.98305 -7.50378,-3.7312 -1.10151,-1.80653 -1.04575,-4.0462 0.1797,-7.21877 0.55565,-1.43851 1.22991,-4.52286 1.49836,-6.85411 1.95715,-16.99623 7.9578,-30.516 18.07575,-40.72558 5.51377,-5.5637 10.37587,-9.0842 23.01765,-16.66639 3.41105,-2.04586 7.15561,-4.31943 8.32123,-5.05238 1.94897,-1.22553 2.64711,-1.38737 8.68564,-2.01346 6.75423,-0.70029 8.52573,-0.62743 11.95081,0.49154 l 1.98645,0.64897 3.57811,-1.7319 c 3.34817,-1.62061 10.7047,-2.58738 12.75607,-2.58738 1.26705,0 12.76307,72.548 18.38847,79.90783 9.42601,14.06687 73.83064,20.86079 87.53819,2.59628 4.21041,-5.89074 14.58176,-53.53232 14.08312,-59.73839 7.46246,-21.59041 -1.60703,-19.14675 8.2783,-18.8932 6.99375,0.23433 24.26689,3.11108 26.24845,3.3587 11.98669,1.49783 22.14274,6.11897 28.23316,12.84646 3.95939,4.37353 8.14247,11.64874 10.08731,17.54381 0.71677,2.17264 2.02275,4.30885 6.17069,10.09352 5.40184,7.53333 4.17466,11.44817 -4.93567,15.7454 -2.89863,1.36725 -4.94817,2.60381 -5.2498,3.16741 -0.7806,1.45858 -0.54628,3.80497 0.68784,6.88776 0.62679,1.5657 1.04453,2.94182 0.9283,3.05804 -0.11622,0.11623 -1.35854,0.26829 -2.76071,0.33791 -4.3932,0.21815 -8.01554,3.08448 -10.70847,8.47353 -0.99516,1.99148 -1.25948,3.07864 -1.25948,5.18025 0,4.69612 -0.55746,5.2911 -6.46838,6.90378 -4.72873,1.29013 -7.02049,2.48334 -9.4265,4.90792 -3.45799,3.4847 -4.4318,5.77337 -5.57621,13.1054 -2.41098,15.44657 -6.06353,30.92941 -15.111,64.05409 -5.76262,21.09822 -8.73305,32.96007 -9.41677,37.60422 -0.16192,1.09983 -0.51209,2.17521 -0.77815,2.38975 -0.45181,0.3643 -9.29532,2.07076 -15.5309,2.99688 -13.65613,2.02823 -34.99035,2.91375 -54.8903,2.27833 z"
         id="path275"
         transform="scale(0.26458333)" />
      <path
         sodipodi:nodetypes="sscsssssscsssssssssssccsssssssssssssss"
         id="path915"
         d="m 396.07878,480.92187 c -13.92646,-1.4157 -28.02785,-3.33825 -39.23797,-5.3496 l -7.64183,-1.37112 -7.00372,-4.87865 c -14.81335,-10.31868 -18.7234,-76.99018 -21.26739,-92.26785 -2.48001,-14.89347 -2.9997,-11.61625 -7.23074,-8.30668 -2.93999,2.2997 -3.7641,2.1921 -5.04157,-0.65825 -0.59495,-1.32748 -2.49436,-3.37077 -4.22091,-4.54065 -2.70277,-1.83133 -4.10849,-2.11657 -10.11135,-2.05173 l -6.97216,0.0753 -3.99797,-5.19567 c -4.29654,-5.58368 -6.61311,-7.15105 -12.91411,-8.73766 -5.03583,-1.26804 -13.28076,-3.43602 -12.65946,-6.72277 0.25453,-1.34651 2.14267,-6.71716 3.12315,-11.93476 2.94694,-15.68214 6.24548,-23.80491 13.68663,-33.70383 5.01541,-6.67197 11.28383,-15.39236 25.42932,-24.18817 10.06453,-6.25823 22.7496,-8.56351 29.16145,-9.41004 4.8335,-0.63815 7.95652,-0.63223 10.39902,0.0197 3.06265,0.81747 4.26587,0.62596 9.80881,-1.56116 3.47487,-1.37111 -1.36459,-1.8859 -0.13508,-1.90252 2.6983,-0.0365 5.28083,80.33146 22.36654,89.66537 28.03552,15.31578 77.77853,10.69243 102.35033,0.77119 7.79722,-6.92982 17.41796,-65.42628 21.4373,-86.46211 18.39788,0.81544 22.32593,3.69628 29.76021,5.9925 11.73184,3.62359 31.02772,11.58548 36.67556,26.06882 1.63632,4.19618 6.62322,12.12256 6.62322,12.12256 -0.73206,3.61239 -0.74027,6.29693 -0.74027,7.12243 0,2.47604 -3.02834,5.53087 -8.24801,8.32016 -5.54941,2.96549 -6.27676,4.2579 -4.99954,8.88361 1.03278,3.74042 0.66572,4.72028 -1.76824,4.72028 -4.99598,0 -11.31433,7.23231 -11.31433,12.95097 0,4.45838 -0.77759,5.3037 -6.68799,7.27055 -9.85369,3.2791 -11.48767,8.32159 -13.37533,19.89427 -2.12066,13.00109 0.86373,29.13575 -8.12736,63.2543 -5.02475,19.0674 -15.75757,34.32815 -16.07652,36.13398 -0.67507,3.82207 -9.33741,2.81643 -24.2535,5.17272 -12.93322,2.04306 -59.78422,2.53386 -76.79619,0.8045 z"
         style="fill:#9b2b41;fill-opacity:1;stroke-width:0.879053"
         transform="scale(0.26458333)" />
      <path
         sodipodi:nodetypes="ssscsscssssscsssscsssscs"
         id="path917"
         d="m 514.96605,655.31824 c -9.36851,-7.45149 -14.95979,-11.52041 -25.67211,-9.16656 -5.40046,1.18666 -8.2794,0.82408 -10.8885,-1.37134 l -1.84316,-1.55092 -2.98482,2.29153 c -12.32523,9.4624 -29.22754,9.2751 -43.46019,-0.4816 l -2.61836,-1.79492 -4.82893,2.41142 c -16.70541,8.34221 -31.99951,8.4778 -48.28182,0.42806 -6.79222,-3.35798 -6.85331,-3.37439 -9.3091,-2.49986 -3.39088,1.2075 -4.37977,1.16278 -14.94145,-0.67572 -18.46772,-3.21474 -26.26278,-1.13416 -34.4303,9.18979 l -2.31384,2.92475 -4.25143,-8.51021 c -6.42438,-12.85987 -0.55039,-43.88517 0.63626,-55.36603 3.68061,-35.6101 16.36157,-63.68219 33.42737,-93.09104 4.02859,-6.94232 2.15429,-6.5211 18.47046,-4.15093 28.31704,4.11347 47.95117,5.61906 73.23162,5.61555 20.45368,-0.003 29.13909,-0.50612 48.06698,-2.78527 9.75171,-1.17423 10.57495,-1.19197 11.26894,-0.24288 1.42059,1.94277 9.43234,18.02592 11.97665,24.04245 8.57463,20.27647 17.8687,44.23718 19.89068,75.25607 1.13022,17.33859 6.96009,62.39615 -4.87348,59.89314 -0.20664,-0.003 -4.73547,0.85623 -6.27147,-0.36548 z"
         style="fill:#9b2b41;fill-opacity:1;stroke-width:0.621584"
         transform="scale(0.26458333)" />
      <path
         sodipodi:nodetypes="ccc"
         id="path919"
         d="M 99.670763,67.815528 111.24702,103.11901 122.82328,68.143931"
         style="fill:none;stroke:#fec700;stroke-width:0.264583px;stroke-linecap:butt;stroke-linejoin:miter;stroke-opacity:1" />
      <path
         d="m 113.50479,103.40637 a 2.2167304,2.3809326 0 0 1 -1.55339,2.27183 2.2167304,2.3809326 0 0 1 -2.48307,-0.91218 l 1.81973,-1.35965 z"
         sodipodi:arc-type="slice"
         sodipodi:end="2.5337992"
         sodipodi:start="0"
         sodipodi:ry="2.3809326"
         sodipodi:rx="2.2167304"
         sodipodi:cy="103.40637"
         sodipodi:cx="111.28806"
         sodipodi:type="arc"
         id="path921"
         style="fill:#217b17;fill-opacity:0.649805;stroke:#fec700;stroke-width:0.264999;stroke-opacity:1" />
    </g>
  </g>
</svg>
