<?xml version="1.0" encoding="UTF-8" standalone="no"?>
<svg
   xmlns:dc="http://purl.org/dc/elements/1.1/"
   xmlns:cc="http://creativecommons.org/ns#"
   xmlns:rdf="http://www.w3.org/1999/02/22-rdf-syntax-ns#"
   xmlns:svg="http://www.w3.org/2000/svg"
   xmlns="http://www.w3.org/2000/svg"
   xmlns:sodipodi="http://sodipodi.sourceforge.net/DTD/sodipodi-0.dtd"
   xmlns:inkscape="http://www.inkscape.org/namespaces/inkscape"
   inkscape:export-ydpi="241.905"
   inkscape:export-xdpi="241.905"
   inkscape:export-filename="C:\Users\260862\Desktop\bartender.png"
   width="40.036381mm"
   height="54.369698mm"
   viewBox="0 0 40.036381 54.369697"
   version="1.1"
   id="svg8"
   inkscape:version="1.0 (4035a4fb49, 2020-05-01)"
   sodipodi:docname="glowa.svg">
  <defs
     id="defs2">
    <clipPath
       clipPathUnits="userSpaceOnUse"
       id="clipPath4045">
      <path
         style="fill:none;stroke:#000000;stroke-width:0.264583px;stroke-linecap:butt;stroke-linejoin:miter;stroke-opacity:1"
         d="M 87.197134,57.598109 C 88.69643,71.309833 86.336415,84.020996 68.797741,92.79695 L 14.399527,175.72756 -18.399396,142.39532 27.465763,50.665004 Z"
         id="path4047"
         sodipodi:nodetypes="cccccc" />
    </clipPath>
  </defs>
  <sodipodi:namedview
     inkscape:guide-bbox="true"
     showguides="true"
     id="base"
     pagecolor="#ffffff"
     bordercolor="#666666"
     borderopacity="1.0"
     inkscape:pageopacity="0.0"
     inkscape:pageshadow="2"
     inkscape:zoom="0.49611004"
     inkscape:cx="-93.808807"
     inkscape:cy="588.88897"
     inkscape:document-units="mm"
     inkscape:current-layer="layer1"
     inkscape:document-rotation="0"
     showgrid="false"
     inkscape:snap-others="true"
     inkscape:object-nodes="true"
     inkscape:snap-global="false"
     inkscape:window-width="1920"
     inkscape:window-height="1017"
     inkscape:window-x="1352"
     inkscape:window-y="-8"
     inkscape:window-maximized="1" />
  <metadata
     id="metadata5">
    <rdf:RDF>
      <cc:Work
         rdf:about="">
        <dc:format>image/svg+xml</dc:format>
        <dc:type
           rdf:resource="http://purl.org/dc/dcmitype/StillImage" />
        <dc:title></dc:title>
      </cc:Work>
    </rdf:RDF>
  </metadata>
  <g
     transform="translate(-90.764838,-6.0094914)"
     style="display:inline"
     inkscape:groupmode="layer"
     id="layer10"
     inkscape:label="right_leg">
    <g
       style="display:inline"
       transform="rotate(11.829413,-293.38348,193.63644)"
       inkscape:transform-center-y="63.430107"
       inkscape:transform-center-x="24.683707"
       id="g3238-3-6" />
  </g>
  <g
     transform="translate(-90.764838,-6.0094914)"
     inkscape:groupmode="layer"
     id="layer9"
     inkscape:label="left_leg"
     style="display:inline" />
  <g
     transform="translate(-90.764838,-6.0094914)"
     inkscape:groupmode="layer"
     id="layer8"
     inkscape:label="right_arm"
     style="display:inline" />
  <g
     transform="translate(-90.764838,-6.0094914)"
     inkscape:groupmode="layer"
     id="layer7"
     inkscape:label="left_arm"
     style="display:inline" />
  <g
     transform="translate(-90.764838,-6.0094914)"
     inkscape:label="torso"
     inkscape:groupmode="layer"
     id="layer1"
     style="display:inline">
    <rect
       transform="rotate(26.612994)"
       y="-202.42381"
       x="609.90704"
       height="1.1999606"
       width="18.666054"
       id="rect1426-4-1-7-1"
       style="opacity:0.99;fill:#e6e6e6;stroke:none;stroke-width:0.264583;stroke-dasharray:0.264583, 0.529167" />
  </g>
  <g
     transform="translate(-90.764838,-6.0094914)"
     inkscape:groupmode="layer"
     id="layer11"
     inkscape:label="head"
     style="display:inline">
    <path
       style="fill:#2b1100;stroke:none;stroke-width:0.264583px;stroke-linecap:butt;stroke-linejoin:miter;stroke-opacity:1"
       d="m 92.769363,29.414676 c -0.164429,2.721434 -1.277904,7.481455 -1.618857,9.982235 -0.04836,0.354699 0.670042,-1.557046 0.622457,-1.201379 -0.409924,3.063898 -1.037857,7.655225 -1.007032,11.27006 0.0073,0.858532 0.703405,-1.655177 0.759562,-0.735599 0.06716,1.099691 -0.227465,4.180415 -0.07602,5.385468 0.249722,0.2108 0.456853,-0.659102 0.877335,-0.475874 0.397001,0.172996 -0.233933,0.80615 0.298004,0.965838 0.516315,0.154998 1.648133,0.134262 2.28621,0.271221 0.30984,0.0665 0.08296,0.297556 0.418258,0.359845 0.449201,0.08345 0.917564,0.294559 1.410726,0.239056 8.749104,-0.984678 20.335254,3.403334 28.584844,0.08807 0.73769,-0.296457 0.0744,0.744175 0.76302,0.670082 1.39651,-0.150255 1.29774,-1.174353 2.15134,-1.328661 0.92137,-0.16656 1.60741,1.17483 1.68312,0.962647 0.48654,-0.798041 0.0337,-4.781755 -0.0262,-9.106943 -0.006,-0.421387 0.92453,2.486082 0.90478,2.028435 -0.0368,-0.852745 -0.64536,-4.889766 -0.69299,-5.783669 -0.0422,-0.793004 -0.0882,-1.597968 -0.13694,-2.407358 -0.0222,-0.368047 0.48845,1.229592 0.46526,0.860421 -0.26239,-4.17684 -1.11887,-10.346941 -1.36988,-13.552344 -12.46633,-2.373047 -24.81445,-3.989075 -36.296958,1.508446 z"
       id="path5250"
       sodipodi:nodetypes="csssscsssssssscsssssccc" />
    <path
       sodipodi:nodetypes="cccccc"
       id="path899-9"
       d="m 94.6161,15.10442 c -2.03477,9.148197 -0.18765,19.684317 0.15416,29.682237 1.80727,8.4718 9.30606,11.51632 14.80649,14.29109 8.07363,-2.81756 13.50858,-7.44402 15.36852,-14.45948 0.81255,-9.59311 2.61846,-19.23562 1.1301,-28.714307 C 108.19341,4.8685886 102.52017,10.520832 94.6161,15.10442 Z"
       style="fill:#ffb380;stroke:none;stroke-width:0.264583px;stroke-linecap:butt;stroke-linejoin:miter;stroke-opacity:1" />
    <path
       id="path4615"
       style="fill:#2b1100;stroke:none;stroke-width:0.999999px;stroke-linecap:butt;stroke-linejoin:miter;stroke-opacity:1"
       d="m 474.625,138.9668 c -3.42799,8.27335 -5.62398,17.03906 -13.53906,23.51758 -29.45488,-4.76481 -76.76947,-2.72252 -90.15039,3.5625 -10.13374,-7.08177 -10.86248,-16.84985 -14.9668,-25.6543 l 1.42578,29.57422 c 2.36114,21.75334 11.24369,44.09444 24.94336,53.44922 12.19431,3.7486 20.46412,8.7468 73.04688,-0.35547 12.45369,-12.17954 12.81194,-37.96451 18.52734,-57.72461 z m -91.93164,41.68945 c 22.42887,-4.9115 32.49378,-10.58905 64.85156,2.13925 -4.45318,3.83051 -7.62175,8.30333 -6.41406,14.96427 -18.49394,-14.22801 -37.33745,-10.27707 -57.36914,-2.84961 3.25743,-3.54679 1.27113,-8.84148 -1.06836,-14.25391 z"
       transform="scale(0.26458333)"
       sodipodi:nodetypes="cccccccccccccc" />
    <path
       inkscape:transform-center-y="-29.415278"
       inkscape:transform-center-x="0.27140367"
       sodipodi:nodetypes="csscsssscsscsscc"
       id="path3663"
       d="m 107.93486,10.723548 c -3.03836,2.129438 -5.86295,6.969924 -7.65907,9.84185 -0.334028,0.534104 -0.21646,-0.943323 -0.515129,-0.4415 -3.087264,5.187247 -4.499146,9.778593 -7.087514,11.06539 0.03529,-0.733802 0.06716,-1.476211 0.09991,-2.223159 0.01704,-0.388566 -0.499007,0.988248 -0.480896,0.597798 0.333074,-7.180685 1.483058,-16.349621 6.130894,-20.4104424 0.23227,-0.2029345 -1.225338,0.3024535 -0.972466,0.116654 2.18411,-1.6047918 6.854091,-3.2538377 10.911431,-3.2606472 8.28736,0.7563536 18.05204,5.5613196 20.80864,18.4459946 0.18155,0.84858 -0.86205,-1.482492 -0.62132,-0.05068 0.33526,1.994032 0.57926,3.941844 0.63689,5.415385 -4.81084,-0.02068 -9.98694,-8.168505 -13.77813,-13.171152 -0.42912,-0.566238 0.27828,2.000907 -0.14513,1.442234 -2.35743,-3.110467 -3.8907,-6.036476 -7.32811,-7.367717 z"
       style="display:inline;fill:#2b1100;stroke:none;stroke-width:0.264583px;stroke-linecap:butt;stroke-linejoin:miter;stroke-opacity:1" />
  </g>
</svg>
