<?xml version="1.0" encoding="UTF-8" standalone="no"?>
<svg
   xmlns:dc="http://purl.org/dc/elements/1.1/"
   xmlns:cc="http://creativecommons.org/ns#"
   xmlns:rdf="http://www.w3.org/1999/02/22-rdf-syntax-ns#"
   xmlns:svg="http://www.w3.org/2000/svg"
   xmlns="http://www.w3.org/2000/svg"
   xmlns:sodipodi="http://sodipodi.sourceforge.net/DTD/sodipodi-0.dtd"
   xmlns:inkscape="http://www.inkscape.org/namespaces/inkscape"
   sodipodi:docname="glowa.svg"
   inkscape:version="1.0 (4035a4fb49, 2020-05-01)"
   id="svg8"
   version="1.1"
   viewBox="0 0 55.929534 57.740684"
   height="57.740685mm"
   width="55.929535mm"
   inkscape:export-filename="C:\Users\260862\Desktop\bartender.png"
   inkscape:export-xdpi="241.905"
   inkscape:export-ydpi="241.905">
  <defs
     id="defs2">
    <clipPath
       id="clipPath4045"
       clipPathUnits="userSpaceOnUse">
      <path
         sodipodi:nodetypes="cccccc"
         id="path4047"
         d="M 87.197134,57.598109 C 88.69643,71.309833 86.336415,84.020996 68.797741,92.79695 L 14.399527,175.72756 -18.399396,142.39532 27.465763,50.665004 Z"
         style="fill:none;stroke:#000000;stroke-width:0.264583px;stroke-linecap:butt;stroke-linejoin:miter;stroke-opacity:1" />
    </clipPath>
  </defs>
  <sodipodi:namedview
     inkscape:window-maximized="1"
     inkscape:window-y="-8"
     inkscape:window-x="1352"
     inkscape:window-height="1017"
     inkscape:window-width="1920"
     inkscape:snap-global="false"
     inkscape:object-nodes="true"
     inkscape:snap-others="true"
     showgrid="false"
     inkscape:document-rotation="0"
     inkscape:current-layer="layer10"
     inkscape:document-units="mm"
     inkscape:cy="546.93392"
     inkscape:cx="-8.9716083"
     inkscape:zoom="0.49611004"
     inkscape:pageshadow="2"
     inkscape:pageopacity="0.0"
     borderopacity="1.0"
     bordercolor="#666666"
     pagecolor="#ffffff"
     id="base"
     showguides="true"
     inkscape:guide-bbox="true" />
  <metadata
     id="metadata5">
    <rdf:RDF>
      <cc:Work
         rdf:about="">
        <dc:format>image/svg+xml</dc:format>
        <dc:type
           rdf:resource="http://purl.org/dc/dcmitype/StillImage" />
        <dc:title></dc:title>
      </cc:Work>
    </rdf:RDF>
  </metadata>
  <g
     transform="translate(-79.864045,-6.6702189)"
     inkscape:label="right_leg"
     id="layer10"
     inkscape:groupmode="layer"
     style="display:inline" />
  <g
     transform="translate(-79.864045,-6.6702189)"
     style="display:inline"
     inkscape:label="left_leg"
     id="layer9"
     inkscape:groupmode="layer" />
  <g
     transform="translate(-79.864045,-6.6702189)"
     style="display:inline"
     inkscape:label="right_arm"
     id="layer8"
     inkscape:groupmode="layer" />
  <g
     transform="translate(-79.864045,-6.6702189)"
     style="display:inline"
     inkscape:label="left_arm"
     id="layer7"
     inkscape:groupmode="layer" />
  <g
     transform="translate(-79.864045,-6.6702189)"
     style="display:inline"
     id="layer1"
     inkscape:groupmode="layer"
     inkscape:label="torso">
    <rect
       style="opacity:0.99;fill:#e6e6e6;stroke:none;stroke-width:0.264583;stroke-dasharray:0.264583, 0.529167"
       id="rect1426-4-1-7-1"
       width="18.666054"
       height="1.1999606"
       x="609.90704"
       y="-202.42381"
       transform="rotate(26.612994)" />
  </g>
  <g
     transform="translate(-79.864045,-6.6702189)"
     style="display:inline"
     inkscape:label="head"
     id="layer11"
     inkscape:groupmode="layer">
    <path
       style="fill:#ffb380;stroke:none;stroke-width:0.264583px;stroke-linecap:butt;stroke-linejoin:miter;stroke-opacity:1"
       d="m 91.949525,20.437578 c -2.03477,9.148197 -0.18765,19.684317 0.15416,29.682237 1.80727,8.4718 9.306065,11.51632 14.806495,14.29109 8.07363,-2.81756 13.50858,-7.44402 15.36852,-14.45948 0.81255,-9.59311 2.61846,-19.23562 1.1301,-28.714307 C 105.52684,10.201747 99.853597,15.85399 91.949525,20.437578 Z"
       id="path899-9"
       sodipodi:nodetypes="cccccc" />
    <path
       sodipodi:nodetypes="ccccccccccccccccccsc"
       id="path893"
       d="M 126.79585,21.065975 C 121.65051,2.6374862 102.22213,5.1052762 93.556075,10.949993 c -4.10068,2.661652 0.88536,0.17223 0.53531,0.759893 -2.72305,2.14649 -3.57725,2.232622 -5.16097,7.756141 -0.90777,2.139646 -1.24886,3.304333 -4.33319,5.466488 l 3.9332,-1.999934 c -1.42655,2.697074 -2.52566,5.735312 -8.66638,10.666316 l 7.86641,-4.399855 c -1.33594,6.484696 -2.773505,3.331736 -1.333285,16.666118 1.5982,-9.560568 5.154415,-7.404149 9.733015,-16.302407 0.29995,6.592386 2.289192,9.384014 7.866405,14.569131 -1.26365,-4.977614 -3.89441,-8.823895 -2.18849,-13.801509 -2.223923,5.630033 3.23087,7.409804 7.92163,10.734943 -2.22418,-4.666513 -1.1581,-5.190354 -0.28953,-9.856867 4.93888,5.167153 10.35898,7.807127 17.42428,9.075844 -4.03552,-2.383386 -5.54887,-5.729823 -7.14847,-8.809186 3.07992,4.427106 9.51879,7.687191 16.07757,8.542529 -3.31437,-2.08448 -8.00843,-8.864594 -9.26439,-12.551873 0,0 5.87993,3.667644 5.39982,3.399889 -3.45035,-1.924251 -4.26789,-8.497667 -5.13316,-9.799679 z"
       style="fill:#ffeeaa;stroke:none;stroke-width:0.264583px;stroke-linecap:butt;stroke-linejoin:miter;stroke-opacity:1" />
  </g>
</svg>
