<?xml version="1.0" encoding="UTF-8" standalone="no"?>
<svg
   xmlns:dc="http://purl.org/dc/elements/1.1/"
   xmlns:cc="http://creativecommons.org/ns#"
   xmlns:rdf="http://www.w3.org/1999/02/22-rdf-syntax-ns#"
   xmlns:svg="http://www.w3.org/2000/svg"
   xmlns="http://www.w3.org/2000/svg"
   xmlns:sodipodi="http://sodipodi.sourceforge.net/DTD/sodipodi-0.dtd"
   xmlns:inkscape="http://www.inkscape.org/namespaces/inkscape"
   sodipodi:docname="korpus.svg"
   inkscape:version="1.0 (4035a4fb49, 2020-05-01)"
   id="svg8"
   version="1.1"
   viewBox="0 0 82.90947 222.67276"
   height="222.67276mm"
   width="82.90947mm"
   inkscape:export-filename="C:\Users\260862\Desktop\bartender.png"
   inkscape:export-xdpi="241.905"
   inkscape:export-ydpi="241.905">
  <defs
     id="defs2">
    <clipPath
       id="clipPath4045"
       clipPathUnits="userSpaceOnUse">
      <path
         sodipodi:nodetypes="cccccc"
         id="path4047"
         d="M 87.197134,57.598109 C 88.69643,71.309833 86.336415,84.020996 68.797741,92.79695 L 14.399527,175.72756 -18.399396,142.39532 27.465763,50.665004 Z"
         style="fill:none;stroke:#000000;stroke-width:0.264583px;stroke-linecap:butt;stroke-linejoin:miter;stroke-opacity:1" />
    </clipPath>
  </defs>
  <sodipodi:namedview
     inkscape:window-maximized="1"
     inkscape:window-y="-8"
     inkscape:window-x="1352"
     inkscape:window-height="1017"
     inkscape:window-width="1920"
     inkscape:snap-global="false"
     inkscape:object-nodes="true"
     inkscape:snap-others="true"
     showgrid="false"
     inkscape:document-rotation="0"
     inkscape:current-layer="layer10"
     inkscape:document-units="mm"
     inkscape:cy="334.61942"
     inkscape:cx="193.2299"
     inkscape:zoom="0.49611004"
     inkscape:pageshadow="2"
     inkscape:pageopacity="0.0"
     borderopacity="1.0"
     bordercolor="#666666"
     pagecolor="#ffffff"
     id="base"
     showguides="true"
     inkscape:guide-bbox="true" />
  <metadata
     id="metadata5">
    <rdf:RDF>
      <cc:Work
         rdf:about="">
        <dc:format>image/svg+xml</dc:format>
        <dc:type
           rdf:resource="http://purl.org/dc/dcmitype/StillImage" />
        <dc:title></dc:title>
      </cc:Work>
    </rdf:RDF>
  </metadata>
  <g
     transform="translate(-68.043521,-45.914646)"
     inkscape:label="right_leg"
     id="layer10"
     inkscape:groupmode="layer"
     style="display:inline" />
  <g
     transform="translate(-68.043521,-45.914646)"
     style="display:inline"
     inkscape:label="left_leg"
     id="layer9"
     inkscape:groupmode="layer" />
  <g
     transform="translate(-68.043521,-45.914646)"
     style="display:inline"
     inkscape:label="right_arm"
     id="layer8"
     inkscape:groupmode="layer" />
  <g
     transform="translate(-68.043521,-45.914646)"
     style="display:inline"
     inkscape:label="left_arm"
     id="layer7"
     inkscape:groupmode="layer" />
  <g
     transform="translate(-68.043521,-45.914646)"
     style="display:inline"
     id="layer1"
     inkscape:groupmode="layer"
     inkscape:label="torso">
    <path
       style="fill:#ffb380;stroke:none;stroke-width:0.264583px;stroke-linecap:butt;stroke-linejoin:miter;stroke-opacity:1"
       d="m 97.798289,58.028442 c 3.812421,-4.050854 3.636791,-7.056378 5.478921,-11.902358 l 11.92662,-0.211438 c 1.69817,3.383011 1.99416,8.286887 6.62528,11.570533 19.44342,21.24971 19.32678,13.033116 7.14703,94.474231 l -38.175594,0.37798 C 77.593446,78.106461 69.049729,76.07386 97.798289,58.028442 Z"
       id="path895-3"
       sodipodi:nodetypes="ccccccc" />
    <rect
       style="opacity:0.99;fill:#e6e6e6;stroke:none;stroke-width:0.264583;stroke-dasharray:0.264583, 0.529167"
       id="rect1426-4-1-7-1"
       width="18.666054"
       height="1.1999606"
       x="609.90704"
       y="-202.42381"
       transform="rotate(26.612994)" />
    <path
       style="fill:#00112b;stroke:none;stroke-width:0.264583px;stroke-linecap:butt;stroke-linejoin:miter;stroke-opacity:1"
       d="m 88.874397,152.77582 43.004083,-0.14286 c 9.66567,-66.097108 23.06769,-94.442115 -11.60909,-96.778728 -1.77618,6.10235 -2.93476,10.857362 -10.94912,17.999408 C 101.86265,67.129919 102.60308,63.464449 98.519833,56.387548 65.386208,61.425761 76.692739,85.867518 86.87839,153.01007 Z"
       id="path1834"
       sodipodi:nodetypes="ccccccc" />
    <path
       style="fill:#00112b;stroke:none;stroke-width:0.264583px;stroke-linecap:butt;stroke-linejoin:miter;stroke-opacity:1"
       d="m 87.242891,152.65772 c -13.622133,53.34359 -15.061364,76.22992 -19.19937,105.86319 17.53029,13.98128 48.983599,11.01281 82.663949,5.33316 1.54551,-24.18857 -4.15001,-63.39396 -18.6605,-110.66303 z"
       id="path1838"
       sodipodi:nodetypes="ccccc" />
    <path
       style="fill:#b7bec8;stroke:none;stroke-width:0.264583px;stroke-linecap:butt;stroke-linejoin:miter;stroke-opacity:1"
       d="m 85.785745,148.2484 c 0.166084,2.03656 1.16732,4.74587 0.754221,7.75595 11.196194,1.76623 20.833204,0.74318 46.301434,-0.30849 -0.81446,-3.02212 -0.46177,-4.56815 0.1428,-7.59027 -20.83426,-0.73419 -34.387492,-0.2455 -47.198455,0.14281 z"
       id="path1928"
       sodipodi:nodetypes="ccccc" />
  </g>
  <g
     transform="translate(-68.043521,-45.914646)"
     style="display:inline"
     inkscape:label="head"
     id="layer11"
     inkscape:groupmode="layer" />
</svg>
