<?xml version="1.0" encoding="UTF-8" standalone="no"?>
<svg
   xmlns:dc="http://purl.org/dc/elements/1.1/"
   xmlns:cc="http://creativecommons.org/ns#"
   xmlns:rdf="http://www.w3.org/1999/02/22-rdf-syntax-ns#"
   xmlns:svg="http://www.w3.org/2000/svg"
   xmlns="http://www.w3.org/2000/svg"
   xmlns:sodipodi="http://sodipodi.sourceforge.net/DTD/sodipodi-0.dtd"
   xmlns:inkscape="http://www.inkscape.org/namespaces/inkscape"
   sodipodi:docname="korpus.svg"
   inkscape:version="1.0 (4035a4fb49, 2020-05-01)"
   id="svg8"
   version="1.1"
   viewBox="0 0 72.154422 136.64796"
   height="136.64796mm"
   width="72.154419mm"
   inkscape:export-filename="C:\studia\II\animation_2d\shephard\shepherd_icon.png"
   inkscape:export-xdpi="98697.148"
   inkscape:export-ydpi="98697.148">
  <defs
     id="defs2">
    <clipPath
       id="clipPath4045"
       clipPathUnits="userSpaceOnUse">
      <path
         sodipodi:nodetypes="cccccc"
         id="path4047"
         d="M 87.197134,57.598109 C 88.69643,71.309833 86.336415,84.020996 68.797741,92.79695 L 14.399527,175.72756 -18.399396,142.39532 27.465763,50.665004 Z"
         style="fill:none;stroke:#000000;stroke-width:0.264583px;stroke-linecap:butt;stroke-linejoin:miter;stroke-opacity:1" />
    </clipPath>
  </defs>
  <sodipodi:namedview
     inkscape:window-maximized="1"
     inkscape:window-y="-9"
     inkscape:window-x="-9"
     inkscape:window-height="1001"
     inkscape:window-width="1920"
     inkscape:snap-global="false"
     inkscape:object-nodes="true"
     inkscape:snap-others="true"
     showgrid="false"
     inkscape:document-rotation="0"
     inkscape:current-layer="layer8"
     inkscape:document-units="mm"
     inkscape:cy="508.90758"
     inkscape:cx="-624.98844"
     inkscape:zoom="0.32079703"
     inkscape:pageshadow="2"
     inkscape:pageopacity="0.0"
     borderopacity="1.0"
     bordercolor="#666666"
     pagecolor="#ffffff"
     id="base"
     showguides="true"
     inkscape:guide-bbox="true" />
  <metadata
     id="metadata5">
    <rdf:RDF>
      <cc:Work
         rdf:about="">
        <dc:format>image/svg+xml</dc:format>
        <dc:type
           rdf:resource="http://purl.org/dc/dcmitype/StillImage" />
        <dc:title></dc:title>
      </cc:Work>
    </rdf:RDF>
  </metadata>
  <g
     inkscape:groupmode="layer"
     id="layer8"
     inkscape:label="left_leg"
     style="display:inline"
     transform="translate(-71.278656,-42.767178)" />
  <g
     inkscape:groupmode="layer"
     id="layer4"
     inkscape:label="right_leg"
     style="display:inline"
     transform="translate(-71.278656,-42.767178)" />
  <g
     inkscape:groupmode="layer"
     id="layer5"
     inkscape:label="left_arm"
     style="display:inline"
     transform="translate(-71.278656,-42.767178)" />
  <g
     inkscape:groupmode="layer"
     id="layer7"
     inkscape:label="right_arm"
     style="display:inline"
     transform="translate(-71.278656,-42.767178)" />
  <g
     inkscape:groupmode="layer"
     id="layer3"
     inkscape:label="torso"
     style="display:inline"
     transform="translate(-71.278656,-42.767178)"
     sodipodi:insensitive="true">
    <g
       id="g953"
       inkscape:transform-center-x="3.6259853"
       inkscape:transform-center-y="-54.960564"
       transform="rotate(-0.40662338,109.35005,176.81506)">
      <path
         sodipodi:nodetypes="cccccccc"
         id="path895-3"
         d="m 89.589279,57.083597 c 3.81242,-4.050854 6.221296,4.159581 11.577321,-14.351514 l 14.71867,0.0781 c 1.69817,3.383011 -0.0493,9.157166 10.99271,13.59132 9.82258,15.490363 7.70134,16.50008 9.04185,30.789327 l -9.0543,61.37458 -38.175598,0.37798 C 79.625783,75.89616 89.012427,98.305446 89.589279,57.083597 Z"
         style="display:inline;fill:#f0c2a6;fill-opacity:1;stroke:none;stroke-width:0.264583px;stroke-linecap:butt;stroke-linejoin:miter;stroke-opacity:1" />
      <g
         transform="matrix(1.3162758,0,0,0.8334302,-197.64894,1.452686)"
         id="g3248"
         style="display:inline">
        <path
           style="fill:#eedcd1;fill-opacity:1;stroke:none;stroke-width:0.264583px;stroke-linecap:butt;stroke-linejoin:miter;stroke-opacity:1"
           d="m 221.00679,63.130963 c 0.50771,-0.154538 2.22845,-4.057024 2.78278,-4.276295 0,0 4.28561,9.905259 4.47646,10.843471 0.20163,0.991242 3.54408,2.618348 3.65458,4.638692 l 1.17174,21.422205 c 0,0 1.52234,-21.788443 1.59884,-21.794952 l 2.87993,-3.226939 c 1.53984,-2.915655 4.55899,-11.851543 4.55899,-11.851543 l 1.71815,4.367008 13.67186,2.086286 c 0,0 -1.61209,60.981184 -5.2479,64.632054 -3.63581,3.65087 -1.33076,30.44269 1.09588,44.27206 2.42663,13.82937 1.74537,14.17261 1.74537,14.17261 0.3536,3.71807 2.58784,16.56741 3.81486,21.26608 1.15568,4.42552 -3.11898,-0.22391 -4.04698,1.25729 -0.88227,1.40821 -7.78434,0.28352 -7.78434,0.28352 -0.32575,-0.694 -16.84649,0.65269 -18.92929,1.25318 -8.3312,2.40195 -16.70403,-0.27951 -18.8151,-3.54729 -1.05554,-1.63389 -0.0652,-14.10469 2.42451,-24.77545 2.7532,-11.80009 1.57894,-14.21368 2.01914,-16.64735 0.85313,-4.71661 1.92573,-25.99922 0.40509,-33.91401 -1.52065,-7.91479 -9.25777,-64.460445 -9.25777,-64.460445 0,0 14.17866,-5.426567 16.0632,-6.000182 z"
           id="path1654"
           sodipodi:nodetypes="sssscccccczzcssssssszcs"
           inkscape:label="path1654" />
      </g>
      <path
         style="display:inline;fill:#8f5831;fill-opacity:1;stroke:none;stroke-width:0.264583px;stroke-linecap:butt;stroke-linejoin:miter;stroke-opacity:1"
         d="m 91.23197,53.500879 c 3.4011,6.671922 8.126886,12.93634 12.49972,15.856854 0.48959,11.200851 0.84829,19.481284 4.8393,27.18071 4.13944,-6.925395 4.19303,-16.510313 5.32518,-27.445448 2.96319,-1.951059 10.30672,-9.855915 10.52158,-16.20492 l 11.44591,1.352764 c -2.11607,6.448648 -4.65293,27.027891 1.73947,38.263642 0.67199,1.181139 -0.12797,25.858079 -0.34743,28.322369 -0.44641,5.01277 2.49711,18.16387 1.32441,30.98279 l -60.31478,1.40266 c 0.64151,-13.64047 3.15965,-28.48561 3.01378,-32.34232 -0.16514,-4.36608 -0.0224,-27.4118 0.5644,-29.471511 2.86337,-10.049588 3.20562,-21.362947 -0.80497,-35.277526 z"
         id="path1422-5"
         sodipodi:nodetypes="ccccccssccsscc"
         inkscape:label="path1422-5" />
      <path
         style="fill:#502d16;fill-opacity:1;stroke:none;stroke-width:0.195693px;stroke-linecap:butt;stroke-linejoin:miter;stroke-opacity:1"
         d="m 80.053221,122.34529 c 0,0 1.484864,5.29145 -0.162168,3.98849 -1.647032,-1.30295 24.075367,0.87249 23.958047,1.35794 -0.0587,0.24271 7.89569,-0.33166 16.09331,-1.04847 0.51235,-0.0448 1.44204,-0.13177 2.57856,-0.24283 1.13651,-0.11107 2.27062,-0.24413 3.61028,-0.38534 1.33967,-0.14121 2.67566,-0.28846 3.79746,-0.42369 1.1218,-0.13522 2.23865,-0.26054 2.72158,-0.35366 0.91221,-0.1759 -1.74199,12.30705 -0.18466,12.80092 0,0 0.96042,-12.76333 2.00843,-12.90107 1.04802,-0.13774 2.7927,-0.31564 3.02131,-0.39739 0.91444,-0.32701 0.94606,-0.95129 0.74907,-1.49381 -0.19698,-0.54252 -0.62258,-1.00329 -0.62258,-1.00329 0,0 -6.6363,0.40079 -14.14471,0.84974 -7.50841,0.44894 -15.88893,0.94602 -19.37739,1.13861 -6.976908,0.38517 -24.046539,-1.88615 -24.046539,-1.88615 z"
         id="path1656"
         sodipodi:nodetypes="czsssssssssscssc" />
      <rect
         style="display:inline;opacity:0.99;fill:#8f5831;fill-opacity:1;stroke:none;stroke-width:0.264583;stroke-dasharray:0.264583, 0.529167"
         id="rect1426-4-1-7"
         width="18.666054"
         height="1.1999606"
         x="125.67424"
         y="25.580362"
         transform="rotate(26.612994)" />
      <rect
         transform="rotate(-13.482039)"
         y="94.824951"
         x="79.7845"
         height="1.1999606"
         width="18.666054"
         id="rect1426-7-9"
         style="display:inline;opacity:0.99;fill:#8f5831;fill-opacity:1;stroke:none;stroke-width:0.264583;stroke-dasharray:0.264583, 0.529167" />
      <rect
         style="display:inline;opacity:0.99;fill:#8f5831;fill-opacity:1;stroke:none;stroke-width:0.264583;stroke-dasharray:0.264583, 0.529167"
         id="rect1426-7-7-9"
         width="18.666054"
         height="1.1999606"
         x="71.012527"
         y="106.62923"
         transform="rotate(-18.035543)" />
      <rect
         transform="rotate(-28.20864)"
         y="124.15797"
         x="47.923203"
         height="1.1999606"
         width="18.666054"
         id="rect1426-4-1-3-4"
         style="display:inline;opacity:0.99;fill:#8f5831;fill-opacity:1;stroke:none;stroke-width:0.264583;stroke-dasharray:0.264583, 0.529167" />
      <rect
         style="display:inline;opacity:0.99;fill:#8f5831;fill-opacity:1;stroke:none;stroke-width:0.264583;stroke-dasharray:0.264583, 0.529167"
         id="rect1426-6"
         width="18.666054"
         height="1.1999606"
         x="111.17232"
         y="47.914333"
         transform="rotate(11.845872)" />
      <rect
         transform="rotate(17.746835)"
         y="40.041523"
         x="116.79109"
         height="1.1999606"
         width="18.666054"
         id="rect1426-4-6"
         style="display:inline;opacity:0.99;fill:#8f5831;fill-opacity:1;stroke:none;stroke-width:0.264583;stroke-dasharray:0.264583, 0.529167" />
    </g>
  </g>
  <g
     inkscape:groupmode="layer"
     id="layer6"
     inkscape:label="head"
     style="display:inline"
     transform="translate(-71.278656,-42.767178)" />
</svg>
